<?xml version="1.0" encoding="utf-8" standalone="no"?>
<!DOCTYPE svg PUBLIC "-//W3C//DTD SVG 1.1//EN"
  "http://www.w3.org/Graphics/SVG/1.1/DTD/svg11.dtd">
<svg xmlns:xlink="http://www.w3.org/1999/xlink" width="216pt" height="115.2pt" viewBox="0 0 216 115.2" xmlns="http://www.w3.org/2000/svg" version="1.1">
 <metadata>
  <rdf:RDF xmlns:dc="http://purl.org/dc/elements/1.1/" xmlns:cc="http://creativecommons.org/ns#" xmlns:rdf="http://www.w3.org/1999/02/22-rdf-syntax-ns#">
   <cc:Work>
    <dc:type rdf:resource="http://purl.org/dc/dcmitype/StillImage"/>
    <dc:date>2023-12-07T13:41:05.596857</dc:date>
    <dc:format>image/svg+xml</dc:format>
    <dc:creator>
     <cc:Agent>
      <dc:title>Matplotlib v3.8.0, https://matplotlib.org/</dc:title>
     </cc:Agent>
    </dc:creator>
   </cc:Work>
  </rdf:RDF>
 </metadata>
 <defs>
  <style type="text/css">*{stroke-linejoin: round; stroke-linecap: butt}</style>
 </defs>
 <g id="figure_1">
  <g id="patch_1">
   <path d="M 0 115.2 
L 216 115.2 
L 216 0 
L 0 0 
z
" style="fill: #ffffff"/>
  </g>
  <g id="axes_1">
   <g id="patch_2">
    <path d="M 27.51916 69.659867 
L 28.66353 73.09298 
L 27.662206 73.09298 
L 27.662206 83.964503 
L 27.376113 83.964503 
L 27.376113 73.09298 
L 26.374789 73.09298 
z
" clip-path="url(#p2ca2ae03e7)" style="fill: #dc143c; opacity: 0.4; stroke: #dc143c; stroke-linejoin: miter"/>
   </g>
   <g id="patch_3">
    <path d="M 33.438319 69.347755 
L 34.58269 72.780868 
L 33.581366 72.780868 
L 33.581366 83.652391 
L 33.295273 83.652391 
L 33.295273 72.780868 
L 32.293948 72.780868 
z
" clip-path="url(#p2ca2ae03e7)" style="fill: #dc143c; opacity: 0.4; stroke: #dc143c; stroke-linejoin: miter"/>
   </g>
   <g id="patch_4">
    <path d="M 39.357479 68.844431 
L 40.50185 72.277544 
L 39.500525 72.277544 
L 39.500525 83.149067 
L 39.214433 83.149067 
L 39.214433 72.277544 
L 38.213108 72.277544 
z
" clip-path="url(#p2ca2ae03e7)" style="fill: #dc143c; opacity: 0.4; stroke: #dc143c; stroke-linejoin: miter"/>
   </g>
   <g id="patch_5">
    <path d="M 45.276639 68.163787 
L 46.421009 71.5969 
L 45.419685 71.5969 
L 45.419685 82.468423 
L 45.133592 82.468423 
L 45.133592 71.5969 
L 44.132268 71.5969 
z
" clip-path="url(#p2ca2ae03e7)" style="fill: #dc143c; opacity: 0.4; stroke: #dc143c; stroke-linejoin: miter"/>
   </g>
   <g id="patch_6">
    <path d="M 51.195798 67.319191 
L 52.340169 70.752304 
L 51.338844 70.752304 
L 51.338844 81.623827 
L 51.052752 81.623827 
L 51.052752 70.752304 
L 50.051427 70.752304 
z
" clip-path="url(#p2ca2ae03e7)" style="fill: #dc143c; opacity: 0.4; stroke: #dc143c; stroke-linejoin: miter"/>
   </g>
   <g id="patch_7">
    <path d="M 57.114958 66.323487 
L 58.259329 69.756599 
L 57.258004 69.756599 
L 57.258004 80.628123 
L 56.971911 80.628123 
L 56.971911 69.756599 
L 55.970587 69.756599 
z
" clip-path="url(#p2ca2ae03e7)" style="fill: #dc143c; opacity: 0.4; stroke: #dc143c; stroke-linejoin: miter"/>
   </g>
   <g id="patch_8">
    <path d="M 63.034117 65.188993 
L 64.178488 68.622106 
L 63.177164 68.622106 
L 63.177164 79.493629 
L 62.891071 79.493629 
L 62.891071 68.622106 
L 61.889747 68.622106 
z
" clip-path="url(#p2ca2ae03e7)" style="fill: #dc143c; opacity: 0.4; stroke: #dc143c; stroke-linejoin: miter"/>
   </g>
   <g id="patch_9">
    <path d="M 68.953277 63.927505 
L 70.097648 67.360618 
L 69.096323 67.360618 
L 69.096323 78.232141 
L 68.810231 78.232141 
L 68.810231 67.360618 
L 67.808906 67.360618 
z
" clip-path="url(#p2ca2ae03e7)" style="fill: #dc143c; opacity: 0.4; stroke: #dc143c; stroke-linejoin: miter"/>
   </g>
   <g id="patch_10">
    <path d="M 74.872437 62.550294 
L 76.016807 65.983406 
L 75.015483 65.983406 
L 75.015483 76.85493 
L 74.72939 76.85493 
L 74.72939 65.983406 
L 73.728066 65.983406 
z
" clip-path="url(#p2ca2ae03e7)" style="fill: #dc143c; opacity: 0.4; stroke: #dc143c; stroke-linejoin: miter"/>
   </g>
   <g id="patch_11">
    <path d="M 80.791596 61.068106 
L 81.935967 64.501219 
L 80.934643 64.501219 
L 80.934643 75.372742 
L 80.64855 75.372742 
L 80.64855 64.501219 
L 79.647225 64.501219 
z
" clip-path="url(#p2ca2ae03e7)" style="fill: #dc143c; opacity: 0.4; stroke: #dc143c; stroke-linejoin: miter"/>
   </g>
   <g id="patch_12">
    <path d="M 86.710756 59.491164 
L 87.855127 62.924277 
L 86.853802 62.924277 
L 86.853802 73.7958 
L 86.56771 73.7958 
L 86.56771 62.924277 
L 85.566385 62.924277 
z
" clip-path="url(#p2ca2ae03e7)" style="fill: #dc143c; opacity: 0.4; stroke: #dc143c; stroke-linejoin: miter"/>
   </g>
   <g id="patch_13">
    <path d="M 92.629916 57.829166 
L 93.774286 61.262279 
L 92.772962 61.262279 
L 92.772962 72.133802 
L 92.486869 72.133802 
L 92.486869 61.262279 
L 91.485545 61.262279 
z
" clip-path="url(#p2ca2ae03e7)" style="fill: #dc143c; opacity: 0.4; stroke: #dc143c; stroke-linejoin: miter"/>
   </g>
   <g id="patch_14">
    <path d="M 98.549075 56.091287 
L 99.693446 59.524399 
L 98.692121 59.524399 
L 98.692121 70.395922 
L 98.406029 70.395922 
L 98.406029 59.524399 
L 97.404704 59.524399 
z
" clip-path="url(#p2ca2ae03e7)" style="fill: #dc143c; opacity: 0.4; stroke: #dc143c; stroke-linejoin: miter"/>
   </g>
   <g id="patch_15">
    <path d="M 104.468235 54.286175 
L 105.612606 57.719287 
L 104.611281 57.719287 
L 104.611281 68.59081 
L 104.325188 68.59081 
L 104.325188 57.719287 
L 103.323864 57.719287 
z
" clip-path="url(#p2ca2ae03e7)" style="fill: #dc143c; opacity: 0.4; stroke: #dc143c; stroke-linejoin: miter"/>
   </g>
   <g id="patch_16">
    <path d="M 110.387394 52.421956 
L 111.531765 55.855069 
L 110.530441 55.855069 
L 110.530441 66.726592 
L 110.244348 66.726592 
L 110.244348 55.855069 
L 109.243024 55.855069 
z
" clip-path="url(#p2ca2ae03e7)" style="fill: #dc143c; opacity: 0.4; stroke: #dc143c; stroke-linejoin: miter"/>
   </g>
   <g id="patch_17">
    <path d="M 116.306554 50.506232 
L 117.450925 53.939345 
L 116.4496 53.939345 
L 116.4496 64.810868 
L 116.163508 64.810868 
L 116.163508 53.939345 
L 115.162183 53.939345 
z
" clip-path="url(#p2ca2ae03e7)" style="fill: #dc143c; opacity: 0.4; stroke: #dc143c; stroke-linejoin: miter"/>
   </g>
   <g id="patch_18">
    <path d="M 122.225714 48.54608 
L 123.370084 51.979193 
L 122.36876 51.979193 
L 122.36876 62.850716 
L 122.082667 62.850716 
L 122.082667 51.979193 
L 121.081343 51.979193 
z
" clip-path="url(#p2ca2ae03e7)" style="fill: #dc143c; opacity: 0.4; stroke: #dc143c; stroke-linejoin: miter"/>
   </g>
   <g id="patch_19">
    <path d="M 128.144873 46.548052 
L 129.289244 49.981165 
L 128.28792 49.981165 
L 128.28792 60.852688 
L 128.001827 60.852688 
L 128.001827 49.981165 
L 127.000502 49.981165 
z
" clip-path="url(#p2ca2ae03e7)" style="fill: #dc143c; opacity: 0.4; stroke: #dc143c; stroke-linejoin: miter"/>
   </g>
   <g id="patch_20">
    <path d="M 134.064033 44.518178 
L 135.208404 47.95129 
L 134.207079 47.95129 
L 134.207079 58.822814 
L 133.920987 58.822814 
L 133.920987 47.95129 
L 132.919662 47.95129 
z
" clip-path="url(#p2ca2ae03e7)" style="fill: #dc143c; opacity: 0.4; stroke: #dc143c; stroke-linejoin: miter"/>
   </g>
   <g id="patch_21">
    <path d="M 139.983193 42.461961 
L 141.127563 45.895074 
L 140.126239 45.895074 
L 140.126239 56.766597 
L 139.840146 56.766597 
L 139.840146 45.895074 
L 138.838822 45.895074 
z
" clip-path="url(#p2ca2ae03e7)" style="fill: #dc143c; opacity: 0.4; stroke: #dc143c; stroke-linejoin: miter"/>
   </g>
   <g id="patch_22">
    <path d="M 145.902352 40.384382 
L 147.046723 43.817494 
L 146.045398 43.817494 
L 146.045398 54.689018 
L 145.759306 54.689018 
L 145.759306 43.817494 
L 144.757981 43.817494 
z
" clip-path="url(#p2ca2ae03e7)" style="fill: #dc143c; opacity: 0.4; stroke: #dc143c; stroke-linejoin: miter"/>
   </g>
   <g id="patch_23">
    <path d="M 151.821512 38.289896 
L 152.965883 41.723009 
L 151.964558 41.723009 
L 151.964558 52.594532 
L 151.678465 52.594532 
L 151.678465 41.723009 
L 150.677141 41.723009 
z
" clip-path="url(#p2ca2ae03e7)" style="fill: #dc143c; opacity: 0.4; stroke: #dc143c; stroke-linejoin: miter"/>
   </g>
   <g id="patch_24">
    <path d="M 157.740671 36.182436 
L 158.885042 39.615549 
L 157.883718 39.615549 
L 157.883718 50.487072 
L 157.597625 50.487072 
L 157.597625 39.615549 
L 156.596301 39.615549 
z
" clip-path="url(#p2ca2ae03e7)" style="fill: #dc143c; opacity: 0.4; stroke: #dc143c; stroke-linejoin: miter"/>
   </g>
   <g id="patch_25">
    <path d="M 163.659831 34.065409 
L 164.804202 37.498522 
L 163.802877 37.498522 
L 163.802877 48.370045 
L 163.516785 48.370045 
L 163.516785 37.498522 
L 162.51546 37.498522 
z
" clip-path="url(#p2ca2ae03e7)" style="fill: #dc143c; opacity: 0.4; stroke: #dc143c; stroke-linejoin: miter"/>
   </g>
   <g id="patch_26">
    <path d="M 169.578991 31.941698 
L 170.723361 35.37481 
L 169.722037 35.37481 
L 169.722037 46.246334 
L 169.435944 46.246334 
L 169.435944 35.37481 
L 168.43462 35.37481 
z
" clip-path="url(#p2ca2ae03e7)" style="fill: #dc143c; opacity: 0.4; stroke: #dc143c; stroke-linejoin: miter"/>
   </g>
   <g id="patch_27">
    <path d="M 175.49815 29.813662 
L 176.642521 33.246774 
L 175.641197 33.246774 
L 175.641197 44.118297 
L 175.355104 44.118297 
L 175.355104 33.246774 
L 174.353779 33.246774 
z
" clip-path="url(#p2ca2ae03e7)" style="fill: #dc143c; opacity: 0.4; stroke: #dc143c; stroke-linejoin: miter"/>
   </g>
   <g id="patch_28">
    <path d="M 181.41731 27.683136 
L 182.561681 31.116248 
L 181.560356 31.116248 
L 181.560356 41.987771 
L 181.274264 41.987771 
L 181.274264 31.116248 
L 180.272939 31.116248 
z
" clip-path="url(#p2ca2ae03e7)" style="fill: #dc143c; opacity: 0.4; stroke: #dc143c; stroke-linejoin: miter"/>
   </g>
   <g id="patch_29">
    <path d="M 187.33647 25.55143 
L 188.48084 28.984543 
L 187.479516 28.984543 
L 187.479516 39.856066 
L 187.193423 39.856066 
L 187.193423 28.984543 
L 186.192099 28.984543 
z
" clip-path="url(#p2ca2ae03e7)" style="fill: #dc143c; opacity: 0.4; stroke: #dc143c; stroke-linejoin: miter"/>
   </g>
   <g id="patch_30">
    <path d="M 193.255629 23.419331 
L 194.4 26.852444 
L 193.398675 26.852444 
L 193.398675 37.723967 
L 193.112583 37.723967 
L 193.112583 26.852444 
L 192.111258 26.852444 
z
" clip-path="url(#p2ca2ae03e7)" style="fill: #dc143c; opacity: 0.4; stroke: #dc143c; stroke-linejoin: miter"/>
   </g>
   <path d="M 21.6 93.375623 
L 11.6 83.375623 
M 21.6 83.245291 
L 11.6 73.245291 
M 21.6 73.11496 
L 11.6 63.11496 
M 21.6 62.984629 
L 11.6 52.984629 
M 21.6 52.854298 
L 11.6 42.854298 
M 21.6 42.723967 
L 11.6 32.723967 
" clip-path="url(#p2ca2ae03e7)" style="fill: none; stroke: #808080; stroke-width: 1.5; stroke-linecap: round"/>
   <path d="M 21.6 98.375623 
L 21.6 37.723967 
" clip-path="url(#p2ca2ae03e7)" style="fill: none; stroke: #808080; stroke-width: 1.5; stroke-linecap: round"/>
   <g id="text_1">
    <!-- Cantilever Beam Problem -->
    <g style="fill: #262626" transform="translate(39.642187 13.671517) scale(0.12 -0.12)">
     <defs>
      <path id="ArialMT-43" d="M 3763 1606 
L 4369 1453 
Q 4178 706 3683 314 
Q 3188 -78 2472 -78 
Q 1731 -78 1267 223 
Q 803 525 561 1097 
Q 319 1669 319 2325 
Q 319 3041 592 3573 
Q 866 4106 1370 4382 
Q 1875 4659 2481 4659 
Q 3169 4659 3637 4309 
Q 4106 3959 4291 3325 
L 3694 3184 
Q 3534 3684 3231 3912 
Q 2928 4141 2469 4141 
Q 1941 4141 1586 3887 
Q 1231 3634 1087 3207 
Q 944 2781 944 2328 
Q 944 1744 1114 1308 
Q 1284 872 1643 656 
Q 2003 441 2422 441 
Q 2931 441 3284 734 
Q 3638 1028 3763 1606 
z
" transform="scale(0.015625)"/>
      <path id="ArialMT-61" d="M 2588 409 
Q 2275 144 1986 34 
Q 1697 -75 1366 -75 
Q 819 -75 525 192 
Q 231 459 231 875 
Q 231 1119 342 1320 
Q 453 1522 633 1644 
Q 813 1766 1038 1828 
Q 1203 1872 1538 1913 
Q 2219 1994 2541 2106 
Q 2544 2222 2544 2253 
Q 2544 2597 2384 2738 
Q 2169 2928 1744 2928 
Q 1347 2928 1158 2789 
Q 969 2650 878 2297 
L 328 2372 
Q 403 2725 575 2942 
Q 747 3159 1072 3276 
Q 1397 3394 1825 3394 
Q 2250 3394 2515 3294 
Q 2781 3194 2906 3042 
Q 3031 2891 3081 2659 
Q 3109 2516 3109 2141 
L 3109 1391 
Q 3109 606 3145 398 
Q 3181 191 3288 0 
L 2700 0 
Q 2613 175 2588 409 
z
M 2541 1666 
Q 2234 1541 1622 1453 
Q 1275 1403 1131 1340 
Q 988 1278 909 1158 
Q 831 1038 831 891 
Q 831 666 1001 516 
Q 1172 366 1500 366 
Q 1825 366 2078 508 
Q 2331 650 2450 897 
Q 2541 1088 2541 1459 
L 2541 1666 
z
" transform="scale(0.015625)"/>
      <path id="ArialMT-6e" d="M 422 0 
L 422 3319 
L 928 3319 
L 928 2847 
Q 1294 3394 1984 3394 
Q 2284 3394 2536 3286 
Q 2788 3178 2913 3003 
Q 3038 2828 3088 2588 
Q 3119 2431 3119 2041 
L 3119 0 
L 2556 0 
L 2556 2019 
Q 2556 2363 2490 2533 
Q 2425 2703 2258 2804 
Q 2091 2906 1866 2906 
Q 1506 2906 1245 2678 
Q 984 2450 984 1813 
L 984 0 
L 422 0 
z
" transform="scale(0.015625)"/>
      <path id="ArialMT-74" d="M 1650 503 
L 1731 6 
Q 1494 -44 1306 -44 
Q 1000 -44 831 53 
Q 663 150 594 308 
Q 525 466 525 972 
L 525 2881 
L 113 2881 
L 113 3319 
L 525 3319 
L 525 4141 
L 1084 4478 
L 1084 3319 
L 1650 3319 
L 1650 2881 
L 1084 2881 
L 1084 941 
Q 1084 700 1114 631 
Q 1144 563 1211 522 
Q 1278 481 1403 481 
Q 1497 481 1650 503 
z
" transform="scale(0.015625)"/>
      <path id="ArialMT-69" d="M 425 3934 
L 425 4581 
L 988 4581 
L 988 3934 
L 425 3934 
z
M 425 0 
L 425 3319 
L 988 3319 
L 988 0 
L 425 0 
z
" transform="scale(0.015625)"/>
      <path id="ArialMT-6c" d="M 409 0 
L 409 4581 
L 972 4581 
L 972 0 
L 409 0 
z
" transform="scale(0.015625)"/>
      <path id="ArialMT-65" d="M 2694 1069 
L 3275 997 
Q 3138 488 2766 206 
Q 2394 -75 1816 -75 
Q 1088 -75 661 373 
Q 234 822 234 1631 
Q 234 2469 665 2931 
Q 1097 3394 1784 3394 
Q 2450 3394 2872 2941 
Q 3294 2488 3294 1666 
Q 3294 1616 3291 1516 
L 816 1516 
Q 847 969 1125 678 
Q 1403 388 1819 388 
Q 2128 388 2347 550 
Q 2566 713 2694 1069 
z
M 847 1978 
L 2700 1978 
Q 2663 2397 2488 2606 
Q 2219 2931 1791 2931 
Q 1403 2931 1139 2672 
Q 875 2413 847 1978 
z
" transform="scale(0.015625)"/>
      <path id="ArialMT-76" d="M 1344 0 
L 81 3319 
L 675 3319 
L 1388 1331 
Q 1503 1009 1600 663 
Q 1675 925 1809 1294 
L 2547 3319 
L 3125 3319 
L 1869 0 
L 1344 0 
z
" transform="scale(0.015625)"/>
      <path id="ArialMT-72" d="M 416 0 
L 416 3319 
L 922 3319 
L 922 2816 
Q 1116 3169 1280 3281 
Q 1444 3394 1641 3394 
Q 1925 3394 2219 3213 
L 2025 2691 
Q 1819 2813 1613 2813 
Q 1428 2813 1281 2702 
Q 1134 2591 1072 2394 
Q 978 2094 978 1738 
L 978 0 
L 416 0 
z
" transform="scale(0.015625)"/>
      <path id="ArialMT-20" transform="scale(0.015625)"/>
      <path id="ArialMT-42" d="M 469 0 
L 469 4581 
L 2188 4581 
Q 2713 4581 3030 4442 
Q 3347 4303 3526 4014 
Q 3706 3725 3706 3409 
Q 3706 3116 3547 2856 
Q 3388 2597 3066 2438 
Q 3481 2316 3704 2022 
Q 3928 1728 3928 1328 
Q 3928 1006 3792 729 
Q 3656 453 3456 303 
Q 3256 153 2954 76 
Q 2653 0 2216 0 
L 469 0 
z
M 1075 2656 
L 2066 2656 
Q 2469 2656 2644 2709 
Q 2875 2778 2992 2937 
Q 3109 3097 3109 3338 
Q 3109 3566 3000 3739 
Q 2891 3913 2687 3977 
Q 2484 4041 1991 4041 
L 1075 4041 
L 1075 2656 
z
M 1075 541 
L 2216 541 
Q 2509 541 2628 563 
Q 2838 600 2978 687 
Q 3119 775 3209 942 
Q 3300 1109 3300 1328 
Q 3300 1584 3169 1773 
Q 3038 1963 2805 2039 
Q 2572 2116 2134 2116 
L 1075 2116 
L 1075 541 
z
" transform="scale(0.015625)"/>
      <path id="ArialMT-6d" d="M 422 0 
L 422 3319 
L 925 3319 
L 925 2853 
Q 1081 3097 1340 3245 
Q 1600 3394 1931 3394 
Q 2300 3394 2536 3241 
Q 2772 3088 2869 2813 
Q 3263 3394 3894 3394 
Q 4388 3394 4653 3120 
Q 4919 2847 4919 2278 
L 4919 0 
L 4359 0 
L 4359 2091 
Q 4359 2428 4304 2576 
Q 4250 2725 4106 2815 
Q 3963 2906 3769 2906 
Q 3419 2906 3187 2673 
Q 2956 2441 2956 1928 
L 2956 0 
L 2394 0 
L 2394 2156 
Q 2394 2531 2256 2718 
Q 2119 2906 1806 2906 
Q 1569 2906 1367 2781 
Q 1166 2656 1075 2415 
Q 984 2175 984 1722 
L 984 0 
L 422 0 
z
" transform="scale(0.015625)"/>
      <path id="ArialMT-50" d="M 494 0 
L 494 4581 
L 2222 4581 
Q 2678 4581 2919 4538 
Q 3256 4481 3484 4323 
Q 3713 4166 3852 3881 
Q 3991 3597 3991 3256 
Q 3991 2672 3619 2267 
Q 3247 1863 2275 1863 
L 1100 1863 
L 1100 0 
L 494 0 
z
M 1100 2403 
L 2284 2403 
Q 2872 2403 3119 2622 
Q 3366 2841 3366 3238 
Q 3366 3525 3220 3729 
Q 3075 3934 2838 4000 
Q 2684 4041 2272 4041 
L 1100 4041 
L 1100 2403 
z
" transform="scale(0.015625)"/>
      <path id="ArialMT-6f" d="M 213 1659 
Q 213 2581 725 3025 
Q 1153 3394 1769 3394 
Q 2453 3394 2887 2945 
Q 3322 2497 3322 1706 
Q 3322 1066 3130 698 
Q 2938 331 2570 128 
Q 2203 -75 1769 -75 
Q 1072 -75 642 372 
Q 213 819 213 1659 
z
M 791 1659 
Q 791 1022 1069 705 
Q 1347 388 1769 388 
Q 2188 388 2466 706 
Q 2744 1025 2744 1678 
Q 2744 2294 2464 2611 
Q 2184 2928 1769 2928 
Q 1347 2928 1069 2612 
Q 791 2297 791 1659 
z
" transform="scale(0.015625)"/>
      <path id="ArialMT-62" d="M 941 0 
L 419 0 
L 419 4581 
L 981 4581 
L 981 2947 
Q 1338 3394 1891 3394 
Q 2197 3394 2470 3270 
Q 2744 3147 2920 2923 
Q 3097 2700 3197 2384 
Q 3297 2069 3297 1709 
Q 3297 856 2875 390 
Q 2453 -75 1863 -75 
Q 1275 -75 941 416 
L 941 0 
z
M 934 1684 
Q 934 1088 1097 822 
Q 1363 388 1816 388 
Q 2184 388 2453 708 
Q 2722 1028 2722 1663 
Q 2722 2313 2464 2622 
Q 2206 2931 1841 2931 
Q 1472 2931 1203 2611 
Q 934 2291 934 1684 
z
" transform="scale(0.015625)"/>
     </defs>
     <use xlink:href="#ArialMT-43"/>
     <use xlink:href="#ArialMT-61" x="72.216797"/>
     <use xlink:href="#ArialMT-6e" x="127.832031"/>
     <use xlink:href="#ArialMT-74" x="183.447266"/>
     <use xlink:href="#ArialMT-69" x="211.230469"/>
     <use xlink:href="#ArialMT-6c" x="233.447266"/>
     <use xlink:href="#ArialMT-65" x="255.664062"/>
     <use xlink:href="#ArialMT-76" x="311.279297"/>
     <use xlink:href="#ArialMT-65" x="361.279297"/>
     <use xlink:href="#ArialMT-72" x="416.894531"/>
     <use xlink:href="#ArialMT-20" x="450.195312"/>
     <use xlink:href="#ArialMT-42" x="477.978516"/>
     <use xlink:href="#ArialMT-65" x="544.677734"/>
     <use xlink:href="#ArialMT-61" x="600.292969"/>
     <use xlink:href="#ArialMT-6d" x="655.908203"/>
     <use xlink:href="#ArialMT-20" x="739.208984"/>
     <use xlink:href="#ArialMT-50" x="766.992188"/>
     <use xlink:href="#ArialMT-72" x="833.691406"/>
     <use xlink:href="#ArialMT-6f" x="866.992188"/>
     <use xlink:href="#ArialMT-62" x="922.607422"/>
     <use xlink:href="#ArialMT-6c" x="978.222656"/>
     <use xlink:href="#ArialMT-65" x="1000.439453"/>
     <use xlink:href="#ArialMT-6d" x="1056.054688"/>
    </g>
   </g>
   <g id="line2d_1">
    <path d="M 21.6 84.070987 
L 27.51916 83.964503 
L 33.438319 83.652391 
L 39.357479 83.149067 
L 45.276639 82.468423 
L 51.195798 81.623827 
L 57.114958 80.628123 
L 63.034117 79.493629 
L 68.953277 78.232141 
L 74.872437 76.85493 
L 80.791596 75.372742 
L 86.710756 73.7958 
L 92.629916 72.133802 
L 98.549075 70.395922 
L 104.468235 68.59081 
L 110.387394 66.726592 
L 116.306554 64.810868 
L 122.225714 62.850716 
L 128.144873 60.852688 
L 134.064033 58.822814 
L 139.983193 56.766597 
L 145.902352 54.689018 
L 151.821512 52.594532 
L 157.740671 50.487072 
L 163.659831 48.370045 
L 169.578991 46.246334 
L 175.49815 44.118297 
L 181.41731 41.987771 
L 187.33647 39.856066 
L 193.255629 37.723967 
" clip-path="url(#p2ca2ae03e7)" style="fill: none; stroke: #000080; stroke-width: 2; stroke-linecap: round"/>
    <defs>
     <path id="m4c1cc32bc1" d="M 0 1.5 
C 0.397805 1.5 0.77937 1.341951 1.06066 1.06066 
C 1.341951 0.77937 1.5 0.397805 1.5 0 
C 1.5 -0.397805 1.341951 -0.77937 1.06066 -1.06066 
C 0.77937 -1.341951 0.397805 -1.5 0 -1.5 
C -0.397805 -1.5 -0.77937 -1.341951 -1.06066 -1.06066 
C -1.341951 -0.77937 -1.5 -0.397805 -1.5 0 
C -1.5 0.397805 -1.341951 0.77937 -1.06066 1.06066 
C -0.77937 1.341951 -0.397805 1.5 0 1.5 
z
" style="stroke: #000080"/>
    </defs>
    <g clip-path="url(#p2ca2ae03e7)">
     <use xlink:href="#m4c1cc32bc1" x="21.6" y="84.070987" style="fill: #000080; stroke: #000080"/>
     <use xlink:href="#m4c1cc32bc1" x="27.51916" y="83.964503" style="fill: #000080; stroke: #000080"/>
     <use xlink:href="#m4c1cc32bc1" x="33.438319" y="83.652391" style="fill: #000080; stroke: #000080"/>
     <use xlink:href="#m4c1cc32bc1" x="39.357479" y="83.149067" style="fill: #000080; stroke: #000080"/>
     <use xlink:href="#m4c1cc32bc1" x="45.276639" y="82.468423" style="fill: #000080; stroke: #000080"/>
     <use xlink:href="#m4c1cc32bc1" x="51.195798" y="81.623827" style="fill: #000080; stroke: #000080"/>
     <use xlink:href="#m4c1cc32bc1" x="57.114958" y="80.628123" style="fill: #000080; stroke: #000080"/>
     <use xlink:href="#m4c1cc32bc1" x="63.034117" y="79.493629" style="fill: #000080; stroke: #000080"/>
     <use xlink:href="#m4c1cc32bc1" x="68.953277" y="78.232141" style="fill: #000080; stroke: #000080"/>
     <use xlink:href="#m4c1cc32bc1" x="74.872437" y="76.85493" style="fill: #000080; stroke: #000080"/>
     <use xlink:href="#m4c1cc32bc1" x="80.791596" y="75.372742" style="fill: #000080; stroke: #000080"/>
     <use xlink:href="#m4c1cc32bc1" x="86.710756" y="73.7958" style="fill: #000080; stroke: #000080"/>
     <use xlink:href="#m4c1cc32bc1" x="92.629916" y="72.133802" style="fill: #000080; stroke: #000080"/>
     <use xlink:href="#m4c1cc32bc1" x="98.549075" y="70.395922" style="fill: #000080; stroke: #000080"/>
     <use xlink:href="#m4c1cc32bc1" x="104.468235" y="68.59081" style="fill: #000080; stroke: #000080"/>
     <use xlink:href="#m4c1cc32bc1" x="110.387394" y="66.726592" style="fill: #000080; stroke: #000080"/>
     <use xlink:href="#m4c1cc32bc1" x="116.306554" y="64.810868" style="fill: #000080; stroke: #000080"/>
     <use xlink:href="#m4c1cc32bc1" x="122.225714" y="62.850716" style="fill: #000080; stroke: #000080"/>
     <use xlink:href="#m4c1cc32bc1" x="128.144873" y="60.852688" style="fill: #000080; stroke: #000080"/>
     <use xlink:href="#m4c1cc32bc1" x="134.064033" y="58.822814" style="fill: #000080; stroke: #000080"/>
     <use xlink:href="#m4c1cc32bc1" x="139.983193" y="56.766597" style="fill: #000080; stroke: #000080"/>
     <use xlink:href="#m4c1cc32bc1" x="145.902352" y="54.689018" style="fill: #000080; stroke: #000080"/>
     <use xlink:href="#m4c1cc32bc1" x="151.821512" y="52.594532" style="fill: #000080; stroke: #000080"/>
     <use xlink:href="#m4c1cc32bc1" x="157.740671" y="50.487072" style="fill: #000080; stroke: #000080"/>
     <use xlink:href="#m4c1cc32bc1" x="163.659831" y="48.370045" style="fill: #000080; stroke: #000080"/>
     <use xlink:href="#m4c1cc32bc1" x="169.578991" y="46.246334" style="fill: #000080; stroke: #000080"/>
     <use xlink:href="#m4c1cc32bc1" x="175.49815" y="44.118297" style="fill: #000080; stroke: #000080"/>
     <use xlink:href="#m4c1cc32bc1" x="181.41731" y="41.987771" style="fill: #000080; stroke: #000080"/>
     <use xlink:href="#m4c1cc32bc1" x="187.33647" y="39.856066" style="fill: #000080; stroke: #000080"/>
     <use xlink:href="#m4c1cc32bc1" x="193.255629" y="37.723967" style="fill: #000080; stroke: #000080"/>
    </g>
   </g>
  </g>
 </g>
 <defs>
  <clipPath id="p2ca2ae03e7">
   <rect x="12.96" y="19.671517" width="190.08" height="82.451921"/>
  </clipPath>
 </defs>
</svg>
