<?xml version="1.0" encoding="utf-8" standalone="no"?>
<!DOCTYPE svg PUBLIC "-//W3C//DTD SVG 1.1//EN"
  "http://www.w3.org/Graphics/SVG/1.1/DTD/svg11.dtd">
<svg xmlns:xlink="http://www.w3.org/1999/xlink" width="460.8pt" height="345.6pt" viewBox="0 0 460.8 345.6" xmlns="http://www.w3.org/2000/svg" version="1.1">
 <metadata>
  <rdf:RDF xmlns:dc="http://purl.org/dc/elements/1.1/" xmlns:cc="http://creativecommons.org/ns#" xmlns:rdf="http://www.w3.org/1999/02/22-rdf-syntax-ns#">
   <cc:Work>
    <dc:type rdf:resource="http://purl.org/dc/dcmitype/StillImage"/>
    <dc:date>2026-06-21T13:10:30.734647</dc:date>
    <dc:format>image/svg+xml</dc:format>
    <dc:creator>
     <cc:Agent>
      <dc:title>Matplotlib v3.10.8, https://matplotlib.org/</dc:title>
     </cc:Agent>
    </dc:creator>
   </cc:Work>
  </rdf:RDF>
 </metadata>
 <defs>
  <style type="text/css">*{stroke-linejoin: round; stroke-linecap: butt}</style>
 </defs>
 <g id="figure_1">
  <g id="patch_1">
   <path d="M 0 345.6 
L 460.8 345.6 
L 460.8 0 
L 0 0 
z
" style="fill: #ffffff"/>
  </g>
  <g id="axes_1">
   <g id="patch_2">
    <path d="M 66.24 295.56 
L 447.84 295.56 
L 447.84 42.072 
L 66.24 42.072 
z
" style="fill: #eaeaf2"/>
   </g>
   <g id="matplotlib.axis_1">
    <g id="xtick_1">
     <g id="line2d_1">
      <path d="M 83.402272 295.56 
L 83.402272 42.072 
" clip-path="url(#p24f57d6c81)" style="fill: none; stroke: #ffffff; stroke-linecap: round"/>
     </g>
     <g id="text_1">
      <!-- $\mathdefault{10^{-1}}$ -->
      <g style="fill: #262626" transform="translate(70.477272 313.418281) scale(0.11 -0.11)">
       <defs>
        <path id="DejaVuSans-31" d="M 794 531 
L 1825 531 
L 1825 4091 
L 703 3866 
L 703 4441 
L 1819 4666 
L 2450 4666 
L 2450 531 
L 3481 531 
L 3481 0 
L 794 0 
L 794 531 
z
" transform="scale(0.015625)"/>
        <path id="DejaVuSans-30" d="M 2034 4250 
Q 1547 4250 1301 3770 
Q 1056 3291 1056 2328 
Q 1056 1369 1301 889 
Q 1547 409 2034 409 
Q 2525 409 2770 889 
Q 3016 1369 3016 2328 
Q 3016 3291 2770 3770 
Q 2525 4250 2034 4250 
z
M 2034 4750 
Q 2819 4750 3233 4129 
Q 3647 3509 3647 2328 
Q 3647 1150 3233 529 
Q 2819 -91 2034 -91 
Q 1250 -91 836 529 
Q 422 1150 422 2328 
Q 422 3509 836 4129 
Q 1250 4750 2034 4750 
z
" transform="scale(0.015625)"/>
        <path id="DejaVuSans-2212" d="M 678 2272 
L 4684 2272 
L 4684 1741 
L 678 1741 
L 678 2272 
z
" transform="scale(0.015625)"/>
       </defs>
       <use xlink:href="#DejaVuSans-31" transform="translate(0 0.684375)"/>
       <use xlink:href="#DejaVuSans-30" transform="translate(63.623047 0.684375)"/>
       <use xlink:href="#DejaVuSans-2212" transform="translate(128.203125 38.965625) scale(0.7)"/>
       <use xlink:href="#DejaVuSans-31" transform="translate(186.855469 38.965625) scale(0.7)"/>
      </g>
     </g>
    </g>
    <g id="xtick_2">
     <g id="line2d_2">
      <path d="M 159.834405 295.56 
L 159.834405 42.072 
" clip-path="url(#p24f57d6c81)" style="fill: none; stroke: #ffffff; stroke-linecap: round"/>
     </g>
     <g id="text_2">
      <!-- $\mathdefault{10^{0}}$ -->
      <g style="fill: #262626" transform="translate(150.154405 313.418281) scale(0.11 -0.11)">
       <use xlink:href="#DejaVuSans-31" transform="translate(0 0.765625)"/>
       <use xlink:href="#DejaVuSans-30" transform="translate(63.623047 0.765625)"/>
       <use xlink:href="#DejaVuSans-30" transform="translate(128.203125 39.046875) scale(0.7)"/>
      </g>
     </g>
    </g>
    <g id="xtick_3">
     <g id="line2d_3">
      <path d="M 236.266539 295.56 
L 236.266539 42.072 
" clip-path="url(#p24f57d6c81)" style="fill: none; stroke: #ffffff; stroke-linecap: round"/>
     </g>
     <g id="text_3">
      <!-- $\mathdefault{10^{1}}$ -->
      <g style="fill: #262626" transform="translate(226.586539 313.418281) scale(0.11 -0.11)">
       <use xlink:href="#DejaVuSans-31" transform="translate(0 0.684375)"/>
       <use xlink:href="#DejaVuSans-30" transform="translate(63.623047 0.684375)"/>
       <use xlink:href="#DejaVuSans-31" transform="translate(128.203125 38.965625) scale(0.7)"/>
      </g>
     </g>
    </g>
    <g id="xtick_4">
     <g id="line2d_4">
      <path d="M 312.698672 295.56 
L 312.698672 42.072 
" clip-path="url(#p24f57d6c81)" style="fill: none; stroke: #ffffff; stroke-linecap: round"/>
     </g>
     <g id="text_4">
      <!-- $\mathdefault{10^{2}}$ -->
      <g style="fill: #262626" transform="translate(303.018672 313.418281) scale(0.11 -0.11)">
       <defs>
        <path id="DejaVuSans-32" d="M 1228 531 
L 3431 531 
L 3431 0 
L 469 0 
L 469 531 
Q 828 903 1448 1529 
Q 2069 2156 2228 2338 
Q 2531 2678 2651 2914 
Q 2772 3150 2772 3378 
Q 2772 3750 2511 3984 
Q 2250 4219 1831 4219 
Q 1534 4219 1204 4116 
Q 875 4013 500 3803 
L 500 4441 
Q 881 4594 1212 4672 
Q 1544 4750 1819 4750 
Q 2544 4750 2975 4387 
Q 3406 4025 3406 3419 
Q 3406 3131 3298 2873 
Q 3191 2616 2906 2266 
Q 2828 2175 2409 1742 
Q 1991 1309 1228 531 
z
" transform="scale(0.015625)"/>
       </defs>
       <use xlink:href="#DejaVuSans-31" transform="translate(0 0.765625)"/>
       <use xlink:href="#DejaVuSans-30" transform="translate(63.623047 0.765625)"/>
       <use xlink:href="#DejaVuSans-32" transform="translate(128.203125 39.046875) scale(0.7)"/>
      </g>
     </g>
    </g>
    <g id="xtick_5">
     <g id="line2d_5">
      <path d="M 389.130805 295.56 
L 389.130805 42.072 
" clip-path="url(#p24f57d6c81)" style="fill: none; stroke: #ffffff; stroke-linecap: round"/>
     </g>
     <g id="text_5">
      <!-- $\mathdefault{10^{3}}$ -->
      <g style="fill: #262626" transform="translate(379.450805 313.418281) scale(0.11 -0.11)">
       <defs>
        <path id="DejaVuSans-33" d="M 2597 2516 
Q 3050 2419 3304 2112 
Q 3559 1806 3559 1356 
Q 3559 666 3084 287 
Q 2609 -91 1734 -91 
Q 1441 -91 1130 -33 
Q 819 25 488 141 
L 488 750 
Q 750 597 1062 519 
Q 1375 441 1716 441 
Q 2309 441 2620 675 
Q 2931 909 2931 1356 
Q 2931 1769 2642 2001 
Q 2353 2234 1838 2234 
L 1294 2234 
L 1294 2753 
L 1863 2753 
Q 2328 2753 2575 2939 
Q 2822 3125 2822 3475 
Q 2822 3834 2567 4026 
Q 2313 4219 1838 4219 
Q 1578 4219 1281 4162 
Q 984 4106 628 3988 
L 628 4550 
Q 988 4650 1302 4700 
Q 1616 4750 1894 4750 
Q 2613 4750 3031 4423 
Q 3450 4097 3450 3541 
Q 3450 3153 3228 2886 
Q 3006 2619 2597 2516 
z
" transform="scale(0.015625)"/>
       </defs>
       <use xlink:href="#DejaVuSans-31" transform="translate(0 0.765625)"/>
       <use xlink:href="#DejaVuSans-30" transform="translate(63.623047 0.765625)"/>
       <use xlink:href="#DejaVuSans-33" transform="translate(128.203125 39.046875) scale(0.7)"/>
      </g>
     </g>
    </g>
    <g id="xtick_6"/>
    <g id="xtick_7"/>
    <g id="xtick_8"/>
    <g id="xtick_9"/>
    <g id="xtick_10"/>
    <g id="xtick_11"/>
    <g id="xtick_12"/>
    <g id="xtick_13"/>
    <g id="xtick_14"/>
    <g id="xtick_15"/>
    <g id="xtick_16"/>
    <g id="xtick_17"/>
    <g id="xtick_18"/>
    <g id="xtick_19"/>
    <g id="xtick_20"/>
    <g id="xtick_21"/>
    <g id="xtick_22"/>
    <g id="xtick_23"/>
    <g id="xtick_24"/>
    <g id="xtick_25"/>
    <g id="xtick_26"/>
    <g id="xtick_27"/>
    <g id="xtick_28"/>
    <g id="xtick_29"/>
    <g id="xtick_30"/>
    <g id="xtick_31"/>
    <g id="xtick_32"/>
    <g id="xtick_33"/>
    <g id="xtick_34"/>
    <g id="xtick_35"/>
    <g id="xtick_36"/>
    <g id="xtick_37"/>
    <g id="xtick_38"/>
    <g id="xtick_39"/>
    <g id="xtick_40"/>
    <g id="xtick_41"/>
    <g id="xtick_42"/>
    <g id="xtick_43"/>
    <g id="xtick_44"/>
    <g id="xtick_45"/>
    <g id="text_6">
     <!-- Duration [mins] -->
     <g style="fill: #262626" transform="translate(209.953125 328.824062) scale(0.12 -0.12)">
      <defs>
       <path id="DejaVuSans-44" d="M 1259 4147 
L 1259 519 
L 2022 519 
Q 2988 519 3436 956 
Q 3884 1394 3884 2338 
Q 3884 3275 3436 3711 
Q 2988 4147 2022 4147 
L 1259 4147 
z
M 628 4666 
L 1925 4666 
Q 3281 4666 3915 4102 
Q 4550 3538 4550 2338 
Q 4550 1131 3912 565 
Q 3275 0 1925 0 
L 628 0 
L 628 4666 
z
" transform="scale(0.015625)"/>
       <path id="DejaVuSans-75" d="M 544 1381 
L 544 3500 
L 1119 3500 
L 1119 1403 
Q 1119 906 1312 657 
Q 1506 409 1894 409 
Q 2359 409 2629 706 
Q 2900 1003 2900 1516 
L 2900 3500 
L 3475 3500 
L 3475 0 
L 2900 0 
L 2900 538 
Q 2691 219 2414 64 
Q 2138 -91 1772 -91 
Q 1169 -91 856 284 
Q 544 659 544 1381 
z
M 1991 3584 
L 1991 3584 
z
" transform="scale(0.015625)"/>
       <path id="DejaVuSans-72" d="M 2631 2963 
Q 2534 3019 2420 3045 
Q 2306 3072 2169 3072 
Q 1681 3072 1420 2755 
Q 1159 2438 1159 1844 
L 1159 0 
L 581 0 
L 581 3500 
L 1159 3500 
L 1159 2956 
Q 1341 3275 1631 3429 
Q 1922 3584 2338 3584 
Q 2397 3584 2469 3576 
Q 2541 3569 2628 3553 
L 2631 2963 
z
" transform="scale(0.015625)"/>
       <path id="DejaVuSans-61" d="M 2194 1759 
Q 1497 1759 1228 1600 
Q 959 1441 959 1056 
Q 959 750 1161 570 
Q 1363 391 1709 391 
Q 2188 391 2477 730 
Q 2766 1069 2766 1631 
L 2766 1759 
L 2194 1759 
z
M 3341 1997 
L 3341 0 
L 2766 0 
L 2766 531 
Q 2569 213 2275 61 
Q 1981 -91 1556 -91 
Q 1019 -91 701 211 
Q 384 513 384 1019 
Q 384 1609 779 1909 
Q 1175 2209 1959 2209 
L 2766 2209 
L 2766 2266 
Q 2766 2663 2505 2880 
Q 2244 3097 1772 3097 
Q 1472 3097 1187 3025 
Q 903 2953 641 2809 
L 641 3341 
Q 956 3463 1253 3523 
Q 1550 3584 1831 3584 
Q 2591 3584 2966 3190 
Q 3341 2797 3341 1997 
z
" transform="scale(0.015625)"/>
       <path id="DejaVuSans-74" d="M 1172 4494 
L 1172 3500 
L 2356 3500 
L 2356 3053 
L 1172 3053 
L 1172 1153 
Q 1172 725 1289 603 
Q 1406 481 1766 481 
L 2356 481 
L 2356 0 
L 1766 0 
Q 1100 0 847 248 
Q 594 497 594 1153 
L 594 3053 
L 172 3053 
L 172 3500 
L 594 3500 
L 594 4494 
L 1172 4494 
z
" transform="scale(0.015625)"/>
       <path id="DejaVuSans-69" d="M 603 3500 
L 1178 3500 
L 1178 0 
L 603 0 
L 603 3500 
z
M 603 4863 
L 1178 4863 
L 1178 4134 
L 603 4134 
L 603 4863 
z
" transform="scale(0.015625)"/>
       <path id="DejaVuSans-6f" d="M 1959 3097 
Q 1497 3097 1228 2736 
Q 959 2375 959 1747 
Q 959 1119 1226 758 
Q 1494 397 1959 397 
Q 2419 397 2687 759 
Q 2956 1122 2956 1747 
Q 2956 2369 2687 2733 
Q 2419 3097 1959 3097 
z
M 1959 3584 
Q 2709 3584 3137 3096 
Q 3566 2609 3566 1747 
Q 3566 888 3137 398 
Q 2709 -91 1959 -91 
Q 1206 -91 779 398 
Q 353 888 353 1747 
Q 353 2609 779 3096 
Q 1206 3584 1959 3584 
z
" transform="scale(0.015625)"/>
       <path id="DejaVuSans-6e" d="M 3513 2113 
L 3513 0 
L 2938 0 
L 2938 2094 
Q 2938 2591 2744 2837 
Q 2550 3084 2163 3084 
Q 1697 3084 1428 2787 
Q 1159 2491 1159 1978 
L 1159 0 
L 581 0 
L 581 3500 
L 1159 3500 
L 1159 2956 
Q 1366 3272 1645 3428 
Q 1925 3584 2291 3584 
Q 2894 3584 3203 3211 
Q 3513 2838 3513 2113 
z
" transform="scale(0.015625)"/>
       <path id="DejaVuSans-20" transform="scale(0.015625)"/>
       <path id="DejaVuSans-5b" d="M 550 4863 
L 1875 4863 
L 1875 4416 
L 1125 4416 
L 1125 -397 
L 1875 -397 
L 1875 -844 
L 550 -844 
L 550 4863 
z
" transform="scale(0.015625)"/>
       <path id="DejaVuSans-6d" d="M 3328 2828 
Q 3544 3216 3844 3400 
Q 4144 3584 4550 3584 
Q 5097 3584 5394 3201 
Q 5691 2819 5691 2113 
L 5691 0 
L 5113 0 
L 5113 2094 
Q 5113 2597 4934 2840 
Q 4756 3084 4391 3084 
Q 3944 3084 3684 2787 
Q 3425 2491 3425 1978 
L 3425 0 
L 2847 0 
L 2847 2094 
Q 2847 2600 2669 2842 
Q 2491 3084 2119 3084 
Q 1678 3084 1418 2786 
Q 1159 2488 1159 1978 
L 1159 0 
L 581 0 
L 581 3500 
L 1159 3500 
L 1159 2956 
Q 1356 3278 1631 3431 
Q 1906 3584 2284 3584 
Q 2666 3584 2933 3390 
Q 3200 3197 3328 2828 
z
" transform="scale(0.015625)"/>
       <path id="DejaVuSans-73" d="M 2834 3397 
L 2834 2853 
Q 2591 2978 2328 3040 
Q 2066 3103 1784 3103 
Q 1356 3103 1142 2972 
Q 928 2841 928 2578 
Q 928 2378 1081 2264 
Q 1234 2150 1697 2047 
L 1894 2003 
Q 2506 1872 2764 1633 
Q 3022 1394 3022 966 
Q 3022 478 2636 193 
Q 2250 -91 1575 -91 
Q 1294 -91 989 -36 
Q 684 19 347 128 
L 347 722 
Q 666 556 975 473 
Q 1284 391 1588 391 
Q 1994 391 2212 530 
Q 2431 669 2431 922 
Q 2431 1156 2273 1281 
Q 2116 1406 1581 1522 
L 1381 1569 
Q 847 1681 609 1914 
Q 372 2147 372 2553 
Q 372 3047 722 3315 
Q 1072 3584 1716 3584 
Q 2034 3584 2315 3537 
Q 2597 3491 2834 3397 
z
" transform="scale(0.015625)"/>
       <path id="DejaVuSans-5d" d="M 1947 4863 
L 1947 -844 
L 622 -844 
L 622 -397 
L 1369 -397 
L 1369 4416 
L 622 4416 
L 622 4863 
L 1947 4863 
z
" transform="scale(0.015625)"/>
      </defs>
      <use xlink:href="#DejaVuSans-44"/>
      <use xlink:href="#DejaVuSans-75" transform="translate(77.001953 0)"/>
      <use xlink:href="#DejaVuSans-72" transform="translate(140.380859 0)"/>
      <use xlink:href="#DejaVuSans-61" transform="translate(181.494141 0)"/>
      <use xlink:href="#DejaVuSans-74" transform="translate(242.773438 0)"/>
      <use xlink:href="#DejaVuSans-69" transform="translate(281.982422 0)"/>
      <use xlink:href="#DejaVuSans-6f" transform="translate(309.765625 0)"/>
      <use xlink:href="#DejaVuSans-6e" transform="translate(370.947266 0)"/>
      <use xlink:href="#DejaVuSans-20" transform="translate(434.326172 0)"/>
      <use xlink:href="#DejaVuSans-5b" transform="translate(466.113281 0)"/>
      <use xlink:href="#DejaVuSans-6d" transform="translate(505.126953 0)"/>
      <use xlink:href="#DejaVuSans-69" transform="translate(602.539062 0)"/>
      <use xlink:href="#DejaVuSans-6e" transform="translate(630.322266 0)"/>
      <use xlink:href="#DejaVuSans-73" transform="translate(693.701172 0)"/>
      <use xlink:href="#DejaVuSans-5d" transform="translate(745.800781 0)"/>
     </g>
    </g>
   </g>
   <g id="matplotlib.axis_2">
    <g id="ytick_1">
     <g id="line2d_6">
      <path d="M 66.24 294.374933 
L 447.84 294.374933 
" clip-path="url(#p24f57d6c81)" style="fill: none; stroke: #ffffff; stroke-linecap: round"/>
     </g>
     <g id="text_7">
      <!-- 0 -->
      <g style="fill: #262626" transform="translate(49.74125 298.554073) scale(0.11 -0.11)">
       <use xlink:href="#DejaVuSans-30"/>
      </g>
     </g>
    </g>
    <g id="ytick_2">
     <g id="line2d_7">
      <path d="M 66.24 265.233918 
L 447.84 265.233918 
" clip-path="url(#p24f57d6c81)" style="fill: none; stroke: #ffffff; stroke-linecap: round"/>
     </g>
     <g id="text_8">
      <!-- 200 -->
      <g style="fill: #262626" transform="translate(35.74375 269.413059) scale(0.11 -0.11)">
       <use xlink:href="#DejaVuSans-32"/>
       <use xlink:href="#DejaVuSans-30" transform="translate(63.623047 0)"/>
       <use xlink:href="#DejaVuSans-30" transform="translate(127.246094 0)"/>
      </g>
     </g>
    </g>
    <g id="ytick_3">
     <g id="line2d_8">
      <path d="M 66.24 236.092904 
L 447.84 236.092904 
" clip-path="url(#p24f57d6c81)" style="fill: none; stroke: #ffffff; stroke-linecap: round"/>
     </g>
     <g id="text_9">
      <!-- 400 -->
      <g style="fill: #262626" transform="translate(35.74375 240.272045) scale(0.11 -0.11)">
       <defs>
        <path id="DejaVuSans-34" d="M 2419 4116 
L 825 1625 
L 2419 1625 
L 2419 4116 
z
M 2253 4666 
L 3047 4666 
L 3047 1625 
L 3713 1625 
L 3713 1100 
L 3047 1100 
L 3047 0 
L 2419 0 
L 2419 1100 
L 313 1100 
L 313 1709 
L 2253 4666 
z
" transform="scale(0.015625)"/>
       </defs>
       <use xlink:href="#DejaVuSans-34"/>
       <use xlink:href="#DejaVuSans-30" transform="translate(63.623047 0)"/>
       <use xlink:href="#DejaVuSans-30" transform="translate(127.246094 0)"/>
      </g>
     </g>
    </g>
    <g id="ytick_4">
     <g id="line2d_9">
      <path d="M 66.24 206.95189 
L 447.84 206.95189 
" clip-path="url(#p24f57d6c81)" style="fill: none; stroke: #ffffff; stroke-linecap: round"/>
     </g>
     <g id="text_10">
      <!-- 600 -->
      <g style="fill: #262626" transform="translate(35.74375 211.131031) scale(0.11 -0.11)">
       <defs>
        <path id="DejaVuSans-36" d="M 2113 2584 
Q 1688 2584 1439 2293 
Q 1191 2003 1191 1497 
Q 1191 994 1439 701 
Q 1688 409 2113 409 
Q 2538 409 2786 701 
Q 3034 994 3034 1497 
Q 3034 2003 2786 2293 
Q 2538 2584 2113 2584 
z
M 3366 4563 
L 3366 3988 
Q 3128 4100 2886 4159 
Q 2644 4219 2406 4219 
Q 1781 4219 1451 3797 
Q 1122 3375 1075 2522 
Q 1259 2794 1537 2939 
Q 1816 3084 2150 3084 
Q 2853 3084 3261 2657 
Q 3669 2231 3669 1497 
Q 3669 778 3244 343 
Q 2819 -91 2113 -91 
Q 1303 -91 875 529 
Q 447 1150 447 2328 
Q 447 3434 972 4092 
Q 1497 4750 2381 4750 
Q 2619 4750 2861 4703 
Q 3103 4656 3366 4563 
z
" transform="scale(0.015625)"/>
       </defs>
       <use xlink:href="#DejaVuSans-36"/>
       <use xlink:href="#DejaVuSans-30" transform="translate(63.623047 0)"/>
       <use xlink:href="#DejaVuSans-30" transform="translate(127.246094 0)"/>
      </g>
     </g>
    </g>
    <g id="ytick_5">
     <g id="line2d_10">
      <path d="M 66.24 177.810876 
L 447.84 177.810876 
" clip-path="url(#p24f57d6c81)" style="fill: none; stroke: #ffffff; stroke-linecap: round"/>
     </g>
     <g id="text_11">
      <!-- 800 -->
      <g style="fill: #262626" transform="translate(35.74375 181.990016) scale(0.11 -0.11)">
       <defs>
        <path id="DejaVuSans-38" d="M 2034 2216 
Q 1584 2216 1326 1975 
Q 1069 1734 1069 1313 
Q 1069 891 1326 650 
Q 1584 409 2034 409 
Q 2484 409 2743 651 
Q 3003 894 3003 1313 
Q 3003 1734 2745 1975 
Q 2488 2216 2034 2216 
z
M 1403 2484 
Q 997 2584 770 2862 
Q 544 3141 544 3541 
Q 544 4100 942 4425 
Q 1341 4750 2034 4750 
Q 2731 4750 3128 4425 
Q 3525 4100 3525 3541 
Q 3525 3141 3298 2862 
Q 3072 2584 2669 2484 
Q 3125 2378 3379 2068 
Q 3634 1759 3634 1313 
Q 3634 634 3220 271 
Q 2806 -91 2034 -91 
Q 1263 -91 848 271 
Q 434 634 434 1313 
Q 434 1759 690 2068 
Q 947 2378 1403 2484 
z
M 1172 3481 
Q 1172 3119 1398 2916 
Q 1625 2713 2034 2713 
Q 2441 2713 2670 2916 
Q 2900 3119 2900 3481 
Q 2900 3844 2670 4047 
Q 2441 4250 2034 4250 
Q 1625 4250 1398 4047 
Q 1172 3844 1172 3481 
z
" transform="scale(0.015625)"/>
       </defs>
       <use xlink:href="#DejaVuSans-38"/>
       <use xlink:href="#DejaVuSans-30" transform="translate(63.623047 0)"/>
       <use xlink:href="#DejaVuSans-30" transform="translate(127.246094 0)"/>
      </g>
     </g>
    </g>
    <g id="ytick_6">
     <g id="line2d_11">
      <path d="M 66.24 148.669861 
L 447.84 148.669861 
" clip-path="url(#p24f57d6c81)" style="fill: none; stroke: #ffffff; stroke-linecap: round"/>
     </g>
     <g id="text_12">
      <!-- 1000 -->
      <g style="fill: #262626" transform="translate(28.745 152.849002) scale(0.11 -0.11)">
       <use xlink:href="#DejaVuSans-31"/>
       <use xlink:href="#DejaVuSans-30" transform="translate(63.623047 0)"/>
       <use xlink:href="#DejaVuSans-30" transform="translate(127.246094 0)"/>
       <use xlink:href="#DejaVuSans-30" transform="translate(190.869141 0)"/>
      </g>
     </g>
    </g>
    <g id="ytick_7">
     <g id="line2d_12">
      <path d="M 66.24 119.528847 
L 447.84 119.528847 
" clip-path="url(#p24f57d6c81)" style="fill: none; stroke: #ffffff; stroke-linecap: round"/>
     </g>
     <g id="text_13">
      <!-- 1200 -->
      <g style="fill: #262626" transform="translate(28.745 123.707988) scale(0.11 -0.11)">
       <use xlink:href="#DejaVuSans-31"/>
       <use xlink:href="#DejaVuSans-32" transform="translate(63.623047 0)"/>
       <use xlink:href="#DejaVuSans-30" transform="translate(127.246094 0)"/>
       <use xlink:href="#DejaVuSans-30" transform="translate(190.869141 0)"/>
      </g>
     </g>
    </g>
    <g id="ytick_8">
     <g id="line2d_13">
      <path d="M 66.24 90.387833 
L 447.84 90.387833 
" clip-path="url(#p24f57d6c81)" style="fill: none; stroke: #ffffff; stroke-linecap: round"/>
     </g>
     <g id="text_14">
      <!-- 1400 -->
      <g style="fill: #262626" transform="translate(28.745 94.566973) scale(0.11 -0.11)">
       <use xlink:href="#DejaVuSans-31"/>
       <use xlink:href="#DejaVuSans-34" transform="translate(63.623047 0)"/>
       <use xlink:href="#DejaVuSans-30" transform="translate(127.246094 0)"/>
       <use xlink:href="#DejaVuSans-30" transform="translate(190.869141 0)"/>
      </g>
     </g>
    </g>
    <g id="ytick_9">
     <g id="line2d_14">
      <path d="M 66.24 61.246818 
L 447.84 61.246818 
" clip-path="url(#p24f57d6c81)" style="fill: none; stroke: #ffffff; stroke-linecap: round"/>
     </g>
     <g id="text_15">
      <!-- 1600 -->
      <g style="fill: #262626" transform="translate(28.745 65.425959) scale(0.11 -0.11)">
       <use xlink:href="#DejaVuSans-31"/>
       <use xlink:href="#DejaVuSans-36" transform="translate(63.623047 0)"/>
       <use xlink:href="#DejaVuSans-30" transform="translate(127.246094 0)"/>
       <use xlink:href="#DejaVuSans-30" transform="translate(190.869141 0)"/>
      </g>
     </g>
    </g>
    <g id="text_16">
     <!-- Maximum Sustainable Power [W] -->
     <g style="fill: #262626" transform="translate(22.249375 267.931312) rotate(-90) scale(0.12 -0.12)">
      <defs>
       <path id="DejaVuSans-4d" d="M 628 4666 
L 1569 4666 
L 2759 1491 
L 3956 4666 
L 4897 4666 
L 4897 0 
L 4281 0 
L 4281 4097 
L 3078 897 
L 2444 897 
L 1241 4097 
L 1241 0 
L 628 0 
L 628 4666 
z
" transform="scale(0.015625)"/>
       <path id="DejaVuSans-78" d="M 3513 3500 
L 2247 1797 
L 3578 0 
L 2900 0 
L 1881 1375 
L 863 0 
L 184 0 
L 1544 1831 
L 300 3500 
L 978 3500 
L 1906 2253 
L 2834 3500 
L 3513 3500 
z
" transform="scale(0.015625)"/>
       <path id="DejaVuSans-53" d="M 3425 4513 
L 3425 3897 
Q 3066 4069 2747 4153 
Q 2428 4238 2131 4238 
Q 1616 4238 1336 4038 
Q 1056 3838 1056 3469 
Q 1056 3159 1242 3001 
Q 1428 2844 1947 2747 
L 2328 2669 
Q 3034 2534 3370 2195 
Q 3706 1856 3706 1288 
Q 3706 609 3251 259 
Q 2797 -91 1919 -91 
Q 1588 -91 1214 -16 
Q 841 59 441 206 
L 441 856 
Q 825 641 1194 531 
Q 1563 422 1919 422 
Q 2459 422 2753 634 
Q 3047 847 3047 1241 
Q 3047 1584 2836 1778 
Q 2625 1972 2144 2069 
L 1759 2144 
Q 1053 2284 737 2584 
Q 422 2884 422 3419 
Q 422 4038 858 4394 
Q 1294 4750 2059 4750 
Q 2388 4750 2728 4690 
Q 3069 4631 3425 4513 
z
" transform="scale(0.015625)"/>
       <path id="DejaVuSans-62" d="M 3116 1747 
Q 3116 2381 2855 2742 
Q 2594 3103 2138 3103 
Q 1681 3103 1420 2742 
Q 1159 2381 1159 1747 
Q 1159 1113 1420 752 
Q 1681 391 2138 391 
Q 2594 391 2855 752 
Q 3116 1113 3116 1747 
z
M 1159 2969 
Q 1341 3281 1617 3432 
Q 1894 3584 2278 3584 
Q 2916 3584 3314 3078 
Q 3713 2572 3713 1747 
Q 3713 922 3314 415 
Q 2916 -91 2278 -91 
Q 1894 -91 1617 61 
Q 1341 213 1159 525 
L 1159 0 
L 581 0 
L 581 4863 
L 1159 4863 
L 1159 2969 
z
" transform="scale(0.015625)"/>
       <path id="DejaVuSans-6c" d="M 603 4863 
L 1178 4863 
L 1178 0 
L 603 0 
L 603 4863 
z
" transform="scale(0.015625)"/>
       <path id="DejaVuSans-65" d="M 3597 1894 
L 3597 1613 
L 953 1613 
Q 991 1019 1311 708 
Q 1631 397 2203 397 
Q 2534 397 2845 478 
Q 3156 559 3463 722 
L 3463 178 
Q 3153 47 2828 -22 
Q 2503 -91 2169 -91 
Q 1331 -91 842 396 
Q 353 884 353 1716 
Q 353 2575 817 3079 
Q 1281 3584 2069 3584 
Q 2775 3584 3186 3129 
Q 3597 2675 3597 1894 
z
M 3022 2063 
Q 3016 2534 2758 2815 
Q 2500 3097 2075 3097 
Q 1594 3097 1305 2825 
Q 1016 2553 972 2059 
L 3022 2063 
z
" transform="scale(0.015625)"/>
       <path id="DejaVuSans-50" d="M 1259 4147 
L 1259 2394 
L 2053 2394 
Q 2494 2394 2734 2622 
Q 2975 2850 2975 3272 
Q 2975 3691 2734 3919 
Q 2494 4147 2053 4147 
L 1259 4147 
z
M 628 4666 
L 2053 4666 
Q 2838 4666 3239 4311 
Q 3641 3956 3641 3272 
Q 3641 2581 3239 2228 
Q 2838 1875 2053 1875 
L 1259 1875 
L 1259 0 
L 628 0 
L 628 4666 
z
" transform="scale(0.015625)"/>
       <path id="DejaVuSans-77" d="M 269 3500 
L 844 3500 
L 1563 769 
L 2278 3500 
L 2956 3500 
L 3675 769 
L 4391 3500 
L 4966 3500 
L 4050 0 
L 3372 0 
L 2619 2869 
L 1863 0 
L 1184 0 
L 269 3500 
z
" transform="scale(0.015625)"/>
       <path id="DejaVuSans-57" d="M 213 4666 
L 850 4666 
L 1831 722 
L 2809 4666 
L 3519 4666 
L 4500 722 
L 5478 4666 
L 6119 4666 
L 4947 0 
L 4153 0 
L 3169 4050 
L 2175 0 
L 1381 0 
L 213 4666 
z
" transform="scale(0.015625)"/>
      </defs>
      <use xlink:href="#DejaVuSans-4d"/>
      <use xlink:href="#DejaVuSans-61" transform="translate(86.279297 0)"/>
      <use xlink:href="#DejaVuSans-78" transform="translate(147.558594 0)"/>
      <use xlink:href="#DejaVuSans-69" transform="translate(206.738281 0)"/>
      <use xlink:href="#DejaVuSans-6d" transform="translate(234.521484 0)"/>
      <use xlink:href="#DejaVuSans-75" transform="translate(331.933594 0)"/>
      <use xlink:href="#DejaVuSans-6d" transform="translate(395.3125 0)"/>
      <use xlink:href="#DejaVuSans-20" transform="translate(492.724609 0)"/>
      <use xlink:href="#DejaVuSans-53" transform="translate(524.511719 0)"/>
      <use xlink:href="#DejaVuSans-75" transform="translate(587.988281 0)"/>
      <use xlink:href="#DejaVuSans-73" transform="translate(651.367188 0)"/>
      <use xlink:href="#DejaVuSans-74" transform="translate(703.466797 0)"/>
      <use xlink:href="#DejaVuSans-61" transform="translate(742.675781 0)"/>
      <use xlink:href="#DejaVuSans-69" transform="translate(803.955078 0)"/>
      <use xlink:href="#DejaVuSans-6e" transform="translate(831.738281 0)"/>
      <use xlink:href="#DejaVuSans-61" transform="translate(895.117188 0)"/>
      <use xlink:href="#DejaVuSans-62" transform="translate(956.396484 0)"/>
      <use xlink:href="#DejaVuSans-6c" transform="translate(1019.873047 0)"/>
      <use xlink:href="#DejaVuSans-65" transform="translate(1047.65625 0)"/>
      <use xlink:href="#DejaVuSans-20" transform="translate(1109.179688 0)"/>
      <use xlink:href="#DejaVuSans-50" transform="translate(1140.966797 0)"/>
      <use xlink:href="#DejaVuSans-6f" transform="translate(1197.644531 0)"/>
      <use xlink:href="#DejaVuSans-77" transform="translate(1258.826172 0)"/>
      <use xlink:href="#DejaVuSans-65" transform="translate(1340.613281 0)"/>
      <use xlink:href="#DejaVuSans-72" transform="translate(1402.136719 0)"/>
      <use xlink:href="#DejaVuSans-20" transform="translate(1443.25 0)"/>
      <use xlink:href="#DejaVuSans-5b" transform="translate(1475.037109 0)"/>
      <use xlink:href="#DejaVuSans-57" transform="translate(1514.050781 0)"/>
      <use xlink:href="#DejaVuSans-5d" transform="translate(1612.927734 0)"/>
     </g>
    </g>
   </g>
   <g id="line2d_15">
    <defs>
     <path id="m5ba375358f" d="M 0 1.5 
C 0.397805 1.5 0.77937 1.341951 1.06066 1.06066 
C 1.341951 0.77937 1.5 0.397805 1.5 0 
C 1.5 -0.397805 1.341951 -0.77937 1.06066 -1.06066 
C 0.77937 -1.341951 0.397805 -1.5 0 -1.5 
C -0.397805 -1.5 -0.77937 -1.341951 -1.06066 -1.06066 
C -1.341951 -0.77937 -1.5 -0.397805 -1.5 0 
C -1.5 0.397805 -1.341951 0.77937 -1.06066 1.06066 
C -0.77937 1.341951 -0.397805 1.5 0 1.5 
z
" style="stroke: #4c72b0"/>
    </defs>
    <g clip-path="url(#p24f57d6c81)">
     <use xlink:href="#m5ba375358f" x="84.20441" y="187.659251" style="fill: #4c72b0; stroke: #4c72b0"/>
     <use xlink:href="#m5ba375358f" x="87.094629" y="190.825879" style="fill: #4c72b0; stroke: #4c72b0"/>
     <use xlink:href="#m5ba375358f" x="89.57171" y="193.813045" style="fill: #4c72b0; stroke: #4c72b0"/>
     <use xlink:href="#m5ba375358f" x="92.255291" y="196.965614" style="fill: #4c72b0; stroke: #4c72b0"/>
     <use xlink:href="#m5ba375358f" x="95.145375" y="200.280277" style="fill: #4c72b0; stroke: #4c72b0"/>
     <use xlink:href="#m5ba375358f" x="98.035621" y="203.416305" style="fill: #4c72b0; stroke: #4c72b0"/>
     <use xlink:href="#m5ba375358f" x="100.925975" y="206.433244" style="fill: #4c72b0; stroke: #4c72b0"/>
     <use xlink:href="#m5ba375358f" x="104.02296" y="209.472512" style="fill: #4c72b0; stroke: #4c72b0"/>
     <use xlink:href="#m5ba375358f" x="107.533043" y="212.731765" style="fill: #4c72b0; stroke: #4c72b0"/>
     <use xlink:href="#m5ba375358f" x="111.249793" y="215.973651" style="fill: #4c72b0; stroke: #4c72b0"/>
     <use xlink:href="#m5ba375358f" x="114.966781" y="218.953099" style="fill: #4c72b0; stroke: #4c72b0"/>
     <use xlink:href="#m5ba375358f" x="118.890426" y="221.924827" style="fill: #4c72b0; stroke: #4c72b0"/>
     <use xlink:href="#m5ba375358f" x="123.227265" y="225.013039" style="fill: #4c72b0; stroke: #4c72b0"/>
     <use xlink:href="#m5ba375358f" x="127.77099" y="227.842322" style="fill: #4c72b0; stroke: #4c72b0"/>
     <use xlink:href="#m5ba375358f" x="132.314887" y="230.482143" style="fill: #4c72b0; stroke: #4c72b0"/>
     <use xlink:href="#m5ba375358f" x="136.858991" y="232.894611" style="fill: #4c72b0; stroke: #4c72b0"/>
     <use xlink:href="#m5ba375358f" x="141.403313" y="235.067096" style="fill: #4c72b0; stroke: #4c72b0"/>
     <use xlink:href="#m5ba375358f" x="145.947818" y="237.037489" style="fill: #4c72b0; stroke: #4c72b0"/>
     <use xlink:href="#m5ba375358f" x="150.492497" y="238.818421" style="fill: #4c72b0; stroke: #4c72b0"/>
     <use xlink:href="#m5ba375358f" x="155.037359" y="240.397262" style="fill: #4c72b0; stroke: #4c72b0"/>
     <use xlink:href="#m5ba375358f" x="159.582405" y="241.774011" style="fill: #4c72b0; stroke: #4c72b0"/>
     <use xlink:href="#m5ba375358f" x="164.127565" y="243.024452" style="fill: #4c72b0; stroke: #4c72b0"/>
     <use xlink:href="#m5ba375358f" x="168.67291" y="244.072803" style="fill: #4c72b0; stroke: #4c72b0"/>
     <use xlink:href="#m5ba375358f" x="173.080623" y="244.973249" style="fill: #4c72b0; stroke: #4c72b0"/>
     <use xlink:href="#m5ba375358f" x="177.76399" y="245.740058" style="fill: #4c72b0; stroke: #4c72b0"/>
     <use xlink:href="#m5ba375358f" x="182.309714" y="246.371594" style="fill: #4c72b0; stroke: #4c72b0"/>
     <use xlink:href="#m5ba375358f" x="186.855541" y="246.889454" style="fill: #4c72b0; stroke: #4c72b0"/>
     <use xlink:href="#m5ba375358f" x="191.401426" y="247.34416" style="fill: #4c72b0; stroke: #4c72b0"/>
     <use xlink:href="#m5ba375358f" x="195.947253" y="247.86202" style="fill: #4c72b0; stroke: #4c72b0"/>
     <use xlink:href="#m5ba375358f" x="200.493092" y="248.367249" style="fill: #4c72b0; stroke: #4c72b0"/>
     <use xlink:href="#m5ba375358f" x="205.038919" y="248.885109" style="fill: #4c72b0; stroke: #4c72b0"/>
     <use xlink:href="#m5ba375358f" x="209.584758" y="249.390338" style="fill: #4c72b0; stroke: #4c72b0"/>
     <use xlink:href="#m5ba375358f" x="214.130597" y="249.895567" style="fill: #4c72b0; stroke: #4c72b0"/>
     <use xlink:href="#m5ba375358f" x="218.676378" y="250.463949" style="fill: #4c72b0; stroke: #4c72b0"/>
     <use xlink:href="#m5ba375358f" x="223.222171" y="251.019701" style="fill: #4c72b0; stroke: #4c72b0"/>
     <use xlink:href="#m5ba375358f" x="227.767963" y="251.575453" style="fill: #4c72b0; stroke: #4c72b0"/>
     <use xlink:href="#m5ba375358f" x="232.31371" y="252.181728" style="fill: #4c72b0; stroke: #4c72b0"/>
     <use xlink:href="#m5ba375358f" x="236.8594" y="252.851156" style="fill: #4c72b0; stroke: #4c72b0"/>
     <use xlink:href="#m5ba375358f" x="241.405077" y="253.533215" style="fill: #4c72b0; stroke: #4c72b0"/>
     <use xlink:href="#m5ba375358f" x="245.950675" y="254.303689" style="fill: #4c72b0; stroke: #4c72b0"/>
     <use xlink:href="#m5ba375358f" x="250.496261" y="255.086794" style="fill: #4c72b0; stroke: #4c72b0"/>
     <use xlink:href="#m5ba375358f" x="255.04172" y="256.008837" style="fill: #4c72b0; stroke: #4c72b0"/>
     <use xlink:href="#m5ba375358f" x="259.587088" y="257.031926" style="fill: #4c72b0; stroke: #4c72b0"/>
     <use xlink:href="#m5ba375358f" x="264.132398" y="258.118168" style="fill: #4c72b0; stroke: #4c72b0"/>
     <use xlink:href="#m5ba375358f" x="268.677605" y="259.318087" style="fill: #4c72b0; stroke: #4c72b0"/>
     <use xlink:href="#m5ba375358f" x="273.2228" y="260.530637" style="fill: #4c72b0; stroke: #4c72b0"/>
     <use xlink:href="#m5ba375358f" x="276.115271" y="261.221116" style="fill: #4c72b0; stroke: #4c72b0"/>
     <use xlink:href="#m5ba375358f" x="291.816525" y="265.772387" style="fill: #4c72b0; stroke: #4c72b0"/>
     <use xlink:href="#m5ba375358f" x="295.741937" y="266.801791" style="fill: #4c72b0; stroke: #4c72b0"/>
     <use xlink:href="#m5ba375358f" x="302.559587" y="268.7785" style="fill: #4c72b0; stroke: #4c72b0"/>
     <use xlink:href="#m5ba375358f" x="306.484984" y="269.823692" style="fill: #4c72b0; stroke: #4c72b0"/>
     <use xlink:href="#m5ba375358f" x="313.302751" y="271.670936" style="fill: #4c72b0; stroke: #4c72b0"/>
     <use xlink:href="#m5ba375358f" x="317.228205" y="272.654553" style="fill: #4c72b0; stroke: #4c72b0"/>
     <use xlink:href="#m5ba375358f" x="324.046054" y="274.411803" style="fill: #4c72b0; stroke: #4c72b0"/>
     <use xlink:href="#m5ba375358f" x="328.178285" y="275.255909" style="fill: #4c72b0; stroke: #4c72b0"/>
     <use xlink:href="#m5ba375358f" x="335.202818" y="276.97584" style="fill: #4c72b0; stroke: #4c72b0"/>
     <use xlink:href="#m5ba375358f" x="339.128342" y="277.882094" style="fill: #4c72b0; stroke: #4c72b0"/>
     <use xlink:href="#m5ba375358f" x="345.946465" y="279.337785" style="fill: #4c72b0; stroke: #4c72b0"/>
     <use xlink:href="#m5ba375358f" x="350.078755" y="280.11668" style="fill: #4c72b0; stroke: #4c72b0"/>
     <use xlink:href="#m5ba375358f" x="357.256234" y="281.456976" style="fill: #4c72b0; stroke: #4c72b0"/>
     <use xlink:href="#m5ba375358f" x="362.296142" y="282.412382" style="fill: #4c72b0; stroke: #4c72b0"/>
     <use xlink:href="#m5ba375358f" x="368.260922" y="283.442771" style="fill: #4c72b0; stroke: #4c72b0"/>
     <use xlink:href="#m5ba375358f" x="372.39338" y="284.037818" style="fill: #4c72b0; stroke: #4c72b0"/>
    </g>
   </g>
   <g id="line2d_16">
    <defs>
     <path id="mc8a9b245c2" d="M 0 1.5 
C 0.397805 1.5 0.77937 1.341951 1.06066 1.06066 
C 1.341951 0.77937 1.5 0.397805 1.5 0 
C 1.5 -0.397805 1.341951 -0.77937 1.06066 -1.06066 
C 0.77937 -1.341951 0.397805 -1.5 0 -1.5 
C -0.397805 -1.5 -0.77937 -1.341951 -1.06066 -1.06066 
C -1.341951 -0.77937 -1.5 -0.397805 -1.5 0 
C -1.5 0.397805 -1.341951 0.77937 -1.06066 1.06066 
C -0.77937 1.341951 -0.397805 1.5 0 1.5 
z
" style="stroke: #dd8452"/>
    </defs>
    <g clip-path="url(#p24f57d6c81)">
     <use xlink:href="#mc8a9b245c2" x="83.585455" y="147.098323" style="fill: #dd8452; stroke: #dd8452"/>
     <use xlink:href="#mc8a9b245c2" x="84.805994" y="150.077898" style="fill: #dd8452; stroke: #dd8452"/>
     <use xlink:href="#mc8a9b245c2" x="85.888986" y="153.1679" style="fill: #dd8452; stroke: #dd8452"/>
     <use xlink:href="#mc8a9b245c2" x="87.5389" y="156.780287" style="fill: #dd8452; stroke: #dd8452"/>
     <use xlink:href="#mc8a9b245c2" x="89.602413" y="160.062697" style="fill: #dd8452; stroke: #dd8452"/>
     <use xlink:href="#mc8a9b245c2" x="91.459235" y="163.390261" style="fill: #dd8452; stroke: #dd8452"/>
     <use xlink:href="#mc8a9b245c2" x="93.522625" y="166.808135" style="fill: #dd8452; stroke: #dd8452"/>
     <use xlink:href="#mc8a9b245c2" x="95.586243" y="169.975921" style="fill: #dd8452; stroke: #dd8452"/>
     <use xlink:href="#mc8a9b245c2" x="97.650062" y="172.921406" style="fill: #dd8452; stroke: #dd8452"/>
     <use xlink:href="#mc8a9b245c2" x="99.920427" y="175.982672" style="fill: #dd8452; stroke: #dd8452"/>
     <use xlink:href="#mc8a9b245c2" x="102.397466" y="179.016151" style="fill: #dd8452; stroke: #dd8452"/>
     <use xlink:href="#mc8a9b245c2" x="104.874611" y="181.933849" style="fill: #dd8452; stroke: #dd8452"/>
     <use xlink:href="#mc8a9b245c2" x="107.5584" y="184.858162" style="fill: #dd8452; stroke: #dd8452"/>
     <use xlink:href="#mc8a9b245c2" x="110.655237" y="188.058697" style="fill: #dd8452; stroke: #dd8452"/>
     <use xlink:href="#mc8a9b245c2" x="113.958776" y="191.202169" style="fill: #dd8452; stroke: #dd8452"/>
     <use xlink:href="#mc8a9b245c2" x="117.46898" y="194.330203" style="fill: #dd8452; stroke: #dd8452"/>
     <use xlink:href="#mc8a9b245c2" x="121.185869" y="197.417713" style="fill: #dd8452; stroke: #dd8452"/>
     <use xlink:href="#mc8a9b245c2" x="125.109477" y="200.431123" style="fill: #dd8452; stroke: #dd8452"/>
     <use xlink:href="#mc8a9b245c2" x="129.239733" y="203.446077" style="fill: #dd8452; stroke: #dd8452"/>
     <use xlink:href="#mc8a9b245c2" x="133.57679" y="206.294306" style="fill: #dd8452; stroke: #dd8452"/>
     <use xlink:href="#mc8a9b245c2" x="138.120537" y="209.098327" style="fill: #dd8452; stroke: #dd8452"/>
     <use xlink:href="#mc8a9b245c2" x="142.664434" y="211.738148" style="fill: #dd8452; stroke: #dd8452"/>
     <use xlink:href="#mc8a9b245c2" x="147.208527" y="214.163247" style="fill: #dd8452; stroke: #dd8452"/>
     <use xlink:href="#mc8a9b245c2" x="151.752768" y="216.424147" style="fill: #dd8452; stroke: #dd8452"/>
     <use xlink:href="#mc8a9b245c2" x="156.297148" y="218.533478" style="fill: #dd8452; stroke: #dd8452"/>
     <use xlink:href="#mc8a9b245c2" x="160.841688" y="220.465979" style="fill: #dd8452; stroke: #dd8452"/>
     <use xlink:href="#mc8a9b245c2" x="165.386286" y="222.335326" style="fill: #dd8452; stroke: #dd8452"/>
     <use xlink:href="#mc8a9b245c2" x="169.931056" y="224.015212" style="fill: #dd8452; stroke: #dd8452"/>
     <use xlink:href="#mc8a9b245c2" x="174.475872" y="225.644576" style="fill: #dd8452; stroke: #dd8452"/>
     <use xlink:href="#mc8a9b245c2" x="179.020872" y="227.071847" style="fill: #dd8452; stroke: #dd8452"/>
     <use xlink:href="#mc8a9b245c2" x="183.565872" y="228.499119" style="fill: #dd8452; stroke: #dd8452"/>
     <use xlink:href="#mc8a9b245c2" x="188.111044" y="229.73693" style="fill: #dd8452; stroke: #dd8452"/>
     <use xlink:href="#mc8a9b245c2" x="192.656217" y="230.974741" style="fill: #dd8452; stroke: #dd8452"/>
     <use xlink:href="#mc8a9b245c2" x="197.201515" y="232.073614" style="fill: #dd8452; stroke: #dd8452"/>
     <use xlink:href="#mc8a9b245c2" x="201.746872" y="233.109334" style="fill: #dd8452; stroke: #dd8452"/>
     <use xlink:href="#mc8a9b245c2" x="206.292331" y="234.031377" style="fill: #dd8452; stroke: #dd8452"/>
     <use xlink:href="#mc8a9b245c2" x="210.837825" y="234.915527" style="fill: #dd8452; stroke: #dd8452"/>
     <use xlink:href="#mc8a9b245c2" x="215.383423" y="235.686002" style="fill: #dd8452; stroke: #dd8452"/>
     <use xlink:href="#mc8a9b245c2" x="219.929054" y="236.418584" style="fill: #dd8452; stroke: #dd8452"/>
     <use xlink:href="#mc8a9b245c2" x="224.474732" y="237.100643" style="fill: #dd8452; stroke: #dd8452"/>
     <use xlink:href="#mc8a9b245c2" x="229.020502" y="237.681656" style="fill: #dd8452; stroke: #dd8452"/>
     <use xlink:href="#mc8a9b245c2" x="233.566306" y="238.224777" style="fill: #dd8452; stroke: #dd8452"/>
     <use xlink:href="#mc8a9b245c2" x="238.112168" y="238.704745" style="fill: #dd8452; stroke: #dd8452"/>
     <use xlink:href="#mc8a9b245c2" x="242.658076" y="239.134189" style="fill: #dd8452; stroke: #dd8452"/>
     <use xlink:href="#mc8a9b245c2" x="247.204278" y="239.239646" style="fill: #dd8452; stroke: #dd8452"/>
     <use xlink:href="#mc8a9b245c2" x="251.750164" y="239.693309" style="fill: #dd8452; stroke: #dd8452"/>
     <use xlink:href="#mc8a9b245c2" x="256.296109" y="240.081494" style="fill: #dd8452; stroke: #dd8452"/>
     <use xlink:href="#mc8a9b245c2" x="260.842235" y="240.270955" style="fill: #dd8452; stroke: #dd8452"/>
     <use xlink:href="#mc8a9b245c2" x="265.38835" y="240.473046" style="fill: #dd8452; stroke: #dd8452"/>
     <use xlink:href="#mc8a9b245c2" x="269.934556" y="240.574092" style="fill: #dd8452; stroke: #dd8452"/>
     <use xlink:href="#mc8a9b245c2" x="274.480739" y="240.700399" style="fill: #dd8452; stroke: #dd8452"/>
     <use xlink:href="#mc8a9b245c2" x="277.373792" y="240.750922" style="fill: #dd8452; stroke: #dd8452"/>
     <use xlink:href="#mc8a9b245c2" x="286.928208" y="237.205578" style="fill: #dd8452; stroke: #dd8452"/>
     <use xlink:href="#mc8a9b245c2" x="291.014943" y="238.27109" style="fill: #dd8452; stroke: #dd8452"/>
     <use xlink:href="#mc8a9b245c2" x="295.560281" y="239.326808" style="fill: #dd8452; stroke: #dd8452"/>
     <use xlink:href="#mc8a9b245c2" x="300.105675" y="240.321477" style="fill: #dd8452; stroke: #dd8452"/>
     <use xlink:href="#mc8a9b245c2" x="304.066079" y="241.436625" style="fill: #dd8452; stroke: #dd8452"/>
     <use xlink:href="#mc8a9b245c2" x="308.724202" y="242.219695" style="fill: #dd8452; stroke: #dd8452"/>
     <use xlink:href="#mc8a9b245c2" x="312.501913" y="243.352851" style="fill: #dd8452; stroke: #dd8452"/>
     <use xlink:href="#mc8a9b245c2" x="317.218486" y="244.4408" style="fill: #dd8452; stroke: #dd8452"/>
     <use xlink:href="#mc8a9b245c2" x="321.592625" y="245.42429" style="fill: #dd8452; stroke: #dd8452"/>
     <use xlink:href="#mc8a9b245c2" x="325.311573" y="246.248896" style="fill: #dd8452; stroke: #dd8452"/>
     <use xlink:href="#mc8a9b245c2" x="330.63562" y="247.410204" style="fill: #dd8452; stroke: #dd8452"/>
     <use xlink:href="#mc8a9b245c2" x="336.951725" y="248.856199" style="fill: #dd8452; stroke: #dd8452"/>
     <use xlink:href="#mc8a9b245c2" x="341.806834" y="249.918792" style="fill: #dd8452; stroke: #dd8452"/>
     <use xlink:href="#mc8a9b245c2" x="346.385667" y="250.864484" style="fill: #dd8452; stroke: #dd8452"/>
     <use xlink:href="#mc8a9b245c2" x="355.476594" y="252.699587" style="fill: #dd8452; stroke: #dd8452"/>
     <use xlink:href="#mc8a9b245c2" x="358.782361" y="253.394277" style="fill: #dd8452; stroke: #dd8452"/>
     <use xlink:href="#mc8a9b245c2" x="365.393964" y="254.707873" style="fill: #dd8452; stroke: #dd8452"/>
     <use xlink:href="#mc8a9b245c2" x="368.667188" y="255.388245" style="fill: #dd8452; stroke: #dd8452"/>
     <use xlink:href="#mc8a9b245c2" x="374.622745" y="256.446419" style="fill: #dd8452; stroke: #dd8452"/>
     <use xlink:href="#mc8a9b245c2" x="379.03048" y="257.322433" style="fill: #dd8452; stroke: #dd8452"/>
     <use xlink:href="#mc8a9b245c2" x="383.575928" y="258.257106" style="fill: #dd8452; stroke: #dd8452"/>
     <use xlink:href="#mc8a9b245c2" x="388.121551" y="258.999756" style="fill: #dd8452; stroke: #dd8452"/>
     <use xlink:href="#mc8a9b245c2" x="392.476685" y="259.870886" style="fill: #dd8452; stroke: #dd8452"/>
    </g>
   </g>
   <g id="line2d_17">
    <defs>
     <path id="md73f290534" d="M 0 1.5 
C 0.397805 1.5 0.77937 1.341951 1.06066 1.06066 
C 1.341951 0.77937 1.5 0.397805 1.5 0 
C 1.5 -0.397805 1.341951 -0.77937 1.06066 -1.06066 
C 0.77937 -1.341951 0.397805 -1.5 0 -1.5 
C -0.397805 -1.5 -0.77937 -1.341951 -1.06066 -1.06066 
C -1.341951 -0.77937 -1.5 -0.397805 -1.5 0 
C -1.5 0.397805 -1.341951 0.77937 -1.06066 1.06066 
C -0.77937 1.341951 -0.397805 1.5 0 1.5 
z
" style="stroke: #55a868"/>
    </defs>
    <g clip-path="url(#p24f57d6c81)">
     <use xlink:href="#md73f290534" x="87.433621" y="53.594182" style="fill: #55a868; stroke: #55a868"/>
     <use xlink:href="#md73f290534" x="88.319361" y="56.056049" style="fill: #55a868; stroke: #55a868"/>
     <use xlink:href="#md73f290534" x="89.664503" y="59.357479" style="fill: #55a868; stroke: #55a868"/>
     <use xlink:href="#md73f290534" x="90.518605" y="61.576517" style="fill: #55a868; stroke: #55a868"/>
     <use xlink:href="#md73f290534" x="91.962349" y="64.66094" style="fill: #55a868; stroke: #55a868"/>
     <use xlink:href="#md73f290534" x="93.434794" y="68.646475" style="fill: #55a868; stroke: #55a868"/>
     <use xlink:href="#md73f290534" x="94.848972" y="71.779195" style="fill: #55a868; stroke: #55a868"/>
     <use xlink:href="#md73f290534" x="96.086576" y="74.303235" style="fill: #55a868; stroke: #55a868"/>
     <use xlink:href="#md73f290534" x="98.011902" y="78.047614" style="fill: #55a868; stroke: #55a868"/>
     <use xlink:href="#md73f290534" x="100.005488" y="82.477419" style="fill: #55a868; stroke: #55a868"/>
     <use xlink:href="#md73f290534" x="102.027198" y="86.279688" style="fill: #55a868; stroke: #55a868"/>
     <use xlink:href="#md73f290534" x="103.099794" y="88.461014" style="fill: #55a868; stroke: #55a868"/>
     <use xlink:href="#md73f290534" x="105.162944" y="92.14287" style="fill: #55a868; stroke: #55a868"/>
     <use xlink:href="#md73f290534" x="107.225853" y="96.088709" style="fill: #55a868; stroke: #55a868"/>
     <use xlink:href="#md73f290534" x="109.082928" y="99.138397" style="fill: #55a868; stroke: #55a868"/>
     <use xlink:href="#md73f290534" x="110.733821" y="101.674015" style="fill: #55a868; stroke: #55a868"/>
     <use xlink:href="#md73f290534" x="112.590435" y="105.230827" style="fill: #55a868; stroke: #55a868"/>
     <use xlink:href="#md73f290534" x="114.859931" y="109.246134" style="fill: #55a868; stroke: #55a868"/>
     <use xlink:href="#md73f290534" x="117.130085" y="112.538964" style="fill: #55a868; stroke: #55a868"/>
     <use xlink:href="#md73f290534" x="118.987653" y="115.046795" style="fill: #55a868; stroke: #55a868"/>
     <use xlink:href="#md73f290534" x="121.050982" y="118.531822" style="fill: #55a868; stroke: #55a868"/>
     <use xlink:href="#md73f290534" x="124.018766" y="123.803297" style="fill: #55a868; stroke: #55a868"/>
     <use xlink:href="#md73f290534" x="127.448974" y="127.496629" style="fill: #55a868; stroke: #55a868"/>
     <use xlink:href="#md73f290534" x="130.338354" y="131.585375" style="fill: #55a868; stroke: #55a868"/>
     <use xlink:href="#md73f290534" x="134.086362" y="135.414058" style="fill: #55a868; stroke: #55a868"/>
     <use xlink:href="#md73f290534" x="136.531379" y="138.700598" style="fill: #55a868; stroke: #55a868"/>
     <use xlink:href="#md73f290534" x="138.595181" y="141.664994" style="fill: #55a868; stroke: #55a868"/>
     <use xlink:href="#md73f290534" x="141.24801" y="145.11922" style="fill: #55a868; stroke: #55a868"/>
     <use xlink:href="#md73f290534" x="144.168389" y="148.635049" style="fill: #55a868; stroke: #55a868"/>
     <use xlink:href="#md73f290534" x="146.852075" y="151.671836" style="fill: #55a868; stroke: #55a868"/>
     <use xlink:href="#md73f290534" x="149.329556" y="154.220355" style="fill: #55a868; stroke: #55a868"/>
     <use xlink:href="#md73f290534" x="152.219698" y="157.470635" style="fill: #55a868; stroke: #55a868"/>
     <use xlink:href="#md73f290534" x="154.847193" y="160.322679" style="fill: #55a868; stroke: #55a868"/>
     <use xlink:href="#md73f290534" x="158.620059" y="163.831389" style="fill: #55a868; stroke: #55a868"/>
     <use xlink:href="#md73f290534" x="161.621308" y="166.56492" style="fill: #55a868; stroke: #55a868"/>
     <use xlink:href="#md73f290534" x="164.969078" y="169.840456" style="fill: #55a868; stroke: #55a868"/>
     <use xlink:href="#md73f290534" x="168.7374" y="173.180757" style="fill: #55a868; stroke: #55a868"/>
     <use xlink:href="#md73f290534" x="172.660787" y="176.436536" style="fill: #55a868; stroke: #55a868"/>
     <use xlink:href="#md73f290534" x="176.997126" y="180.074726" style="fill: #55a868; stroke: #55a868"/>
     <use xlink:href="#md73f290534" x="181.540128" y="183.69794" style="fill: #55a868; stroke: #55a868"/>
     <use xlink:href="#md73f290534" x="186.083416" y="187.00719" style="fill: #55a868; stroke: #55a868"/>
     <use xlink:href="#md73f290534" x="190.282477" y="190.108032" style="fill: #55a868; stroke: #55a868"/>
     <use xlink:href="#md73f290534" x="194.068763" y="192.632072" style="fill: #55a868; stroke: #55a868"/>
     <use xlink:href="#md73f290534" x="198.474667" y="195.520298" style="fill: #55a868; stroke: #55a868"/>
     <use xlink:href="#md73f290534" x="202.398861" y="197.888559" style="fill: #55a868; stroke: #55a868"/>
     <use xlink:href="#md73f290534" x="206.667258" y="200.492359" style="fill: #55a868; stroke: #55a868"/>
     <use xlink:href="#md73f290534" x="212.106243" y="203.566069" style="fill: #55a868; stroke: #55a868"/>
     <use xlink:href="#md73f290534" x="216.650531" y="205.776446" style="fill: #55a868; stroke: #55a868"/>
     <use xlink:href="#md73f290534" x="220.840837" y="207.683685" style="fill: #55a868; stroke: #55a868"/>
     <use xlink:href="#md73f290534" x="225.149411" y="209.390638" style="fill: #55a868; stroke: #55a868"/>
     <use xlink:href="#md73f290534" x="230.284462" y="211.232919" style="fill: #55a868; stroke: #55a868"/>
     <use xlink:href="#md73f290534" x="234.829439" y="212.685452" style="fill: #55a868; stroke: #55a868"/>
     <use xlink:href="#md73f290534" x="238.548108" y="213.816804" style="fill: #55a868; stroke: #55a868"/>
     <use xlink:href="#md73f290534" x="244.208691" y="215.60315" style="fill: #55a868; stroke: #55a868"/>
     <use xlink:href="#md73f290534" x="249.063567" y="216.703709" style="fill: #55a868; stroke: #55a868"/>
     <use xlink:href="#md73f290534" x="253.423474" y="217.586173" style="fill: #55a868; stroke: #55a868"/>
     <use xlink:href="#md73f290534" x="258.323306" y="218.381531" style="fill: #55a868; stroke: #55a868"/>
     <use xlink:href="#md73f290534" x="263.960585" y="219.823391" style="fill: #55a868; stroke: #55a868"/>
     <use xlink:href="#md73f290534" x="270.339581" y="220.98926" style="fill: #55a868; stroke: #55a868"/>
     <use xlink:href="#md73f290534" x="274.05301" y="221.613706" style="fill: #55a868; stroke: #55a868"/>
     <use xlink:href="#md73f290534" x="279.112583" y="222.384738" style="fill: #55a868; stroke: #55a868"/>
     <use xlink:href="#md73f290534" x="286.757428" y="223.70561" style="fill: #55a868; stroke: #55a868"/>
     <use xlink:href="#md73f290534" x="291.441006" y="224.241103" style="fill: #55a868; stroke: #55a868"/>
     <use xlink:href="#md73f290534" x="296.145533" y="225.04676" style="fill: #55a868; stroke: #55a868"/>
     <use xlink:href="#md73f290534" x="300.119089" y="225.575808" style="fill: #55a868; stroke: #55a868"/>
     <use xlink:href="#md73f290534" x="305.9045" y="226.440311" style="fill: #55a868; stroke: #55a868"/>
     <use xlink:href="#md73f290534" x="312.103113" y="227.412877" style="fill: #55a868; stroke: #55a868"/>
     <use xlink:href="#md73f290534" x="316.648814" y="228.069675" style="fill: #55a868; stroke: #55a868"/>
     <use xlink:href="#md73f290534" x="321.19432" y="228.941195" style="fill: #55a868; stroke: #55a868"/>
     <use xlink:href="#md73f290534" x="326.588195" y="229.739114" style="fill: #55a868; stroke: #55a868"/>
     <use xlink:href="#md73f290534" x="331.029491" y="230.441725" style="fill: #55a868; stroke: #55a868"/>
     <use xlink:href="#md73f290534" x="334.831261" y="231.088418" style="fill: #55a868; stroke: #55a868"/>
     <use xlink:href="#md73f290534" x="339.376859" y="231.858892" style="fill: #55a868; stroke: #55a868"/>
     <use xlink:href="#md73f290534" x="342.682752" y="232.414644" style="fill: #55a868; stroke: #55a868"/>
     <use xlink:href="#md73f290534" x="348.146655" y="233.337249" style="fill: #55a868; stroke: #55a868"/>
     <use xlink:href="#md73f290534" x="353.013783" y="234.025295" style="fill: #55a868; stroke: #55a868"/>
     <use xlink:href="#md73f290534" x="357.559271" y="234.915527" style="fill: #55a868; stroke: #55a868"/>
     <use xlink:href="#md73f290534" x="362.104857" y="235.698632" style="fill: #55a868; stroke: #55a868"/>
     <use xlink:href="#md73f290534" x="368.50998" y="236.825924" style="fill: #55a868; stroke: #55a868"/>
     <use xlink:href="#md73f290534" x="374.91513" y="237.92164" style="fill: #55a868; stroke: #55a868"/>
     <use xlink:href="#md73f290534" x="379.460602" y="238.831052" style="fill: #55a868; stroke: #55a868"/>
     <use xlink:href="#md73f290534" x="383.592977" y="239.515918" style="fill: #55a868; stroke: #55a868"/>
     <use xlink:href="#md73f290534" x="389.171686" y="240.438312" style="fill: #55a868; stroke: #55a868"/>
     <use xlink:href="#md73f290534" x="395.576825" y="241.546658" style="fill: #55a868; stroke: #55a868"/>
     <use xlink:href="#md73f290534" x="400.053536" y="242.32127" style="fill: #55a868; stroke: #55a868"/>
     <use xlink:href="#md73f290534" x="404.254683" y="243.128305" style="fill: #55a868; stroke: #55a868"/>
     <use xlink:href="#md73f290534" x="409.994021" y="244.159157" style="fill: #55a868; stroke: #55a868"/>
     <use xlink:href="#md73f290534" x="416.238302" y="245.411659" style="fill: #55a868; stroke: #55a868"/>
     <use xlink:href="#md73f290534" x="420.783853" y="246.232656" style="fill: #55a868; stroke: #55a868"/>
     <use xlink:href="#md73f290534" x="424.916123" y="247.034006" style="fill: #55a868; stroke: #55a868"/>
     <use xlink:href="#md73f290534" x="430.494545" y="248.27094" style="fill: #55a868; stroke: #55a868"/>
    </g>
   </g>
   <g id="patch_3">
    <path d="M 66.24 295.56 
L 66.24 42.072 
" style="fill: none; stroke: #ffffff; stroke-width: 1.25; stroke-linejoin: miter; stroke-linecap: square"/>
   </g>
   <g id="patch_4">
    <path d="M 447.84 295.56 
L 447.84 42.072 
" style="fill: none; stroke: #ffffff; stroke-width: 1.25; stroke-linejoin: miter; stroke-linecap: square"/>
   </g>
   <g id="patch_5">
    <path d="M 66.24 295.56 
L 447.84 295.56 
" style="fill: none; stroke: #ffffff; stroke-width: 1.25; stroke-linejoin: miter; stroke-linecap: square"/>
   </g>
   <g id="patch_6">
    <path d="M 66.24 42.072 
L 447.84 42.072 
" style="fill: none; stroke: #ffffff; stroke-width: 1.25; stroke-linejoin: miter; stroke-linecap: square"/>
   </g>
   <g id="text_17">
    <!-- Human Power Output -->
    <g style="fill: #262626" transform="translate(192.609375 22.634625) scale(0.12 -0.12)">
     <defs>
      <path id="DejaVuSans-48" d="M 628 4666 
L 1259 4666 
L 1259 2753 
L 3553 2753 
L 3553 4666 
L 4184 4666 
L 4184 0 
L 3553 0 
L 3553 2222 
L 1259 2222 
L 1259 0 
L 628 0 
L 628 4666 
z
" transform="scale(0.015625)"/>
      <path id="DejaVuSans-4f" d="M 2522 4238 
Q 1834 4238 1429 3725 
Q 1025 3213 1025 2328 
Q 1025 1447 1429 934 
Q 1834 422 2522 422 
Q 3209 422 3611 934 
Q 4013 1447 4013 2328 
Q 4013 3213 3611 3725 
Q 3209 4238 2522 4238 
z
M 2522 4750 
Q 3503 4750 4090 4092 
Q 4678 3434 4678 2328 
Q 4678 1225 4090 567 
Q 3503 -91 2522 -91 
Q 1538 -91 948 565 
Q 359 1222 359 2328 
Q 359 3434 948 4092 
Q 1538 4750 2522 4750 
z
" transform="scale(0.015625)"/>
      <path id="DejaVuSans-70" d="M 1159 525 
L 1159 -1331 
L 581 -1331 
L 581 3500 
L 1159 3500 
L 1159 2969 
Q 1341 3281 1617 3432 
Q 1894 3584 2278 3584 
Q 2916 3584 3314 3078 
Q 3713 2572 3713 1747 
Q 3713 922 3314 415 
Q 2916 -91 2278 -91 
Q 1894 -91 1617 61 
Q 1341 213 1159 525 
z
M 3116 1747 
Q 3116 2381 2855 2742 
Q 2594 3103 2138 3103 
Q 1681 3103 1420 2742 
Q 1159 2381 1159 1747 
Q 1159 1113 1420 752 
Q 1681 391 2138 391 
Q 2594 391 2855 752 
Q 3116 1113 3116 1747 
z
" transform="scale(0.015625)"/>
     </defs>
     <use xlink:href="#DejaVuSans-48"/>
     <use xlink:href="#DejaVuSans-75" transform="translate(75.195312 0)"/>
     <use xlink:href="#DejaVuSans-6d" transform="translate(138.574219 0)"/>
     <use xlink:href="#DejaVuSans-61" transform="translate(235.986328 0)"/>
     <use xlink:href="#DejaVuSans-6e" transform="translate(297.265625 0)"/>
     <use xlink:href="#DejaVuSans-20" transform="translate(360.644531 0)"/>
     <use xlink:href="#DejaVuSans-50" transform="translate(392.431641 0)"/>
     <use xlink:href="#DejaVuSans-6f" transform="translate(449.109375 0)"/>
     <use xlink:href="#DejaVuSans-77" transform="translate(510.291016 0)"/>
     <use xlink:href="#DejaVuSans-65" transform="translate(592.078125 0)"/>
     <use xlink:href="#DejaVuSans-72" transform="translate(653.601562 0)"/>
     <use xlink:href="#DejaVuSans-20" transform="translate(694.714844 0)"/>
     <use xlink:href="#DejaVuSans-4f" transform="translate(726.501953 0)"/>
     <use xlink:href="#DejaVuSans-75" transform="translate(805.212891 0)"/>
     <use xlink:href="#DejaVuSans-74" transform="translate(868.591797 0)"/>
     <use xlink:href="#DejaVuSans-70" transform="translate(907.800781 0)"/>
     <use xlink:href="#DejaVuSans-75" transform="translate(971.277344 0)"/>
     <use xlink:href="#DejaVuSans-74" transform="translate(1034.65625 0)"/>
    </g>
    <!-- (Fig. 2.4, Bicycling Science by D. Wilson) -->
    <g style="fill: #262626" transform="translate(135.313125 36.072) scale(0.12 -0.12)">
     <defs>
      <path id="DejaVuSans-28" d="M 1984 4856 
Q 1566 4138 1362 3434 
Q 1159 2731 1159 2009 
Q 1159 1288 1364 580 
Q 1569 -128 1984 -844 
L 1484 -844 
Q 1016 -109 783 600 
Q 550 1309 550 2009 
Q 550 2706 781 3412 
Q 1013 4119 1484 4856 
L 1984 4856 
z
" transform="scale(0.015625)"/>
      <path id="DejaVuSans-46" d="M 628 4666 
L 3309 4666 
L 3309 4134 
L 1259 4134 
L 1259 2759 
L 3109 2759 
L 3109 2228 
L 1259 2228 
L 1259 0 
L 628 0 
L 628 4666 
z
" transform="scale(0.015625)"/>
      <path id="DejaVuSans-67" d="M 2906 1791 
Q 2906 2416 2648 2759 
Q 2391 3103 1925 3103 
Q 1463 3103 1205 2759 
Q 947 2416 947 1791 
Q 947 1169 1205 825 
Q 1463 481 1925 481 
Q 2391 481 2648 825 
Q 2906 1169 2906 1791 
z
M 3481 434 
Q 3481 -459 3084 -895 
Q 2688 -1331 1869 -1331 
Q 1566 -1331 1297 -1286 
Q 1028 -1241 775 -1147 
L 775 -588 
Q 1028 -725 1275 -790 
Q 1522 -856 1778 -856 
Q 2344 -856 2625 -561 
Q 2906 -266 2906 331 
L 2906 616 
Q 2728 306 2450 153 
Q 2172 0 1784 0 
Q 1141 0 747 490 
Q 353 981 353 1791 
Q 353 2603 747 3093 
Q 1141 3584 1784 3584 
Q 2172 3584 2450 3431 
Q 2728 3278 2906 2969 
L 2906 3500 
L 3481 3500 
L 3481 434 
z
" transform="scale(0.015625)"/>
      <path id="DejaVuSans-2e" d="M 684 794 
L 1344 794 
L 1344 0 
L 684 0 
L 684 794 
z
" transform="scale(0.015625)"/>
      <path id="DejaVuSans-2c" d="M 750 794 
L 1409 794 
L 1409 256 
L 897 -744 
L 494 -744 
L 750 256 
L 750 794 
z
" transform="scale(0.015625)"/>
      <path id="DejaVuSans-42" d="M 1259 2228 
L 1259 519 
L 2272 519 
Q 2781 519 3026 730 
Q 3272 941 3272 1375 
Q 3272 1813 3026 2020 
Q 2781 2228 2272 2228 
L 1259 2228 
z
M 1259 4147 
L 1259 2741 
L 2194 2741 
Q 2656 2741 2882 2914 
Q 3109 3088 3109 3444 
Q 3109 3797 2882 3972 
Q 2656 4147 2194 4147 
L 1259 4147 
z
M 628 4666 
L 2241 4666 
Q 2963 4666 3353 4366 
Q 3744 4066 3744 3513 
Q 3744 3084 3544 2831 
Q 3344 2578 2956 2516 
Q 3422 2416 3680 2098 
Q 3938 1781 3938 1306 
Q 3938 681 3513 340 
Q 3088 0 2303 0 
L 628 0 
L 628 4666 
z
" transform="scale(0.015625)"/>
      <path id="DejaVuSans-63" d="M 3122 3366 
L 3122 2828 
Q 2878 2963 2633 3030 
Q 2388 3097 2138 3097 
Q 1578 3097 1268 2742 
Q 959 2388 959 1747 
Q 959 1106 1268 751 
Q 1578 397 2138 397 
Q 2388 397 2633 464 
Q 2878 531 3122 666 
L 3122 134 
Q 2881 22 2623 -34 
Q 2366 -91 2075 -91 
Q 1284 -91 818 406 
Q 353 903 353 1747 
Q 353 2603 823 3093 
Q 1294 3584 2113 3584 
Q 2378 3584 2631 3529 
Q 2884 3475 3122 3366 
z
" transform="scale(0.015625)"/>
      <path id="DejaVuSans-79" d="M 2059 -325 
Q 1816 -950 1584 -1140 
Q 1353 -1331 966 -1331 
L 506 -1331 
L 506 -850 
L 844 -850 
Q 1081 -850 1212 -737 
Q 1344 -625 1503 -206 
L 1606 56 
L 191 3500 
L 800 3500 
L 1894 763 
L 2988 3500 
L 3597 3500 
L 2059 -325 
z
" transform="scale(0.015625)"/>
      <path id="DejaVuSans-29" d="M 513 4856 
L 1013 4856 
Q 1481 4119 1714 3412 
Q 1947 2706 1947 2009 
Q 1947 1309 1714 600 
Q 1481 -109 1013 -844 
L 513 -844 
Q 928 -128 1133 580 
Q 1338 1288 1338 2009 
Q 1338 2731 1133 3434 
Q 928 4138 513 4856 
z
" transform="scale(0.015625)"/>
     </defs>
     <use xlink:href="#DejaVuSans-28"/>
     <use xlink:href="#DejaVuSans-46" transform="translate(39.013672 0)"/>
     <use xlink:href="#DejaVuSans-69" transform="translate(89.283203 0)"/>
     <use xlink:href="#DejaVuSans-67" transform="translate(117.066406 0)"/>
     <use xlink:href="#DejaVuSans-2e" transform="translate(180.542969 0)"/>
     <use xlink:href="#DejaVuSans-20" transform="translate(212.330078 0)"/>
     <use xlink:href="#DejaVuSans-32" transform="translate(244.117188 0)"/>
     <use xlink:href="#DejaVuSans-2e" transform="translate(307.740234 0)"/>
     <use xlink:href="#DejaVuSans-34" transform="translate(339.527344 0)"/>
     <use xlink:href="#DejaVuSans-2c" transform="translate(403.150391 0)"/>
     <use xlink:href="#DejaVuSans-20" transform="translate(434.9375 0)"/>
     <use xlink:href="#DejaVuSans-42" transform="translate(466.724609 0)"/>
     <use xlink:href="#DejaVuSans-69" transform="translate(535.328125 0)"/>
     <use xlink:href="#DejaVuSans-63" transform="translate(563.111328 0)"/>
     <use xlink:href="#DejaVuSans-79" transform="translate(618.091797 0)"/>
     <use xlink:href="#DejaVuSans-63" transform="translate(677.271484 0)"/>
     <use xlink:href="#DejaVuSans-6c" transform="translate(732.251953 0)"/>
     <use xlink:href="#DejaVuSans-69" transform="translate(760.035156 0)"/>
     <use xlink:href="#DejaVuSans-6e" transform="translate(787.818359 0)"/>
     <use xlink:href="#DejaVuSans-67" transform="translate(851.197266 0)"/>
     <use xlink:href="#DejaVuSans-20" transform="translate(914.673828 0)"/>
     <use xlink:href="#DejaVuSans-53" transform="translate(946.460938 0)"/>
     <use xlink:href="#DejaVuSans-63" transform="translate(1009.9375 0)"/>
     <use xlink:href="#DejaVuSans-69" transform="translate(1064.917969 0)"/>
     <use xlink:href="#DejaVuSans-65" transform="translate(1092.701172 0)"/>
     <use xlink:href="#DejaVuSans-6e" transform="translate(1154.224609 0)"/>
     <use xlink:href="#DejaVuSans-63" transform="translate(1217.603516 0)"/>
     <use xlink:href="#DejaVuSans-65" transform="translate(1272.583984 0)"/>
     <use xlink:href="#DejaVuSans-20" transform="translate(1334.107422 0)"/>
     <use xlink:href="#DejaVuSans-62" transform="translate(1365.894531 0)"/>
     <use xlink:href="#DejaVuSans-79" transform="translate(1429.371094 0)"/>
     <use xlink:href="#DejaVuSans-20" transform="translate(1488.550781 0)"/>
     <use xlink:href="#DejaVuSans-44" transform="translate(1520.337891 0)"/>
     <use xlink:href="#DejaVuSans-2e" transform="translate(1597.339844 0)"/>
     <use xlink:href="#DejaVuSans-20" transform="translate(1629.126953 0)"/>
     <use xlink:href="#DejaVuSans-57" transform="translate(1660.914062 0)"/>
     <use xlink:href="#DejaVuSans-69" transform="translate(1757.541016 0)"/>
     <use xlink:href="#DejaVuSans-6c" transform="translate(1785.324219 0)"/>
     <use xlink:href="#DejaVuSans-73" transform="translate(1813.107422 0)"/>
     <use xlink:href="#DejaVuSans-6f" transform="translate(1865.207031 0)"/>
     <use xlink:href="#DejaVuSans-6e" transform="translate(1926.388672 0)"/>
     <use xlink:href="#DejaVuSans-29" transform="translate(1989.767578 0)"/>
    </g>
   </g>
   <g id="legend_1">
    <g id="patch_7">
     <path d="M 291.76375 99.309812 
L 440.14 99.309812 
Q 442.34 99.309812 442.34 97.109812 
L 442.34 49.772 
Q 442.34 47.572 440.14 47.572 
L 291.76375 47.572 
Q 289.56375 47.572 289.56375 49.772 
L 289.56375 97.109812 
Q 289.56375 99.309812 291.76375 99.309812 
z
" style="fill: #eaeaf2; opacity: 0.8; stroke: #cccccc; stroke-linejoin: miter"/>
    </g>
    <g id="line2d_18">
     <g>
      <use xlink:href="#m5ba375358f" x="304.96375" y="56.480281" style="fill: #4c72b0; stroke: #4c72b0"/>
     </g>
    </g>
    <g id="text_18">
     <!-- Healthy Men -->
     <g style="fill: #262626" transform="translate(324.76375 60.330281) scale(0.11 -0.11)">
      <defs>
       <path id="DejaVuSans-68" d="M 3513 2113 
L 3513 0 
L 2938 0 
L 2938 2094 
Q 2938 2591 2744 2837 
Q 2550 3084 2163 3084 
Q 1697 3084 1428 2787 
Q 1159 2491 1159 1978 
L 1159 0 
L 581 0 
L 581 4863 
L 1159 4863 
L 1159 2956 
Q 1366 3272 1645 3428 
Q 1925 3584 2291 3584 
Q 2894 3584 3203 3211 
Q 3513 2838 3513 2113 
z
" transform="scale(0.015625)"/>
      </defs>
      <use xlink:href="#DejaVuSans-48"/>
      <use xlink:href="#DejaVuSans-65" transform="translate(75.195312 0)"/>
      <use xlink:href="#DejaVuSans-61" transform="translate(136.71875 0)"/>
      <use xlink:href="#DejaVuSans-6c" transform="translate(197.998047 0)"/>
      <use xlink:href="#DejaVuSans-74" transform="translate(225.78125 0)"/>
      <use xlink:href="#DejaVuSans-68" transform="translate(264.990234 0)"/>
      <use xlink:href="#DejaVuSans-79" transform="translate(328.369141 0)"/>
      <use xlink:href="#DejaVuSans-20" transform="translate(387.548828 0)"/>
      <use xlink:href="#DejaVuSans-4d" transform="translate(419.335938 0)"/>
      <use xlink:href="#DejaVuSans-65" transform="translate(505.615234 0)"/>
      <use xlink:href="#DejaVuSans-6e" transform="translate(567.138672 0)"/>
     </g>
    </g>
    <g id="line2d_19">
     <g>
      <use xlink:href="#mc8a9b245c2" x="304.96375" y="72.626219" style="fill: #dd8452; stroke: #dd8452"/>
     </g>
    </g>
    <g id="text_19">
     <!-- First-Class Athletes -->
     <g style="fill: #262626" transform="translate(324.76375 76.476219) scale(0.11 -0.11)">
      <defs>
       <path id="DejaVuSans-2d" d="M 313 2009 
L 1997 2009 
L 1997 1497 
L 313 1497 
L 313 2009 
z
" transform="scale(0.015625)"/>
       <path id="DejaVuSans-43" d="M 4122 4306 
L 4122 3641 
Q 3803 3938 3442 4084 
Q 3081 4231 2675 4231 
Q 1875 4231 1450 3742 
Q 1025 3253 1025 2328 
Q 1025 1406 1450 917 
Q 1875 428 2675 428 
Q 3081 428 3442 575 
Q 3803 722 4122 1019 
L 4122 359 
Q 3791 134 3420 21 
Q 3050 -91 2638 -91 
Q 1578 -91 968 557 
Q 359 1206 359 2328 
Q 359 3453 968 4101 
Q 1578 4750 2638 4750 
Q 3056 4750 3426 4639 
Q 3797 4528 4122 4306 
z
" transform="scale(0.015625)"/>
       <path id="DejaVuSans-41" d="M 2188 4044 
L 1331 1722 
L 3047 1722 
L 2188 4044 
z
M 1831 4666 
L 2547 4666 
L 4325 0 
L 3669 0 
L 3244 1197 
L 1141 1197 
L 716 0 
L 50 0 
L 1831 4666 
z
" transform="scale(0.015625)"/>
      </defs>
      <use xlink:href="#DejaVuSans-46"/>
      <use xlink:href="#DejaVuSans-69" transform="translate(50.269531 0)"/>
      <use xlink:href="#DejaVuSans-72" transform="translate(78.052734 0)"/>
      <use xlink:href="#DejaVuSans-73" transform="translate(119.166016 0)"/>
      <use xlink:href="#DejaVuSans-74" transform="translate(171.265625 0)"/>
      <use xlink:href="#DejaVuSans-2d" transform="translate(210.474609 0)"/>
      <use xlink:href="#DejaVuSans-43" transform="translate(246.558594 0)"/>
      <use xlink:href="#DejaVuSans-6c" transform="translate(316.382812 0)"/>
      <use xlink:href="#DejaVuSans-61" transform="translate(344.166016 0)"/>
      <use xlink:href="#DejaVuSans-73" transform="translate(405.445312 0)"/>
      <use xlink:href="#DejaVuSans-73" transform="translate(457.544922 0)"/>
      <use xlink:href="#DejaVuSans-20" transform="translate(509.644531 0)"/>
      <use xlink:href="#DejaVuSans-41" transform="translate(541.431641 0)"/>
      <use xlink:href="#DejaVuSans-74" transform="translate(608.089844 0)"/>
      <use xlink:href="#DejaVuSans-68" transform="translate(647.298828 0)"/>
      <use xlink:href="#DejaVuSans-6c" transform="translate(710.677734 0)"/>
      <use xlink:href="#DejaVuSans-65" transform="translate(738.460938 0)"/>
      <use xlink:href="#DejaVuSans-74" transform="translate(799.984375 0)"/>
      <use xlink:href="#DejaVuSans-65" transform="translate(839.193359 0)"/>
      <use xlink:href="#DejaVuSans-73" transform="translate(900.716797 0)"/>
     </g>
    </g>
    <g id="line2d_20">
     <g>
      <use xlink:href="#md73f290534" x="304.96375" y="88.772156" style="fill: #55a868; stroke: #55a868"/>
     </g>
    </g>
    <g id="text_20">
     <!-- World-Class Athletes -->
     <g style="fill: #262626" transform="translate(324.76375 92.622156) scale(0.11 -0.11)">
      <defs>
       <path id="DejaVuSans-64" d="M 2906 2969 
L 2906 4863 
L 3481 4863 
L 3481 0 
L 2906 0 
L 2906 525 
Q 2725 213 2448 61 
Q 2172 -91 1784 -91 
Q 1150 -91 751 415 
Q 353 922 353 1747 
Q 353 2572 751 3078 
Q 1150 3584 1784 3584 
Q 2172 3584 2448 3432 
Q 2725 3281 2906 2969 
z
M 947 1747 
Q 947 1113 1208 752 
Q 1469 391 1925 391 
Q 2381 391 2643 752 
Q 2906 1113 2906 1747 
Q 2906 2381 2643 2742 
Q 2381 3103 1925 3103 
Q 1469 3103 1208 2742 
Q 947 2381 947 1747 
z
" transform="scale(0.015625)"/>
      </defs>
      <use xlink:href="#DejaVuSans-57"/>
      <use xlink:href="#DejaVuSans-6f" transform="translate(93.001953 0)"/>
      <use xlink:href="#DejaVuSans-72" transform="translate(154.183594 0)"/>
      <use xlink:href="#DejaVuSans-6c" transform="translate(195.296875 0)"/>
      <use xlink:href="#DejaVuSans-64" transform="translate(223.080078 0)"/>
      <use xlink:href="#DejaVuSans-2d" transform="translate(286.556641 0)"/>
      <use xlink:href="#DejaVuSans-43" transform="translate(322.640625 0)"/>
      <use xlink:href="#DejaVuSans-6c" transform="translate(392.464844 0)"/>
      <use xlink:href="#DejaVuSans-61" transform="translate(420.248047 0)"/>
      <use xlink:href="#DejaVuSans-73" transform="translate(481.527344 0)"/>
      <use xlink:href="#DejaVuSans-73" transform="translate(533.626953 0)"/>
      <use xlink:href="#DejaVuSans-20" transform="translate(585.726562 0)"/>
      <use xlink:href="#DejaVuSans-41" transform="translate(617.513672 0)"/>
      <use xlink:href="#DejaVuSans-74" transform="translate(684.171875 0)"/>
      <use xlink:href="#DejaVuSans-68" transform="translate(723.380859 0)"/>
      <use xlink:href="#DejaVuSans-6c" transform="translate(786.759766 0)"/>
      <use xlink:href="#DejaVuSans-65" transform="translate(814.542969 0)"/>
      <use xlink:href="#DejaVuSans-74" transform="translate(876.066406 0)"/>
      <use xlink:href="#DejaVuSans-65" transform="translate(915.275391 0)"/>
      <use xlink:href="#DejaVuSans-73" transform="translate(976.798828 0)"/>
     </g>
    </g>
   </g>
  </g>
 </g>
 <defs>
  <clipPath id="p24f57d6c81">
   <rect x="66.24" y="42.072" width="381.6" height="253.488"/>
  </clipPath>
 </defs>
</svg>
