<?xml version="1.0" encoding="utf-8" standalone="no"?>
<!DOCTYPE svg PUBLIC "-//W3C//DTD SVG 1.1//EN"
  "http://www.w3.org/Graphics/SVG/1.1/DTD/svg11.dtd">
<!-- Created with matplotlib (https://matplotlib.org/) -->
<svg height="345.6pt" version="1.1" viewBox="0 0 460.8 345.6" width="460.8pt" xmlns="http://www.w3.org/2000/svg" xmlns:xlink="http://www.w3.org/1999/xlink">
 <defs>
  <style type="text/css">
*{stroke-linecap:butt;stroke-linejoin:round;}
  </style>
 </defs>
 <g id="figure_1">
  <g id="patch_1">
   <path d="M 0 345.6 
L 460.8 345.6 
L 460.8 0 
L 0 0 
z
" style="fill:#ffffff;"/>
  </g>
  <g id="axes_1">
   <g id="patch_2">
    <path d="M 62.150625 293.279063 
L 447.84 293.279063 
L 447.84 40.538625 
L 62.150625 40.538625 
z
" style="fill:#eaeaf2;"/>
   </g>
   <g id="matplotlib.axis_1">
    <g id="xtick_1">
     <g id="line2d_1">
      <path clip-path="url(#pa5019a3e58)" d="M 79.496815 293.279063 
L 79.496815 40.538625 
" style="fill:none;stroke:#ffffff;stroke-linecap:round;"/>
     </g>
     <g id="text_1">
      <!-- $\mathdefault{10^{-1}}$ -->
      <defs>
       <path d="M 37.25 0 
L 28.46875 0 
L 28.46875 56 
Q 25.296875 52.984375 20.140625 49.953125 
Q 14.984375 46.921875 10.890625 45.40625 
L 10.890625 53.90625 
Q 18.265625 57.375 23.78125 62.296875 
Q 29.296875 67.234375 31.59375 71.875 
L 37.25 71.875 
z
" id="ArialMT-49"/>
       <path d="M 4.15625 35.296875 
Q 4.15625 48 6.765625 55.734375 
Q 9.375 63.484375 14.515625 67.671875 
Q 19.671875 71.875 27.484375 71.875 
Q 33.25 71.875 37.59375 69.546875 
Q 41.9375 67.234375 44.765625 62.859375 
Q 47.609375 58.5 49.21875 52.21875 
Q 50.828125 45.953125 50.828125 35.296875 
Q 50.828125 22.703125 48.234375 14.96875 
Q 45.65625 7.234375 40.5 3 
Q 35.359375 -1.21875 27.484375 -1.21875 
Q 17.140625 -1.21875 11.234375 6.203125 
Q 4.15625 15.140625 4.15625 35.296875 
z
M 13.1875 35.296875 
Q 13.1875 17.671875 17.3125 11.828125 
Q 21.4375 6 27.484375 6 
Q 33.546875 6 37.671875 11.859375 
Q 41.796875 17.71875 41.796875 35.296875 
Q 41.796875 52.984375 37.671875 58.78125 
Q 33.546875 64.59375 27.390625 64.59375 
Q 21.34375 64.59375 17.71875 59.46875 
Q 13.1875 52.9375 13.1875 35.296875 
z
" id="ArialMT-48"/>
       <path d="M 52.828125 31.203125 
L 5.5625 31.203125 
L 5.5625 39.40625 
L 52.828125 39.40625 
z
" id="ArialMT-8722"/>
      </defs>
      <g style="fill:#262626;" transform="translate(68.606815 314.122813)scale(0.11 -0.11)">
       <use transform="translate(0 0.99375)" xlink:href="#ArialMT-49"/>
       <use transform="translate(55.615234 0.99375)" xlink:href="#ArialMT-48"/>
       <use transform="translate(112.972813 70.6875)scale(0.7)" xlink:href="#ArialMT-8722"/>
       <use transform="translate(153.851719 70.6875)scale(0.7)" xlink:href="#ArialMT-49"/>
      </g>
     </g>
    </g>
    <g id="xtick_2">
     <g id="line2d_2">
      <path clip-path="url(#pa5019a3e58)" d="M 156.748025 293.279063 
L 156.748025 40.538625 
" style="fill:none;stroke:#ffffff;stroke-linecap:round;"/>
     </g>
     <g id="text_2">
      <!-- $\mathdefault{10^{0}}$ -->
      <g style="fill:#262626;" transform="translate(148.113025 314.122813)scale(0.11 -0.11)">
       <use transform="translate(0 0.99375)" xlink:href="#ArialMT-49"/>
       <use transform="translate(55.615234 0.99375)" xlink:href="#ArialMT-48"/>
       <use transform="translate(112.972813 70.6875)scale(0.7)" xlink:href="#ArialMT-48"/>
      </g>
     </g>
    </g>
    <g id="xtick_3">
     <g id="line2d_3">
      <path clip-path="url(#pa5019a3e58)" d="M 233.999235 293.279063 
L 233.999235 40.538625 
" style="fill:none;stroke:#ffffff;stroke-linecap:round;"/>
     </g>
     <g id="text_3">
      <!-- $\mathdefault{10^{1}}$ -->
      <g style="fill:#262626;" transform="translate(225.364235 314.122813)scale(0.11 -0.11)">
       <use transform="translate(0 0.99375)" xlink:href="#ArialMT-49"/>
       <use transform="translate(55.615234 0.99375)" xlink:href="#ArialMT-48"/>
       <use transform="translate(112.972813 70.6875)scale(0.7)" xlink:href="#ArialMT-49"/>
      </g>
     </g>
    </g>
    <g id="xtick_4">
     <g id="line2d_4">
      <path clip-path="url(#pa5019a3e58)" d="M 311.250445 293.279063 
L 311.250445 40.538625 
" style="fill:none;stroke:#ffffff;stroke-linecap:round;"/>
     </g>
     <g id="text_4">
      <!-- $\mathdefault{10^{2}}$ -->
      <defs>
       <path d="M 50.34375 8.453125 
L 50.34375 0 
L 3.03125 0 
Q 2.9375 3.171875 4.046875 6.109375 
Q 5.859375 10.9375 9.828125 15.625 
Q 13.8125 20.3125 21.34375 26.46875 
Q 33.015625 36.03125 37.109375 41.625 
Q 41.21875 47.21875 41.21875 52.203125 
Q 41.21875 57.421875 37.46875 61 
Q 33.734375 64.59375 27.734375 64.59375 
Q 21.390625 64.59375 17.578125 60.78125 
Q 13.765625 56.984375 13.71875 50.25 
L 4.6875 51.171875 
Q 5.609375 61.28125 11.65625 66.578125 
Q 17.71875 71.875 27.9375 71.875 
Q 38.234375 71.875 44.234375 66.15625 
Q 50.25 60.453125 50.25 52 
Q 50.25 47.703125 48.484375 43.546875 
Q 46.734375 39.40625 42.65625 34.8125 
Q 38.578125 30.21875 29.109375 22.21875 
Q 21.1875 15.578125 18.9375 13.203125 
Q 16.703125 10.84375 15.234375 8.453125 
z
" id="ArialMT-50"/>
      </defs>
      <g style="fill:#262626;" transform="translate(302.615445 314.122813)scale(0.11 -0.11)">
       <use transform="translate(0 0.99375)" xlink:href="#ArialMT-49"/>
       <use transform="translate(55.615234 0.99375)" xlink:href="#ArialMT-48"/>
       <use transform="translate(112.972813 70.6875)scale(0.7)" xlink:href="#ArialMT-50"/>
      </g>
     </g>
    </g>
    <g id="xtick_5">
     <g id="line2d_5">
      <path clip-path="url(#pa5019a3e58)" d="M 388.501655 293.279063 
L 388.501655 40.538625 
" style="fill:none;stroke:#ffffff;stroke-linecap:round;"/>
     </g>
     <g id="text_5">
      <!-- $\mathdefault{10^{3}}$ -->
      <defs>
       <path d="M 4.203125 18.890625 
L 12.984375 20.0625 
Q 14.5 12.59375 18.140625 9.296875 
Q 21.78125 6 27 6 
Q 33.203125 6 37.46875 10.296875 
Q 41.75 14.59375 41.75 20.953125 
Q 41.75 27 37.796875 30.921875 
Q 33.84375 34.859375 27.734375 34.859375 
Q 25.25 34.859375 21.53125 33.890625 
L 22.515625 41.609375 
Q 23.390625 41.5 23.921875 41.5 
Q 29.546875 41.5 34.03125 44.421875 
Q 38.53125 47.359375 38.53125 53.46875 
Q 38.53125 58.296875 35.25 61.46875 
Q 31.984375 64.65625 26.8125 64.65625 
Q 21.6875 64.65625 18.265625 61.421875 
Q 14.84375 58.203125 13.875 51.765625 
L 5.078125 53.328125 
Q 6.6875 62.15625 12.390625 67.015625 
Q 18.109375 71.875 26.609375 71.875 
Q 32.46875 71.875 37.390625 69.359375 
Q 42.328125 66.84375 44.9375 62.5 
Q 47.5625 58.15625 47.5625 53.265625 
Q 47.5625 48.640625 45.0625 44.828125 
Q 42.578125 41.015625 37.703125 38.765625 
Q 44.046875 37.3125 47.5625 32.6875 
Q 51.078125 28.078125 51.078125 21.140625 
Q 51.078125 11.765625 44.234375 5.25 
Q 37.40625 -1.265625 26.953125 -1.265625 
Q 17.53125 -1.265625 11.296875 4.34375 
Q 5.078125 9.96875 4.203125 18.890625 
z
" id="ArialMT-51"/>
      </defs>
      <g style="fill:#262626;" transform="translate(379.866655 314.122813)scale(0.11 -0.11)">
       <use transform="translate(0 0.99375)" xlink:href="#ArialMT-49"/>
       <use transform="translate(55.615234 0.99375)" xlink:href="#ArialMT-48"/>
       <use transform="translate(112.972813 70.6875)scale(0.7)" xlink:href="#ArialMT-51"/>
      </g>
     </g>
    </g>
    <g id="xtick_6"/>
    <g id="xtick_7"/>
    <g id="xtick_8"/>
    <g id="xtick_9"/>
    <g id="xtick_10"/>
    <g id="xtick_11"/>
    <g id="xtick_12"/>
    <g id="xtick_13"/>
    <g id="xtick_14"/>
    <g id="xtick_15"/>
    <g id="xtick_16"/>
    <g id="xtick_17"/>
    <g id="xtick_18"/>
    <g id="xtick_19"/>
    <g id="xtick_20"/>
    <g id="xtick_21"/>
    <g id="xtick_22"/>
    <g id="xtick_23"/>
    <g id="xtick_24"/>
    <g id="xtick_25"/>
    <g id="xtick_26"/>
    <g id="xtick_27"/>
    <g id="xtick_28"/>
    <g id="xtick_29"/>
    <g id="xtick_30"/>
    <g id="xtick_31"/>
    <g id="xtick_32"/>
    <g id="xtick_33"/>
    <g id="xtick_34"/>
    <g id="xtick_35"/>
    <g id="xtick_36"/>
    <g id="xtick_37"/>
    <g id="xtick_38"/>
    <g id="xtick_39"/>
    <g id="xtick_40"/>
    <g id="xtick_41"/>
    <g id="xtick_42"/>
    <g id="xtick_43"/>
    <g id="xtick_44"/>
    <g id="xtick_45"/>
    <g id="text_6">
     <!-- Duration [mins] -->
     <defs>
      <path d="M 7.71875 0 
L 7.71875 71.578125 
L 32.375 71.578125 
Q 40.71875 71.578125 45.125 70.5625 
Q 51.265625 69.140625 55.609375 65.4375 
Q 61.28125 60.640625 64.078125 53.1875 
Q 66.890625 45.75 66.890625 36.1875 
Q 66.890625 28.03125 64.984375 21.734375 
Q 63.09375 15.4375 60.109375 11.296875 
Q 57.125 7.171875 53.578125 4.796875 
Q 50.046875 2.4375 45.046875 1.21875 
Q 40.046875 0 33.546875 0 
z
M 17.1875 8.453125 
L 32.46875 8.453125 
Q 39.546875 8.453125 43.578125 9.765625 
Q 47.609375 11.078125 50 13.484375 
Q 53.375 16.84375 55.25 22.53125 
Q 57.125 28.21875 57.125 36.328125 
Q 57.125 47.5625 53.4375 53.59375 
Q 49.75 59.625 44.484375 61.671875 
Q 40.671875 63.140625 32.234375 63.140625 
L 17.1875 63.140625 
z
" id="ArialMT-68"/>
      <path d="M 40.578125 0 
L 40.578125 7.625 
Q 34.515625 -1.171875 24.125 -1.171875 
Q 19.53125 -1.171875 15.546875 0.578125 
Q 11.578125 2.34375 9.640625 5 
Q 7.71875 7.671875 6.9375 11.53125 
Q 6.390625 14.109375 6.390625 19.734375 
L 6.390625 51.859375 
L 15.1875 51.859375 
L 15.1875 23.09375 
Q 15.1875 16.21875 15.71875 13.8125 
Q 16.546875 10.359375 19.234375 8.375 
Q 21.921875 6.390625 25.875 6.390625 
Q 29.828125 6.390625 33.296875 8.421875 
Q 36.765625 10.453125 38.203125 13.9375 
Q 39.65625 17.4375 39.65625 24.078125 
L 39.65625 51.859375 
L 48.4375 51.859375 
L 48.4375 0 
z
" id="ArialMT-117"/>
      <path d="M 6.5 0 
L 6.5 51.859375 
L 14.40625 51.859375 
L 14.40625 44 
Q 17.4375 49.515625 20 51.265625 
Q 22.5625 53.03125 25.640625 53.03125 
Q 30.078125 53.03125 34.671875 50.203125 
L 31.640625 42.046875 
Q 28.421875 43.953125 25.203125 43.953125 
Q 22.3125 43.953125 20.015625 42.21875 
Q 17.71875 40.484375 16.75 37.40625 
Q 15.28125 32.71875 15.28125 27.15625 
L 15.28125 0 
z
" id="ArialMT-114"/>
      <path d="M 40.4375 6.390625 
Q 35.546875 2.25 31.03125 0.53125 
Q 26.515625 -1.171875 21.34375 -1.171875 
Q 12.796875 -1.171875 8.203125 3 
Q 3.609375 7.171875 3.609375 13.671875 
Q 3.609375 17.484375 5.34375 20.625 
Q 7.078125 23.78125 9.890625 25.6875 
Q 12.703125 27.59375 16.21875 28.5625 
Q 18.796875 29.25 24.03125 29.890625 
Q 34.671875 31.15625 39.703125 32.90625 
Q 39.75 34.71875 39.75 35.203125 
Q 39.75 40.578125 37.25 42.78125 
Q 33.890625 45.75 27.25 45.75 
Q 21.046875 45.75 18.09375 43.578125 
Q 15.140625 41.40625 13.71875 35.890625 
L 5.125 37.0625 
Q 6.296875 42.578125 8.984375 45.96875 
Q 11.671875 49.359375 16.75 51.1875 
Q 21.828125 53.03125 28.515625 53.03125 
Q 35.15625 53.03125 39.296875 51.46875 
Q 43.453125 49.90625 45.40625 47.53125 
Q 47.359375 45.171875 48.140625 41.546875 
Q 48.578125 39.3125 48.578125 33.453125 
L 48.578125 21.734375 
Q 48.578125 9.46875 49.140625 6.21875 
Q 49.703125 2.984375 51.375 0 
L 42.1875 0 
Q 40.828125 2.734375 40.4375 6.390625 
z
M 39.703125 26.03125 
Q 34.90625 24.078125 25.34375 22.703125 
Q 19.921875 21.921875 17.671875 20.9375 
Q 15.4375 19.96875 14.203125 18.09375 
Q 12.984375 16.21875 12.984375 13.921875 
Q 12.984375 10.40625 15.640625 8.0625 
Q 18.3125 5.71875 23.4375 5.71875 
Q 28.515625 5.71875 32.46875 7.9375 
Q 36.421875 10.15625 38.28125 14.015625 
Q 39.703125 17 39.703125 22.796875 
z
" id="ArialMT-97"/>
      <path d="M 25.78125 7.859375 
L 27.046875 0.09375 
Q 23.34375 -0.6875 20.40625 -0.6875 
Q 15.625 -0.6875 12.984375 0.828125 
Q 10.359375 2.34375 9.28125 4.8125 
Q 8.203125 7.28125 8.203125 15.1875 
L 8.203125 45.015625 
L 1.765625 45.015625 
L 1.765625 51.859375 
L 8.203125 51.859375 
L 8.203125 64.703125 
L 16.9375 69.96875 
L 16.9375 51.859375 
L 25.78125 51.859375 
L 25.78125 45.015625 
L 16.9375 45.015625 
L 16.9375 14.703125 
Q 16.9375 10.9375 17.40625 9.859375 
Q 17.875 8.796875 18.921875 8.15625 
Q 19.96875 7.515625 21.921875 7.515625 
Q 23.390625 7.515625 25.78125 7.859375 
z
" id="ArialMT-116"/>
      <path d="M 6.640625 61.46875 
L 6.640625 71.578125 
L 15.4375 71.578125 
L 15.4375 61.46875 
z
M 6.640625 0 
L 6.640625 51.859375 
L 15.4375 51.859375 
L 15.4375 0 
z
" id="ArialMT-105"/>
      <path d="M 3.328125 25.921875 
Q 3.328125 40.328125 11.328125 47.265625 
Q 18.015625 53.03125 27.640625 53.03125 
Q 38.328125 53.03125 45.109375 46.015625 
Q 51.90625 39.015625 51.90625 26.65625 
Q 51.90625 16.65625 48.90625 10.90625 
Q 45.90625 5.171875 40.15625 2 
Q 34.421875 -1.171875 27.640625 -1.171875 
Q 16.75 -1.171875 10.03125 5.8125 
Q 3.328125 12.796875 3.328125 25.921875 
z
M 12.359375 25.921875 
Q 12.359375 15.96875 16.703125 11.015625 
Q 21.046875 6.0625 27.640625 6.0625 
Q 34.1875 6.0625 38.53125 11.03125 
Q 42.875 16.015625 42.875 26.21875 
Q 42.875 35.84375 38.5 40.796875 
Q 34.125 45.75 27.640625 45.75 
Q 21.046875 45.75 16.703125 40.8125 
Q 12.359375 35.890625 12.359375 25.921875 
z
" id="ArialMT-111"/>
      <path d="M 6.59375 0 
L 6.59375 51.859375 
L 14.5 51.859375 
L 14.5 44.484375 
Q 20.21875 53.03125 31 53.03125 
Q 35.6875 53.03125 39.625 51.34375 
Q 43.5625 49.65625 45.515625 46.921875 
Q 47.46875 44.1875 48.25 40.4375 
Q 48.734375 37.984375 48.734375 31.890625 
L 48.734375 0 
L 39.9375 0 
L 39.9375 31.546875 
Q 39.9375 36.921875 38.90625 39.578125 
Q 37.890625 42.234375 35.28125 43.8125 
Q 32.671875 45.40625 29.15625 45.40625 
Q 23.53125 45.40625 19.453125 41.84375 
Q 15.375 38.28125 15.375 28.328125 
L 15.375 0 
z
" id="ArialMT-110"/>
      <path id="ArialMT-32"/>
      <path d="M 6.78125 -19.875 
L 6.78125 71.578125 
L 26.171875 71.578125 
L 26.171875 64.3125 
L 15.578125 64.3125 
L 15.578125 -12.59375 
L 26.171875 -12.59375 
L 26.171875 -19.875 
z
" id="ArialMT-91"/>
      <path d="M 6.59375 0 
L 6.59375 51.859375 
L 14.453125 51.859375 
L 14.453125 44.578125 
Q 16.890625 48.390625 20.9375 50.703125 
Q 25 53.03125 30.171875 53.03125 
Q 35.9375 53.03125 39.625 50.640625 
Q 43.3125 48.25 44.828125 43.953125 
Q 50.984375 53.03125 60.84375 53.03125 
Q 68.5625 53.03125 72.703125 48.75 
Q 76.859375 44.484375 76.859375 35.59375 
L 76.859375 0 
L 68.109375 0 
L 68.109375 32.671875 
Q 68.109375 37.9375 67.25 40.25 
Q 66.40625 42.578125 64.15625 43.984375 
Q 61.921875 45.40625 58.890625 45.40625 
Q 53.421875 45.40625 49.796875 41.765625 
Q 46.1875 38.140625 46.1875 30.125 
L 46.1875 0 
L 37.40625 0 
L 37.40625 33.6875 
Q 37.40625 39.546875 35.25 42.46875 
Q 33.109375 45.40625 28.21875 45.40625 
Q 24.515625 45.40625 21.359375 43.453125 
Q 18.21875 41.5 16.796875 37.734375 
Q 15.375 33.984375 15.375 26.90625 
L 15.375 0 
z
" id="ArialMT-109"/>
      <path d="M 3.078125 15.484375 
L 11.765625 16.84375 
Q 12.5 11.625 15.84375 8.84375 
Q 19.1875 6.0625 25.203125 6.0625 
Q 31.25 6.0625 34.171875 8.515625 
Q 37.109375 10.984375 37.109375 14.3125 
Q 37.109375 17.28125 34.515625 19 
Q 32.71875 20.171875 25.53125 21.96875 
Q 15.875 24.421875 12.140625 26.203125 
Q 8.40625 27.984375 6.46875 31.125 
Q 4.546875 34.28125 4.546875 38.09375 
Q 4.546875 41.546875 6.125 44.5 
Q 7.71875 47.46875 10.453125 49.421875 
Q 12.5 50.921875 16.03125 51.96875 
Q 19.578125 53.03125 23.640625 53.03125 
Q 29.734375 53.03125 34.34375 51.265625 
Q 38.96875 49.515625 41.15625 46.5 
Q 43.359375 43.5 44.1875 38.484375 
L 35.59375 37.3125 
Q 35.015625 41.3125 32.203125 43.546875 
Q 29.390625 45.796875 24.265625 45.796875 
Q 18.21875 45.796875 15.625 43.796875 
Q 13.03125 41.796875 13.03125 39.109375 
Q 13.03125 37.40625 14.109375 36.03125 
Q 15.1875 34.625 17.484375 33.6875 
Q 18.796875 33.203125 25.25 31.453125 
Q 34.578125 28.953125 38.25 27.359375 
Q 41.9375 25.78125 44.03125 22.75 
Q 46.140625 19.734375 46.140625 15.234375 
Q 46.140625 10.84375 43.578125 6.953125 
Q 41.015625 3.078125 36.171875 0.953125 
Q 31.34375 -1.171875 25.25 -1.171875 
Q 15.140625 -1.171875 9.84375 3.03125 
Q 4.546875 7.234375 3.078125 15.484375 
z
" id="ArialMT-115"/>
      <path d="M 21.296875 -19.875 
L 1.90625 -19.875 
L 1.90625 -12.59375 
L 12.5 -12.59375 
L 12.5 64.3125 
L 1.90625 64.3125 
L 1.90625 71.578125 
L 21.296875 71.578125 
z
" id="ArialMT-93"/>
     </defs>
     <g style="fill:#262626;" transform="translate(214.65 328.898438)scale(0.12 -0.12)">
      <use xlink:href="#ArialMT-68"/>
      <use x="72.216797" xlink:href="#ArialMT-117"/>
      <use x="127.832031" xlink:href="#ArialMT-114"/>
      <use x="161.132812" xlink:href="#ArialMT-97"/>
      <use x="216.748047" xlink:href="#ArialMT-116"/>
      <use x="244.53125" xlink:href="#ArialMT-105"/>
      <use x="266.748047" xlink:href="#ArialMT-111"/>
      <use x="322.363281" xlink:href="#ArialMT-110"/>
      <use x="377.978516" xlink:href="#ArialMT-32"/>
      <use x="405.761719" xlink:href="#ArialMT-91"/>
      <use x="433.544922" xlink:href="#ArialMT-109"/>
      <use x="516.845703" xlink:href="#ArialMT-105"/>
      <use x="539.0625" xlink:href="#ArialMT-110"/>
      <use x="594.677734" xlink:href="#ArialMT-115"/>
      <use x="644.677734" xlink:href="#ArialMT-93"/>
     </g>
    </g>
   </g>
   <g id="matplotlib.axis_2">
    <g id="ytick_1">
     <g id="line2d_6">
      <path clip-path="url(#pa5019a3e58)" d="M 62.150625 292.09749 
L 447.84 292.09749 
" style="fill:none;stroke:#ffffff;stroke-linecap:round;"/>
     </g>
     <g id="text_7">
      <!-- 0 -->
      <g style="fill:#262626;" transform="translate(46.533594 296.034287)scale(0.11 -0.11)">
       <use xlink:href="#ArialMT-48"/>
      </g>
     </g>
    </g>
    <g id="ytick_2">
     <g id="line2d_7">
      <path clip-path="url(#pa5019a3e58)" d="M 62.150625 263.042416 
L 447.84 263.042416 
" style="fill:none;stroke:#ffffff;stroke-linecap:round;"/>
     </g>
     <g id="text_8">
      <!-- 200 -->
      <g style="fill:#262626;" transform="translate(34.299531 266.979213)scale(0.11 -0.11)">
       <use xlink:href="#ArialMT-50"/>
       <use x="55.615234" xlink:href="#ArialMT-48"/>
       <use x="111.230469" xlink:href="#ArialMT-48"/>
      </g>
     </g>
    </g>
    <g id="ytick_3">
     <g id="line2d_8">
      <path clip-path="url(#pa5019a3e58)" d="M 62.150625 233.987341 
L 447.84 233.987341 
" style="fill:none;stroke:#ffffff;stroke-linecap:round;"/>
     </g>
     <g id="text_9">
      <!-- 400 -->
      <defs>
       <path d="M 32.328125 0 
L 32.328125 17.140625 
L 1.265625 17.140625 
L 1.265625 25.203125 
L 33.9375 71.578125 
L 41.109375 71.578125 
L 41.109375 25.203125 
L 50.78125 25.203125 
L 50.78125 17.140625 
L 41.109375 17.140625 
L 41.109375 0 
z
M 32.328125 25.203125 
L 32.328125 57.46875 
L 9.90625 25.203125 
z
" id="ArialMT-52"/>
      </defs>
      <g style="fill:#262626;" transform="translate(34.299531 237.924138)scale(0.11 -0.11)">
       <use xlink:href="#ArialMT-52"/>
       <use x="55.615234" xlink:href="#ArialMT-48"/>
       <use x="111.230469" xlink:href="#ArialMT-48"/>
      </g>
     </g>
    </g>
    <g id="ytick_4">
     <g id="line2d_9">
      <path clip-path="url(#pa5019a3e58)" d="M 62.150625 204.932267 
L 447.84 204.932267 
" style="fill:none;stroke:#ffffff;stroke-linecap:round;"/>
     </g>
     <g id="text_10">
      <!-- 600 -->
      <defs>
       <path d="M 49.75 54.046875 
L 41.015625 53.375 
Q 39.84375 58.546875 37.703125 60.890625 
Q 34.125 64.65625 28.90625 64.65625 
Q 24.703125 64.65625 21.53125 62.3125 
Q 17.390625 59.28125 14.984375 53.46875 
Q 12.59375 47.65625 12.5 36.921875 
Q 15.671875 41.75 20.265625 44.09375 
Q 24.859375 46.4375 29.890625 46.4375 
Q 38.671875 46.4375 44.84375 39.96875 
Q 51.03125 33.5 51.03125 23.25 
Q 51.03125 16.5 48.125 10.71875 
Q 45.21875 4.9375 40.140625 1.859375 
Q 35.0625 -1.21875 28.609375 -1.21875 
Q 17.625 -1.21875 10.6875 6.859375 
Q 3.765625 14.9375 3.765625 33.5 
Q 3.765625 54.25 11.421875 63.671875 
Q 18.109375 71.875 29.4375 71.875 
Q 37.890625 71.875 43.28125 67.140625 
Q 48.6875 62.40625 49.75 54.046875 
z
M 13.875 23.1875 
Q 13.875 18.65625 15.796875 14.5 
Q 17.71875 10.359375 21.1875 8.171875 
Q 24.65625 6 28.46875 6 
Q 34.03125 6 38.03125 10.484375 
Q 42.046875 14.984375 42.046875 22.703125 
Q 42.046875 30.125 38.078125 34.390625 
Q 34.125 38.671875 28.125 38.671875 
Q 22.171875 38.671875 18.015625 34.390625 
Q 13.875 30.125 13.875 23.1875 
z
" id="ArialMT-54"/>
      </defs>
      <g style="fill:#262626;" transform="translate(34.299531 208.869064)scale(0.11 -0.11)">
       <use xlink:href="#ArialMT-54"/>
       <use x="55.615234" xlink:href="#ArialMT-48"/>
       <use x="111.230469" xlink:href="#ArialMT-48"/>
      </g>
     </g>
    </g>
    <g id="ytick_5">
     <g id="line2d_10">
      <path clip-path="url(#pa5019a3e58)" d="M 62.150625 175.877193 
L 447.84 175.877193 
" style="fill:none;stroke:#ffffff;stroke-linecap:round;"/>
     </g>
     <g id="text_11">
      <!-- 800 -->
      <defs>
       <path d="M 17.671875 38.8125 
Q 12.203125 40.828125 9.5625 44.53125 
Q 6.9375 48.25 6.9375 53.421875 
Q 6.9375 61.234375 12.546875 66.546875 
Q 18.171875 71.875 27.484375 71.875 
Q 36.859375 71.875 42.578125 66.421875 
Q 48.296875 60.984375 48.296875 53.171875 
Q 48.296875 48.1875 45.671875 44.5 
Q 43.0625 40.828125 37.75 38.8125 
Q 44.34375 36.671875 47.78125 31.875 
Q 51.21875 27.09375 51.21875 20.453125 
Q 51.21875 11.28125 44.71875 5.03125 
Q 38.234375 -1.21875 27.640625 -1.21875 
Q 17.046875 -1.21875 10.546875 5.046875 
Q 4.046875 11.328125 4.046875 20.703125 
Q 4.046875 27.6875 7.59375 32.390625 
Q 11.140625 37.109375 17.671875 38.8125 
z
M 15.921875 53.71875 
Q 15.921875 48.640625 19.1875 45.40625 
Q 22.46875 42.1875 27.6875 42.1875 
Q 32.765625 42.1875 36.015625 45.375 
Q 39.265625 48.578125 39.265625 53.21875 
Q 39.265625 58.0625 35.90625 61.359375 
Q 32.5625 64.65625 27.59375 64.65625 
Q 22.5625 64.65625 19.234375 61.421875 
Q 15.921875 58.203125 15.921875 53.71875 
z
M 13.09375 20.65625 
Q 13.09375 16.890625 14.875 13.375 
Q 16.65625 9.859375 20.171875 7.921875 
Q 23.6875 6 27.734375 6 
Q 34.03125 6 38.125 10.046875 
Q 42.234375 14.109375 42.234375 20.359375 
Q 42.234375 26.703125 38.015625 30.859375 
Q 33.796875 35.015625 27.4375 35.015625 
Q 21.234375 35.015625 17.15625 30.90625 
Q 13.09375 26.8125 13.09375 20.65625 
z
" id="ArialMT-56"/>
      </defs>
      <g style="fill:#262626;" transform="translate(34.299531 179.813989)scale(0.11 -0.11)">
       <use xlink:href="#ArialMT-56"/>
       <use x="55.615234" xlink:href="#ArialMT-48"/>
       <use x="111.230469" xlink:href="#ArialMT-48"/>
      </g>
     </g>
    </g>
    <g id="ytick_6">
     <g id="line2d_11">
      <path clip-path="url(#pa5019a3e58)" d="M 62.150625 146.822118 
L 447.84 146.822118 
" style="fill:none;stroke:#ffffff;stroke-linecap:round;"/>
     </g>
     <g id="text_12">
      <!-- 1000 -->
      <g style="fill:#262626;" transform="translate(28.1825 150.758915)scale(0.11 -0.11)">
       <use xlink:href="#ArialMT-49"/>
       <use x="55.615234" xlink:href="#ArialMT-48"/>
       <use x="111.230469" xlink:href="#ArialMT-48"/>
       <use x="166.845703" xlink:href="#ArialMT-48"/>
      </g>
     </g>
    </g>
    <g id="ytick_7">
     <g id="line2d_12">
      <path clip-path="url(#pa5019a3e58)" d="M 62.150625 117.767044 
L 447.84 117.767044 
" style="fill:none;stroke:#ffffff;stroke-linecap:round;"/>
     </g>
     <g id="text_13">
      <!-- 1200 -->
      <g style="fill:#262626;" transform="translate(28.1825 121.703841)scale(0.11 -0.11)">
       <use xlink:href="#ArialMT-49"/>
       <use x="55.615234" xlink:href="#ArialMT-50"/>
       <use x="111.230469" xlink:href="#ArialMT-48"/>
       <use x="166.845703" xlink:href="#ArialMT-48"/>
      </g>
     </g>
    </g>
    <g id="ytick_8">
     <g id="line2d_13">
      <path clip-path="url(#pa5019a3e58)" d="M 62.150625 88.711969 
L 447.84 88.711969 
" style="fill:none;stroke:#ffffff;stroke-linecap:round;"/>
     </g>
     <g id="text_14">
      <!-- 1400 -->
      <g style="fill:#262626;" transform="translate(28.1825 92.648766)scale(0.11 -0.11)">
       <use xlink:href="#ArialMT-49"/>
       <use x="55.615234" xlink:href="#ArialMT-52"/>
       <use x="111.230469" xlink:href="#ArialMT-48"/>
       <use x="166.845703" xlink:href="#ArialMT-48"/>
      </g>
     </g>
    </g>
    <g id="ytick_9">
     <g id="line2d_14">
      <path clip-path="url(#pa5019a3e58)" d="M 62.150625 59.656895 
L 447.84 59.656895 
" style="fill:none;stroke:#ffffff;stroke-linecap:round;"/>
     </g>
     <g id="text_15">
      <!-- 1600 -->
      <g style="fill:#262626;" transform="translate(28.1825 63.593692)scale(0.11 -0.11)">
       <use xlink:href="#ArialMT-49"/>
       <use x="55.615234" xlink:href="#ArialMT-54"/>
       <use x="111.230469" xlink:href="#ArialMT-48"/>
       <use x="166.845703" xlink:href="#ArialMT-48"/>
      </g>
     </g>
    </g>
    <g id="text_16">
     <!-- Maximum Sustainable Power [W] -->
     <defs>
      <path d="M 7.421875 0 
L 7.421875 71.578125 
L 21.6875 71.578125 
L 38.625 20.90625 
Q 40.96875 13.8125 42.046875 10.296875 
Q 43.265625 14.203125 45.84375 21.78125 
L 62.984375 71.578125 
L 75.734375 71.578125 
L 75.734375 0 
L 66.609375 0 
L 66.609375 59.90625 
L 45.796875 0 
L 37.25 0 
L 16.546875 60.9375 
L 16.546875 0 
z
" id="ArialMT-77"/>
      <path d="M 0.734375 0 
L 19.671875 26.953125 
L 2.15625 51.859375 
L 13.140625 51.859375 
L 21.09375 39.703125 
Q 23.34375 36.234375 24.703125 33.890625 
Q 26.859375 37.109375 28.65625 39.59375 
L 37.40625 51.859375 
L 47.90625 51.859375 
L 29.984375 27.4375 
L 49.265625 0 
L 38.484375 0 
L 27.828125 16.109375 
L 25 20.453125 
L 11.375 0 
z
" id="ArialMT-120"/>
      <path d="M 4.5 23 
L 13.421875 23.78125 
Q 14.0625 18.40625 16.375 14.96875 
Q 18.703125 11.53125 23.578125 9.40625 
Q 28.46875 7.28125 34.578125 7.28125 
Q 39.984375 7.28125 44.140625 8.890625 
Q 48.296875 10.5 50.3125 13.296875 
Q 52.34375 16.109375 52.34375 19.4375 
Q 52.34375 22.796875 50.390625 25.3125 
Q 48.4375 27.828125 43.953125 29.546875 
Q 41.0625 30.671875 31.203125 33.03125 
Q 21.34375 35.40625 17.390625 37.5 
Q 12.25 40.1875 9.734375 44.15625 
Q 7.234375 48.140625 7.234375 53.078125 
Q 7.234375 58.5 10.296875 63.203125 
Q 13.375 67.921875 19.28125 70.359375 
Q 25.203125 72.796875 32.421875 72.796875 
Q 40.375 72.796875 46.453125 70.234375 
Q 52.546875 67.671875 55.8125 62.6875 
Q 59.078125 57.71875 59.328125 51.421875 
L 50.25 50.734375 
Q 49.515625 57.515625 45.28125 60.984375 
Q 41.0625 64.453125 32.8125 64.453125 
Q 24.21875 64.453125 20.28125 61.296875 
Q 16.359375 58.15625 16.359375 53.71875 
Q 16.359375 49.859375 19.140625 47.359375 
Q 21.875 44.875 33.421875 42.265625 
Q 44.96875 39.65625 49.265625 37.703125 
Q 55.515625 34.8125 58.484375 30.390625 
Q 61.46875 25.984375 61.46875 20.21875 
Q 61.46875 14.5 58.203125 9.4375 
Q 54.9375 4.390625 48.796875 1.578125 
Q 42.671875 -1.21875 35.015625 -1.21875 
Q 25.296875 -1.21875 18.71875 1.609375 
Q 12.15625 4.4375 8.421875 10.125 
Q 4.6875 15.828125 4.5 23 
z
" id="ArialMT-83"/>
      <path d="M 14.703125 0 
L 6.546875 0 
L 6.546875 71.578125 
L 15.328125 71.578125 
L 15.328125 46.046875 
Q 20.90625 53.03125 29.546875 53.03125 
Q 34.328125 53.03125 38.59375 51.09375 
Q 42.875 49.171875 45.625 45.671875 
Q 48.390625 42.1875 49.953125 37.25 
Q 51.515625 32.328125 51.515625 26.703125 
Q 51.515625 13.375 44.921875 6.09375 
Q 38.328125 -1.171875 29.109375 -1.171875 
Q 19.921875 -1.171875 14.703125 6.5 
z
M 14.59375 26.3125 
Q 14.59375 17 17.140625 12.84375 
Q 21.296875 6.0625 28.375 6.0625 
Q 34.125 6.0625 38.328125 11.0625 
Q 42.53125 16.0625 42.53125 25.984375 
Q 42.53125 36.140625 38.5 40.96875 
Q 34.46875 45.796875 28.765625 45.796875 
Q 23 45.796875 18.796875 40.796875 
Q 14.59375 35.796875 14.59375 26.3125 
z
" id="ArialMT-98"/>
      <path d="M 6.390625 0 
L 6.390625 71.578125 
L 15.1875 71.578125 
L 15.1875 0 
z
" id="ArialMT-108"/>
      <path d="M 42.09375 16.703125 
L 51.171875 15.578125 
Q 49.03125 7.625 43.21875 3.21875 
Q 37.40625 -1.171875 28.375 -1.171875 
Q 17 -1.171875 10.328125 5.828125 
Q 3.65625 12.84375 3.65625 25.484375 
Q 3.65625 38.578125 10.390625 45.796875 
Q 17.140625 53.03125 27.875 53.03125 
Q 38.28125 53.03125 44.875 45.953125 
Q 51.46875 38.875 51.46875 26.03125 
Q 51.46875 25.25 51.421875 23.6875 
L 12.75 23.6875 
Q 13.234375 15.140625 17.578125 10.59375 
Q 21.921875 6.0625 28.421875 6.0625 
Q 33.25 6.0625 36.671875 8.59375 
Q 40.09375 11.140625 42.09375 16.703125 
z
M 13.234375 30.90625 
L 42.1875 30.90625 
Q 41.609375 37.453125 38.875 40.71875 
Q 34.671875 45.796875 27.984375 45.796875 
Q 21.921875 45.796875 17.796875 41.75 
Q 13.671875 37.703125 13.234375 30.90625 
z
" id="ArialMT-101"/>
      <path d="M 7.71875 0 
L 7.71875 71.578125 
L 34.71875 71.578125 
Q 41.84375 71.578125 45.609375 70.90625 
Q 50.875 70.015625 54.4375 67.546875 
Q 58.015625 65.09375 60.1875 60.640625 
Q 62.359375 56.203125 62.359375 50.875 
Q 62.359375 41.75 56.546875 35.421875 
Q 50.734375 29.109375 35.546875 29.109375 
L 17.1875 29.109375 
L 17.1875 0 
z
M 17.1875 37.546875 
L 35.6875 37.546875 
Q 44.875 37.546875 48.734375 40.96875 
Q 52.59375 44.390625 52.59375 50.59375 
Q 52.59375 55.078125 50.3125 58.265625 
Q 48.046875 61.46875 44.34375 62.5 
Q 41.9375 63.140625 35.5 63.140625 
L 17.1875 63.140625 
z
" id="ArialMT-80"/>
      <path d="M 16.15625 0 
L 0.296875 51.859375 
L 9.375 51.859375 
L 17.625 21.921875 
L 20.703125 10.796875 
Q 20.90625 11.625 23.390625 21.484375 
L 31.640625 51.859375 
L 40.671875 51.859375 
L 48.4375 21.78125 
L 51.03125 11.859375 
L 54 21.875 
L 62.890625 51.859375 
L 71.4375 51.859375 
L 55.21875 0 
L 46.09375 0 
L 37.84375 31.0625 
L 35.84375 39.890625 
L 25.34375 0 
z
" id="ArialMT-119"/>
      <path d="M 20.21875 0 
L 1.21875 71.578125 
L 10.9375 71.578125 
L 21.828125 24.65625 
Q 23.578125 17.28125 24.859375 10.015625 
Q 27.59375 21.484375 28.078125 23.25 
L 41.703125 71.578125 
L 53.125 71.578125 
L 63.375 35.359375 
Q 67.234375 21.875 68.953125 10.015625 
Q 70.3125 16.796875 72.515625 25.59375 
L 83.734375 71.578125 
L 93.265625 71.578125 
L 73.640625 0 
L 64.5 0 
L 49.421875 54.546875 
Q 47.515625 61.375 47.171875 62.9375 
Q 46.046875 58.015625 45.0625 54.546875 
L 29.890625 0 
z
" id="ArialMT-87"/>
     </defs>
     <g style="fill:#262626;" transform="translate(21.7975 255.267281)rotate(-90)scale(0.12 -0.12)">
      <use xlink:href="#ArialMT-77"/>
      <use x="83.300781" xlink:href="#ArialMT-97"/>
      <use x="138.916016" xlink:href="#ArialMT-120"/>
      <use x="188.916016" xlink:href="#ArialMT-105"/>
      <use x="211.132812" xlink:href="#ArialMT-109"/>
      <use x="294.433594" xlink:href="#ArialMT-117"/>
      <use x="350.048828" xlink:href="#ArialMT-109"/>
      <use x="433.349609" xlink:href="#ArialMT-32"/>
      <use x="461.132812" xlink:href="#ArialMT-83"/>
      <use x="527.832031" xlink:href="#ArialMT-117"/>
      <use x="583.447266" xlink:href="#ArialMT-115"/>
      <use x="633.447266" xlink:href="#ArialMT-116"/>
      <use x="661.230469" xlink:href="#ArialMT-97"/>
      <use x="716.845703" xlink:href="#ArialMT-105"/>
      <use x="739.0625" xlink:href="#ArialMT-110"/>
      <use x="794.677734" xlink:href="#ArialMT-97"/>
      <use x="850.292969" xlink:href="#ArialMT-98"/>
      <use x="905.908203" xlink:href="#ArialMT-108"/>
      <use x="928.125" xlink:href="#ArialMT-101"/>
      <use x="983.740234" xlink:href="#ArialMT-32"/>
      <use x="1011.523438" xlink:href="#ArialMT-80"/>
      <use x="1078.222656" xlink:href="#ArialMT-111"/>
      <use x="1133.837891" xlink:href="#ArialMT-119"/>
      <use x="1206.054688" xlink:href="#ArialMT-101"/>
      <use x="1261.669922" xlink:href="#ArialMT-114"/>
      <use x="1294.970703" xlink:href="#ArialMT-32"/>
      <use x="1322.753906" xlink:href="#ArialMT-91"/>
      <use x="1350.537109" xlink:href="#ArialMT-87"/>
      <use x="1444.921875" xlink:href="#ArialMT-93"/>
     </g>
    </g>
   </g>
   <g id="line2d_15">
    <defs>
     <path d="M 0 1.5 
C 0.397805 1.5 0.77937 1.341951 1.06066 1.06066 
C 1.341951 0.77937 1.5 0.397805 1.5 0 
C 1.5 -0.397805 1.341951 -0.77937 1.06066 -1.06066 
C 0.77937 -1.341951 0.397805 -1.5 0 -1.5 
C -0.397805 -1.5 -0.77937 -1.341951 -1.06066 -1.06066 
C -1.341951 -0.77937 -1.5 -0.397805 -1.5 0 
C -1.5 0.397805 -1.341951 0.77937 -1.06066 1.06066 
C -0.77937 1.341951 -0.397805 1.5 0 1.5 
z
" id="m435e860ff3" style="stroke:#4c72b0;"/>
    </defs>
    <g clip-path="url(#pa5019a3e58)">
     <use style="fill:#4c72b0;stroke:#4c72b0;" x="80.307549" xlink:href="#m435e860ff3" y="185.696524"/>
     <use style="fill:#4c72b0;stroke:#4c72b0;" x="83.22874" xlink:href="#m435e860ff3" y="188.853813"/>
     <use style="fill:#4c72b0;stroke:#4c72b0;" x="85.732367" xlink:href="#m435e860ff3" y="191.83217"/>
     <use style="fill:#4c72b0;stroke:#4c72b0;" x="88.444706" xlink:href="#m435e860ff3" y="194.975441"/>
     <use style="fill:#4c72b0;stroke:#4c72b0;" x="91.365761" xlink:href="#m435e860ff3" y="198.280329"/>
     <use style="fill:#4c72b0;stroke:#4c72b0;" x="94.28698" xlink:href="#m435e860ff3" y="201.407109"/>
     <use style="fill:#4c72b0;stroke:#4c72b0;" x="97.208309" xlink:href="#m435e860ff3" y="204.41515"/>
     <use style="fill:#4c72b0;stroke:#4c72b0;" x="100.338482" xlink:href="#m435e860ff3" y="207.445455"/>
     <use style="fill:#4c72b0;stroke:#4c72b0;" x="103.886181" xlink:href="#m435e860ff3" y="210.695097"/>
     <use style="fill:#4c72b0;stroke:#4c72b0;" x="107.64276" xlink:href="#m435e860ff3" y="213.927422"/>
     <use style="fill:#4c72b0;stroke:#4c72b0;" x="111.399581" xlink:href="#m435e860ff3" y="216.898083"/>
     <use style="fill:#4c72b0;stroke:#4c72b0;" x="115.365274" xlink:href="#m435e860ff3" y="219.861048"/>
     <use style="fill:#4c72b0;stroke:#4c72b0;" x="119.748588" xlink:href="#m435e860ff3" y="222.940152"/>
     <use style="fill:#4c72b0;stroke:#4c72b0;" x="124.341005" xlink:href="#m435e860ff3" y="225.761091"/>
     <use style="fill:#4c72b0;stroke:#4c72b0;" x="128.933596" xlink:href="#m435e860ff3" y="228.393127"/>
     <use style="fill:#4c72b0;stroke:#4c72b0;" x="133.526396" xlink:href="#m435e860ff3" y="230.798481"/>
     <use style="fill:#4c72b0;stroke:#4c72b0;" x="138.119417" xlink:href="#m435e860ff3" y="232.964558"/>
     <use style="fill:#4c72b0;stroke:#4c72b0;" x="142.712624" xlink:href="#m435e860ff3" y="234.929141"/>
     <use style="fill:#4c72b0;stroke:#4c72b0;" x="147.306004" xlink:href="#m435e860ff3" y="236.704821"/>
     <use style="fill:#4c72b0;stroke:#4c72b0;" x="151.899571" xlink:href="#m435e860ff3" y="238.279005"/>
     <use style="fill:#4c72b0;stroke:#4c72b0;" x="156.493323" xlink:href="#m435e860ff3" y="239.651694"/>
     <use style="fill:#4c72b0;stroke:#4c72b0;" x="161.087192" xlink:href="#m435e860ff3" y="240.898448"/>
     <use style="fill:#4c72b0;stroke:#4c72b0;" x="165.681246" xlink:href="#m435e860ff3" y="241.943706"/>
     <use style="fill:#4c72b0;stroke:#4c72b0;" x="170.136194" xlink:href="#m435e860ff3" y="242.841497"/>
     <use style="fill:#4c72b0;stroke:#4c72b0;" x="174.86975" xlink:href="#m435e860ff3" y="243.606045"/>
     <use style="fill:#4c72b0;stroke:#4c72b0;" x="179.464187" xlink:href="#m435e860ff3" y="244.235719"/>
     <use style="fill:#4c72b0;stroke:#4c72b0;" x="184.05873" xlink:href="#m435e860ff3" y="244.752051"/>
     <use style="fill:#4c72b0;stroke:#4c72b0;" x="188.65333" xlink:href="#m435e860ff3" y="245.205416"/>
     <use style="fill:#4c72b0;stroke:#4c72b0;" x="193.247872" xlink:href="#m435e860ff3" y="245.721749"/>
     <use style="fill:#4c72b0;stroke:#4c72b0;" x="197.842426" xlink:href="#m435e860ff3" y="246.225488"/>
     <use style="fill:#4c72b0;stroke:#4c72b0;" x="202.436968" xlink:href="#m435e860ff3" y="246.74182"/>
     <use style="fill:#4c72b0;stroke:#4c72b0;" x="207.031521" xlink:href="#m435e860ff3" y="247.245559"/>
     <use style="fill:#4c72b0;stroke:#4c72b0;" x="211.626075" xlink:href="#m435e860ff3" y="247.749298"/>
     <use style="fill:#4c72b0;stroke:#4c72b0;" x="216.220571" xlink:href="#m435e860ff3" y="248.316005"/>
     <use style="fill:#4c72b0;stroke:#4c72b0;" x="220.815078" xlink:href="#m435e860ff3" y="248.870118"/>
     <use style="fill:#4c72b0;stroke:#4c72b0;" x="225.409585" xlink:href="#m435e860ff3" y="249.42423"/>
     <use style="fill:#4c72b0;stroke:#4c72b0;" x="230.004046" xlink:href="#m435e860ff3" y="250.028717"/>
     <use style="fill:#4c72b0;stroke:#4c72b0;" x="234.598449" xlink:href="#m435e860ff3" y="250.696171"/>
     <use style="fill:#4c72b0;stroke:#4c72b0;" x="239.19284" xlink:href="#m435e860ff3" y="251.376219"/>
     <use style="fill:#4c72b0;stroke:#4c72b0;" x="243.78715" xlink:href="#m435e860ff3" y="252.144421"/>
     <use style="fill:#4c72b0;stroke:#4c72b0;" x="248.381448" xlink:href="#m435e860ff3" y="252.925217"/>
     <use style="fill:#4c72b0;stroke:#4c72b0;" x="252.975619" xlink:href="#m435e860ff3" y="253.84454"/>
     <use style="fill:#4c72b0;stroke:#4c72b0;" x="257.569696" xlink:href="#m435e860ff3" y="254.864612"/>
     <use style="fill:#4c72b0;stroke:#4c72b0;" x="262.163716" xlink:href="#m435e860ff3" y="255.947651"/>
     <use style="fill:#4c72b0;stroke:#4c72b0;" x="266.757631" xlink:href="#m435e860ff3" y="257.144031"/>
     <use style="fill:#4c72b0;stroke:#4c72b0;" x="271.351534" xlink:href="#m435e860ff3" y="258.353004"/>
     <use style="fill:#4c72b0;stroke:#4c72b0;" x="274.275002" xlink:href="#m435e860ff3" y="259.041448"/>
     <use style="fill:#4c72b0;stroke:#4c72b0;" x="290.144516" xlink:href="#m435e860ff3" y="263.579296"/>
     <use style="fill:#4c72b0;stroke:#4c72b0;" x="294.111995" xlink:href="#m435e860ff3" y="264.605665"/>
     <use style="fill:#4c72b0;stroke:#4c72b0;" x="301.002705" xlink:href="#m435e860ff3" y="266.576544"/>
     <use style="fill:#4c72b0;stroke:#4c72b0;" x="304.970169" xlink:href="#m435e860ff3" y="267.618654"/>
     <use style="fill:#4c72b0;stroke:#4c72b0;" x="311.860998" xlink:href="#m435e860ff3" y="269.460449"/>
     <use style="fill:#4c72b0;stroke:#4c72b0;" x="315.828518" xlink:href="#m435e860ff3" y="270.441166"/>
     <use style="fill:#4c72b0;stroke:#4c72b0;" x="322.71943" xlink:href="#m435e860ff3" y="272.193233"/>
     <use style="fill:#4c72b0;stroke:#4c72b0;" x="326.895943" xlink:href="#m435e860ff3" y="273.034851"/>
     <use style="fill:#4c72b0;stroke:#4c72b0;" x="333.995753" xlink:href="#m435e860ff3" y="274.749709"/>
     <use style="fill:#4c72b0;stroke:#4c72b0;" x="337.963345" xlink:href="#m435e860ff3" y="275.653291"/>
     <use style="fill:#4c72b0;stroke:#4c72b0;" x="344.854534" xlink:href="#m435e860ff3" y="277.104689"/>
     <use style="fill:#4c72b0;stroke:#4c72b0;" x="349.031107" xlink:href="#m435e860ff3" y="277.881286"/>
     <use style="fill:#4c72b0;stroke:#4c72b0;" x="356.285502" xlink:href="#m435e860ff3" y="279.217629"/>
     <use style="fill:#4c72b0;stroke:#4c72b0;" x="361.37942" xlink:href="#m435e860ff3" y="280.170218"/>
     <use style="fill:#4c72b0;stroke:#4c72b0;" x="367.408122" xlink:href="#m435e860ff3" y="281.197568"/>
     <use style="fill:#4c72b0;stroke:#4c72b0;" x="371.584864" xlink:href="#m435e860ff3" y="281.790861"/>
    </g>
   </g>
   <g id="line2d_16">
    <defs>
     <path d="M 0 1.5 
C 0.397805 1.5 0.77937 1.341951 1.06066 1.06066 
C 1.341951 0.77937 1.5 0.397805 1.5 0 
C 1.5 -0.397805 1.341951 -0.77937 1.06066 -1.06066 
C 0.77937 -1.341951 0.397805 -1.5 0 -1.5 
C -0.397805 -1.5 -0.77937 -1.341951 -1.06066 -1.06066 
C -1.341951 -0.77937 -1.5 -0.397805 -1.5 0 
C -1.5 0.397805 -1.341951 0.77937 -1.06066 1.06066 
C -0.77937 1.341951 -0.397805 1.5 0 1.5 
z
" id="m4f457515e6" style="stroke:#dd8452;"/>
    </defs>
    <g clip-path="url(#pa5019a3e58)">
     <use style="fill:#dd8452;stroke:#dd8452;" x="79.68196" xlink:href="#m4f457515e6" y="145.255215"/>
     <use style="fill:#dd8452;stroke:#dd8452;" x="80.915579" xlink:href="#m4f457515e6" y="148.226002"/>
     <use style="fill:#dd8452;stroke:#dd8452;" x="82.010178" xlink:href="#m4f457515e6" y="151.306892"/>
     <use style="fill:#dd8452;stroke:#dd8452;" x="83.677772" xlink:href="#m4f457515e6" y="154.908625"/>
     <use style="fill:#dd8452;stroke:#dd8452;" x="85.763399" xlink:href="#m4f457515e6" y="158.181355"/>
     <use style="fill:#dd8452;stroke:#dd8452;" x="87.640119" xlink:href="#m4f457515e6" y="161.499106"/>
     <use style="fill:#dd8452;stroke:#dd8452;" x="89.725621" xlink:href="#m4f457515e6" y="164.9069"/>
     <use style="fill:#dd8452;stroke:#dd8452;" x="91.811353" xlink:href="#m4f457515e6" y="168.065344"/>
     <use style="fill:#dd8452;stroke:#dd8452;" x="93.89729" xlink:href="#m4f457515e6" y="171.002142"/>
     <use style="fill:#dd8452;stroke:#dd8452;" x="96.191984" xlink:href="#m4f457515e6" y="174.054381"/>
     <use style="fill:#dd8452;stroke:#dd8452;" x="98.695569" xlink:href="#m4f457515e6" y="177.078914"/>
     <use style="fill:#dd8452;stroke:#dd8452;" x="101.19926" xlink:href="#m4f457515e6" y="179.988006"/>
     <use style="fill:#dd8452;stroke:#dd8452;" x="103.911809" xlink:href="#m4f457515e6" y="182.903696"/>
     <use style="fill:#dd8452;stroke:#dd8452;" x="107.041833" xlink:href="#m4f457515e6" y="186.094792"/>
     <use style="fill:#dd8452;stroke:#dd8452;" x="110.380774" xlink:href="#m4f457515e6" y="189.228994"/>
     <use style="fill:#dd8452;stroke:#dd8452;" x="113.928594" xlink:href="#m4f457515e6" y="192.347803"/>
     <use style="fill:#dd8452;stroke:#dd8452;" x="117.685316" xlink:href="#m4f457515e6" y="195.426208"/>
     <use style="fill:#dd8452;stroke:#dd8452;" x="121.65097" xlink:href="#m4f457515e6" y="198.430731"/>
     <use style="fill:#dd8452;stroke:#dd8452;" x="125.825487" xlink:href="#m4f457515e6" y="201.436793"/>
     <use style="fill:#dd8452;stroke:#dd8452;" x="130.209022" xlink:href="#m4f457515e6" y="204.276622"/>
     <use style="fill:#dd8452;stroke:#dd8452;" x="134.801462" xlink:href="#m4f457515e6" y="207.072374"/>
     <use style="fill:#dd8452;stroke:#dd8452;" x="139.394054" xlink:href="#m4f457515e6" y="209.70441"/>
     <use style="fill:#dd8452;stroke:#dd8452;" x="143.986842" xlink:href="#m4f457515e6" y="212.122357"/>
     <use style="fill:#dd8452;stroke:#dd8452;" x="148.579782" xlink:href="#m4f457515e6" y="214.376589"/>
     <use style="fill:#dd8452;stroke:#dd8452;" x="153.17286" xlink:href="#m4f457515e6" y="216.479699"/>
     <use style="fill:#dd8452;stroke:#dd8452;" x="157.766102" xlink:href="#m4f457515e6" y="218.406501"/>
     <use style="fill:#dd8452;stroke:#dd8452;" x="162.359401" xlink:href="#m4f457515e6" y="220.270336"/>
     <use style="fill:#dd8452;stroke:#dd8452;" x="166.952875" xlink:href="#m4f457515e6" y="221.945268"/>
     <use style="fill:#dd8452;stroke:#dd8452;" x="171.546395" xlink:href="#m4f457515e6" y="223.569826"/>
     <use style="fill:#dd8452;stroke:#dd8452;" x="176.140101" xlink:href="#m4f457515e6" y="224.992889"/>
     <use style="fill:#dd8452;stroke:#dd8452;" x="180.733807" xlink:href="#m4f457515e6" y="226.415951"/>
     <use style="fill:#dd8452;stroke:#dd8452;" x="185.327687" xlink:href="#m4f457515e6" y="227.650112"/>
     <use style="fill:#dd8452;stroke:#dd8452;" x="189.921567" xlink:href="#m4f457515e6" y="228.884273"/>
     <use style="fill:#dd8452;stroke:#dd8452;" x="194.515575" xlink:href="#m4f457515e6" y="229.979905"/>
     <use style="fill:#dd8452;stroke:#dd8452;" x="199.109641" xlink:href="#m4f457515e6" y="231.01257"/>
     <use style="fill:#dd8452;stroke:#dd8452;" x="203.703812" xlink:href="#m4f457515e6" y="231.931893"/>
     <use style="fill:#dd8452;stroke:#dd8452;" x="208.298017" xlink:href="#m4f457515e6" y="232.813437"/>
     <use style="fill:#dd8452;stroke:#dd8452;" x="212.892327" xlink:href="#m4f457515e6" y="233.581639"/>
     <use style="fill:#dd8452;stroke:#dd8452;" x="217.486672" xlink:href="#m4f457515e6" y="234.31206"/>
     <use style="fill:#dd8452;stroke:#dd8452;" x="222.081063" xlink:href="#m4f457515e6" y="234.992108"/>
     <use style="fill:#dd8452;stroke:#dd8452;" x="226.675547" xlink:href="#m4f457515e6" y="235.571408"/>
     <use style="fill:#dd8452;stroke:#dd8452;" x="231.270066" xlink:href="#m4f457515e6" y="236.112927"/>
     <use style="fill:#dd8452;stroke:#dd8452;" x="235.864643" xlink:href="#m4f457515e6" y="236.591479"/>
     <use style="fill:#dd8452;stroke:#dd8452;" x="240.459266" xlink:href="#m4f457515e6" y="237.019657"/>
     <use style="fill:#dd8452;stroke:#dd8452;" x="245.054187" xlink:href="#m4f457515e6" y="237.124803"/>
     <use style="fill:#dd8452;stroke:#dd8452;" x="249.648788" xlink:href="#m4f457515e6" y="237.577129"/>
     <use style="fill:#dd8452;stroke:#dd8452;" x="254.24345" xlink:href="#m4f457515e6" y="237.964168"/>
     <use style="fill:#dd8452;stroke:#dd8452;" x="258.838294" xlink:href="#m4f457515e6" y="238.15307"/>
     <use style="fill:#dd8452;stroke:#dd8452;" x="263.433126" xlink:href="#m4f457515e6" y="238.354566"/>
     <use style="fill:#dd8452;stroke:#dd8452;" x="268.028052" xlink:href="#m4f457515e6" y="238.455314"/>
     <use style="fill:#dd8452;stroke:#dd8452;" x="272.622954" xlink:href="#m4f457515e6" y="238.581248"/>
     <use style="fill:#dd8452;stroke:#dd8452;" x="275.54701" xlink:href="#m4f457515e6" y="238.631622"/>
     <use style="fill:#dd8452;stroke:#dd8452;" x="285.203814" xlink:href="#m4f457515e6" y="235.096734"/>
     <use style="fill:#dd8452;stroke:#dd8452;" x="289.334345" xlink:href="#m4f457515e6" y="236.159103"/>
     <use style="fill:#dd8452;stroke:#dd8452;" x="293.928392" xlink:href="#m4f457515e6" y="237.211708"/>
     <use style="fill:#dd8452;stroke:#dd8452;" x="298.522496" xlink:href="#m4f457515e6" y="238.203444"/>
     <use style="fill:#dd8452;stroke:#dd8452;" x="302.525342" xlink:href="#m4f457515e6" y="239.315303"/>
     <use style="fill:#dd8452;stroke:#dd8452;" x="307.233383" xlink:href="#m4f457515e6" y="240.096064"/>
     <use style="fill:#dd8452;stroke:#dd8452;" x="311.051577" xlink:href="#m4f457515e6" y="241.225878"/>
     <use style="fill:#dd8452;stroke:#dd8452;" x="315.818695" xlink:href="#m4f457515e6" y="242.310619"/>
     <use style="fill:#dd8452;stroke:#dd8452;" x="320.239709" xlink:href="#m4f457515e6" y="243.291208"/>
     <use style="fill:#dd8452;stroke:#dd8452;" x="323.998511" xlink:href="#m4f457515e6" y="244.113382"/>
     <use style="fill:#dd8452;stroke:#dd8452;" x="329.379612" xlink:href="#m4f457515e6" y="245.271266"/>
     <use style="fill:#dd8452;stroke:#dd8452;" x="335.763403" xlink:href="#m4f457515e6" y="246.712996"/>
     <use style="fill:#dd8452;stroke:#dd8452;" x="340.670541" xlink:href="#m4f457515e6" y="247.772456"/>
     <use style="fill:#dd8452;stroke:#dd8452;" x="345.298442" xlink:href="#m4f457515e6" y="248.715359"/>
     <use style="fill:#dd8452;stroke:#dd8452;" x="354.486792" xlink:href="#m4f457515e6" y="250.54505"/>
     <use style="fill:#dd8452;stroke:#dd8452;" x="357.827984" xlink:href="#m4f457515e6" y="251.237691"/>
     <use style="fill:#dd8452;stroke:#dd8452;" x="364.51044" xlink:href="#m4f457515e6" y="252.547412"/>
     <use style="fill:#dd8452;stroke:#dd8452;" x="367.818741" xlink:href="#m4f457515e6" y="253.225778"/>
     <use style="fill:#dd8452;stroke:#dd8452;" x="373.838121" xlink:href="#m4f457515e6" y="254.280832"/>
     <use style="fill:#dd8452;stroke:#dd8452;" x="378.29309" xlink:href="#m4f457515e6" y="255.154262"/>
     <use style="fill:#dd8452;stroke:#dd8452;" x="382.887249" xlink:href="#m4f457515e6" y="256.086179"/>
     <use style="fill:#dd8452;stroke:#dd8452;" x="387.481585" xlink:href="#m4f457515e6" y="256.826638"/>
     <use style="fill:#dd8452;stroke:#dd8452;" x="391.88339" xlink:href="#m4f457515e6" y="257.695199"/>
    </g>
   </g>
   <g id="line2d_17">
    <defs>
     <path d="M 0 1.5 
C 0.397805 1.5 0.77937 1.341951 1.06066 1.06066 
C 1.341951 0.77937 1.5 0.397805 1.5 0 
C 1.5 -0.397805 1.341951 -0.77937 1.06066 -1.06066 
C 0.77937 -1.341951 0.397805 -1.5 0 -1.5 
C -0.397805 -1.5 -0.77937 -1.341951 -1.06066 -1.06066 
C -1.341951 -0.77937 -1.5 -0.397805 -1.5 0 
C -1.5 0.397805 -1.341951 0.77937 -1.06066 1.06066 
C -0.77937 1.341951 -0.397805 1.5 0 1.5 
z
" id="maff4e2fd98" style="stroke:#55a868;"/>
    </defs>
    <g clip-path="url(#pa5019a3e58)">
     <use style="fill:#55a868;stroke:#55a868;" x="83.571365" xlink:href="#maff4e2fd98" y="52.026827"/>
     <use style="fill:#55a868;stroke:#55a868;" x="84.466597" xlink:href="#maff4e2fd98" y="54.481433"/>
     <use style="fill:#55a868;stroke:#55a868;" x="85.826154" xlink:href="#maff4e2fd98" y="57.773128"/>
     <use style="fill:#55a868;stroke:#55a868;" x="86.689409" xlink:href="#maff4e2fd98" y="59.985621"/>
     <use style="fill:#55a868;stroke:#55a868;" x="88.148624" xlink:href="#maff4e2fd98" y="63.060948"/>
     <use style="fill:#55a868;stroke:#55a868;" x="89.636849" xlink:href="#maff4e2fd98" y="67.034729"/>
     <use style="fill:#55a868;stroke:#55a868;" x="91.066182" xlink:href="#maff4e2fd98" y="70.158211"/>
     <use style="fill:#55a868;stroke:#55a868;" x="92.317048" xlink:href="#maff4e2fd98" y="72.674807"/>
     <use style="fill:#55a868;stroke:#55a868;" x="94.263007" xlink:href="#maff4e2fd98" y="76.408143"/>
     <use style="fill:#55a868;stroke:#55a868;" x="96.277957" xlink:href="#maff4e2fd98" y="80.824884"/>
     <use style="fill:#55a868;stroke:#55a868;" x="98.321333" xlink:href="#maff4e2fd98" y="84.61594"/>
     <use style="fill:#55a868;stroke:#55a868;" x="99.405423" xlink:href="#maff4e2fd98" y="86.790833"/>
     <use style="fill:#55a868;stroke:#55a868;" x="101.490682" xlink:href="#maff4e2fd98" y="90.461831"/>
     <use style="fill:#55a868;stroke:#55a868;" x="103.575699" xlink:href="#maff4e2fd98" y="94.396033"/>
     <use style="fill:#55a868;stroke:#55a868;" x="105.452675" xlink:href="#maff4e2fd98" y="97.436727"/>
     <use style="fill:#55a868;stroke:#55a868;" x="107.121259" xlink:href="#maff4e2fd98" y="99.964868"/>
     <use style="fill:#55a868;stroke:#55a868;" x="108.997769" xlink:href="#maff4e2fd98" y="103.51119"/>
     <use style="fill:#55a868;stroke:#55a868;" x="111.291586" xlink:href="#maff4e2fd98" y="107.514656"/>
     <use style="fill:#55a868;stroke:#55a868;" x="113.586068" xlink:href="#maff4e2fd98" y="110.797775"/>
     <use style="fill:#55a868;stroke:#55a868;" x="115.463542" xlink:href="#maff4e2fd98" y="113.298209"/>
     <use style="fill:#55a868;stroke:#55a868;" x="117.548983" xlink:href="#maff4e2fd98" y="116.772959"/>
     <use style="fill:#55a868;stroke:#55a868;" x="120.548571" xlink:href="#maff4e2fd98" y="122.028887"/>
     <use style="fill:#55a868;stroke:#55a868;" x="124.015539" xlink:href="#maff4e2fd98" y="125.711328"/>
     <use style="fill:#55a868;stroke:#55a868;" x="126.935882" xlink:href="#maff4e2fd98" y="129.788016"/>
     <use style="fill:#55a868;stroke:#55a868;" x="130.724055" xlink:href="#maff4e2fd98" y="133.605407"/>
     <use style="fill:#55a868;stroke:#55a868;" x="133.195274" xlink:href="#maff4e2fd98" y="136.882255"/>
     <use style="fill:#55a868;stroke:#55a868;" x="135.281193" xlink:href="#maff4e2fd98" y="139.837909"/>
     <use style="fill:#55a868;stroke:#55a868;" x="137.96245" xlink:href="#maff4e2fd98" y="143.281948"/>
     <use style="fill:#55a868;stroke:#55a868;" x="140.914125" xlink:href="#maff4e2fd98" y="146.787408"/>
     <use style="fill:#55a868;stroke:#55a868;" x="143.626571" xlink:href="#maff4e2fd98" y="149.815239"/>
     <use style="fill:#55a868;stroke:#55a868;" x="146.130601" xlink:href="#maff4e2fd98" y="152.356243"/>
     <use style="fill:#55a868;stroke:#55a868;" x="149.051715" xlink:href="#maff4e2fd98" y="155.596938"/>
     <use style="fill:#55a868;stroke:#55a868;" x="151.707368" xlink:href="#maff4e2fd98" y="158.44057"/>
     <use style="fill:#55a868;stroke:#55a868;" x="155.520665" xlink:href="#maff4e2fd98" y="161.938933"/>
     <use style="fill:#55a868;stroke:#55a868;" x="158.554077" xlink:href="#maff4e2fd98" y="164.664402"/>
     <use style="fill:#55a868;stroke:#55a868;" x="161.937722" xlink:href="#maff4e2fd98" y="167.930279"/>
     <use style="fill:#55a868;stroke:#55a868;" x="165.746428" xlink:href="#maff4e2fd98" y="171.260728"/>
     <use style="fill:#55a868;stroke:#55a868;" x="169.711859" xlink:href="#maff4e2fd98" y="174.506906"/>
     <use style="fill:#55a868;stroke:#55a868;" x="174.094668" xlink:href="#maff4e2fd98" y="178.134367"/>
     <use style="fill:#55a868;stroke:#55a868;" x="178.686355" xlink:href="#maff4e2fd98" y="181.746895"/>
     <use style="fill:#55a868;stroke:#55a868;" x="183.27833" xlink:href="#maff4e2fd98" y="185.046386"/>
     <use style="fill:#55a868;stroke:#55a868;" x="187.52239" xlink:href="#maff4e2fd98" y="188.138084"/>
     <use style="fill:#55a868;stroke:#55a868;" x="191.349251" xlink:href="#maff4e2fd98" y="190.65468"/>
     <use style="fill:#55a868;stroke:#55a868;" x="195.802371" xlink:href="#maff4e2fd98" y="193.534388"/>
     <use style="fill:#55a868;stroke:#55a868;" x="199.768618" xlink:href="#maff4e2fd98" y="195.895664"/>
     <use style="fill:#55a868;stroke:#55a868;" x="204.082756" xlink:href="#maff4e2fd98" y="198.491786"/>
     <use style="fill:#55a868;stroke:#55a868;" x="209.580028" xlink:href="#maff4e2fd98" y="201.556431"/>
     <use style="fill:#55a868;stroke:#55a868;" x="214.173014" xlink:href="#maff4e2fd98" y="203.76029"/>
     <use style="fill:#55a868;stroke:#55a868;" x="218.408225" xlink:href="#maff4e2fd98" y="205.661904"/>
     <use style="fill:#55a868;stroke:#55a868;" x="222.762972" xlink:href="#maff4e2fd98" y="207.363823"/>
     <use style="fill:#55a868;stroke:#55a868;" x="227.953052" xlink:href="#maff4e2fd98" y="209.200671"/>
     <use style="fill:#55a868;stroke:#55a868;" x="232.546734" xlink:href="#maff4e2fd98" y="210.648921"/>
     <use style="fill:#55a868;stroke:#55a868;" x="236.305255" xlink:href="#maff4e2fd98" y="211.776936"/>
     <use style="fill:#55a868;stroke:#55a868;" x="242.026498" xlink:href="#maff4e2fd98" y="213.558013"/>
     <use style="fill:#55a868;stroke:#55a868;" x="246.933401" xlink:href="#maff4e2fd98" y="214.655327"/>
     <use style="fill:#55a868;stroke:#55a868;" x="251.34003" xlink:href="#maff4e2fd98" y="215.535189"/>
     <use style="fill:#55a868;stroke:#55a868;" x="256.292371" xlink:href="#maff4e2fd98" y="216.328201"/>
     <use style="fill:#55a868;stroke:#55a868;" x="261.990061" xlink:href="#maff4e2fd98" y="217.765808"/>
     <use style="fill:#55a868;stroke:#55a868;" x="268.437417" xlink:href="#maff4e2fd98" y="218.928239"/>
     <use style="fill:#55a868;stroke:#55a868;" x="272.190641" xlink:href="#maff4e2fd98" y="219.550844"/>
     <use style="fill:#55a868;stroke:#55a868;" x="277.304434" xlink:href="#maff4e2fd98" y="220.319602"/>
     <use style="fill:#55a868;stroke:#55a868;" x="285.031204" xlink:href="#maff4e2fd98" y="221.636579"/>
     <use style="fill:#55a868;stroke:#55a868;" x="289.764973" xlink:href="#maff4e2fd98" y="222.170493"/>
     <use style="fill:#55a868;stroke:#55a868;" x="294.519916" xlink:href="#maff4e2fd98" y="222.973774"/>
     <use style="fill:#55a868;stroke:#55a868;" x="298.536054" xlink:href="#maff4e2fd98" y="223.501262"/>
     <use style="fill:#55a868;stroke:#55a868;" x="304.383464" xlink:href="#maff4e2fd98" y="224.363215"/>
     <use style="fill:#55a868;stroke:#55a868;" x="310.648504" xlink:href="#maff4e2fd98" y="225.332913"/>
     <use style="fill:#55a868;stroke:#55a868;" x="315.242918" xlink:href="#maff4e2fd98" y="225.987773"/>
     <use style="fill:#55a868;stroke:#55a868;" x="319.837135" xlink:href="#maff4e2fd98" y="226.856723"/>
     <use style="fill:#55a868;stroke:#55a868;" x="325.288814" xlink:href="#maff4e2fd98" y="227.652289"/>
     <use style="fill:#55a868;stroke:#55a868;" x="329.777704" xlink:href="#maff4e2fd98" y="228.352828"/>
     <use style="fill:#55a868;stroke:#55a868;" x="333.620215" xlink:href="#maff4e2fd98" y="228.997614"/>
     <use style="fill:#55a868;stroke:#55a868;" x="338.214525" xlink:href="#maff4e2fd98" y="229.765816"/>
     <use style="fill:#55a868;stroke:#55a868;" x="341.555846" xlink:href="#maff4e2fd98" y="230.319929"/>
     <use style="fill:#55a868;stroke:#55a868;" x="347.078302" xlink:href="#maff4e2fd98" y="231.239813"/>
     <use style="fill:#55a868;stroke:#55a868;" x="351.997588" xlink:href="#maff4e2fd98" y="231.92583"/>
     <use style="fill:#55a868;stroke:#55a868;" x="356.591788" xlink:href="#maff4e2fd98" y="232.813437"/>
     <use style="fill:#55a868;stroke:#55a868;" x="361.186086" xlink:href="#maff4e2fd98" y="233.594232"/>
     <use style="fill:#55a868;stroke:#55a868;" x="367.659848" xlink:href="#maff4e2fd98" y="234.7182"/>
     <use style="fill:#55a868;stroke:#55a868;" x="374.133639" xlink:href="#maff4e2fd98" y="235.810684"/>
     <use style="fill:#55a868;stroke:#55a868;" x="378.727821" xlink:href="#maff4e2fd98" y="236.717414"/>
     <use style="fill:#55a868;stroke:#55a868;" x="382.904481" xlink:href="#maff4e2fd98" y="237.40026"/>
     <use style="fill:#55a868;stroke:#55a868;" x="388.542973" xlink:href="#maff4e2fd98" y="238.319934"/>
     <use style="fill:#55a868;stroke:#55a868;" x="395.016753" xlink:href="#maff4e2fd98" y="239.425011"/>
     <use style="fill:#55a868;stroke:#55a868;" x="399.541437" xlink:href="#maff4e2fd98" y="240.197339"/>
     <use style="fill:#55a868;stroke:#55a868;" x="403.787606" xlink:href="#maff4e2fd98" y="241.001994"/>
     <use style="fill:#55a868;stroke:#55a868;" x="409.588449" xlink:href="#maff4e2fd98" y="242.029806"/>
     <use style="fill:#55a868;stroke:#55a868;" x="415.899646" xlink:href="#maff4e2fd98" y="243.278615"/>
     <use style="fill:#55a868;stroke:#55a868;" x="420.493909" xlink:href="#maff4e2fd98" y="244.09719"/>
     <use style="fill:#55a868;stroke:#55a868;" x="424.670461" xlink:href="#maff4e2fd98" y="244.896176"/>
     <use style="fill:#55a868;stroke:#55a868;" x="430.308665" xlink:href="#maff4e2fd98" y="246.129463"/>
    </g>
   </g>
   <g id="patch_3">
    <path d="M 62.150625 293.279062 
L 62.150625 40.538625 
" style="fill:none;stroke:#ffffff;stroke-linecap:square;stroke-linejoin:miter;stroke-width:1.25;"/>
   </g>
   <g id="patch_4">
    <path d="M 447.84 293.279062 
L 447.84 40.538625 
" style="fill:none;stroke:#ffffff;stroke-linecap:square;stroke-linejoin:miter;stroke-width:1.25;"/>
   </g>
   <g id="patch_5">
    <path d="M 62.150625 293.279063 
L 447.84 293.279063 
" style="fill:none;stroke:#ffffff;stroke-linecap:square;stroke-linejoin:miter;stroke-width:1.25;"/>
   </g>
   <g id="patch_6">
    <path d="M 62.150625 40.538625 
L 447.84 40.538625 
" style="fill:none;stroke:#ffffff;stroke-linecap:square;stroke-linejoin:miter;stroke-width:1.25;"/>
   </g>
   <g id="text_17">
    <!-- Human Power Output -->
    <defs>
     <path d="M 8.015625 0 
L 8.015625 71.578125 
L 17.484375 71.578125 
L 17.484375 42.1875 
L 54.6875 42.1875 
L 54.6875 71.578125 
L 64.15625 71.578125 
L 64.15625 0 
L 54.6875 0 
L 54.6875 33.734375 
L 17.484375 33.734375 
L 17.484375 0 
z
" id="ArialMT-72"/>
     <path d="M 4.828125 34.859375 
Q 4.828125 52.6875 14.390625 62.765625 
Q 23.96875 72.859375 39.109375 72.859375 
Q 49.03125 72.859375 56.984375 68.109375 
Q 64.9375 63.375 69.109375 54.90625 
Q 73.296875 46.4375 73.296875 35.6875 
Q 73.296875 24.8125 68.890625 16.21875 
Q 64.5 7.625 56.4375 3.203125 
Q 48.390625 -1.21875 39.0625 -1.21875 
Q 28.953125 -1.21875 20.984375 3.65625 
Q 13.03125 8.546875 8.921875 16.984375 
Q 4.828125 25.4375 4.828125 34.859375 
z
M 14.59375 34.71875 
Q 14.59375 21.78125 21.546875 14.328125 
Q 28.515625 6.890625 39.015625 6.890625 
Q 49.703125 6.890625 56.609375 14.40625 
Q 63.53125 21.921875 63.53125 35.75 
Q 63.53125 44.484375 60.578125 51 
Q 57.625 57.515625 51.921875 61.109375 
Q 46.234375 64.703125 39.15625 64.703125 
Q 29.109375 64.703125 21.84375 57.78125 
Q 14.59375 50.875 14.59375 34.71875 
z
" id="ArialMT-79"/>
     <path d="M 6.59375 -19.875 
L 6.59375 51.859375 
L 14.59375 51.859375 
L 14.59375 45.125 
Q 17.4375 49.078125 21 51.046875 
Q 24.5625 53.03125 29.640625 53.03125 
Q 36.28125 53.03125 41.359375 49.609375 
Q 46.4375 46.1875 49.015625 39.953125 
Q 51.609375 33.734375 51.609375 26.3125 
Q 51.609375 18.359375 48.75 11.984375 
Q 45.90625 5.609375 40.453125 2.21875 
Q 35.015625 -1.171875 29 -1.171875 
Q 24.609375 -1.171875 21.109375 0.6875 
Q 17.625 2.546875 15.375 5.375 
L 15.375 -19.875 
z
M 14.546875 25.640625 
Q 14.546875 15.625 18.59375 10.84375 
Q 22.65625 6.0625 28.421875 6.0625 
Q 34.28125 6.0625 38.453125 11.015625 
Q 42.625 15.96875 42.625 26.375 
Q 42.625 36.28125 38.546875 41.203125 
Q 34.46875 46.140625 28.8125 46.140625 
Q 23.1875 46.140625 18.859375 40.890625 
Q 14.546875 35.640625 14.546875 25.640625 
z
" id="ArialMT-112"/>
    </defs>
    <g style="fill:#262626;" transform="translate(197.304375 21.670875)scale(0.12 -0.12)">
     <use xlink:href="#ArialMT-72"/>
     <use x="72.216797" xlink:href="#ArialMT-117"/>
     <use x="127.832031" xlink:href="#ArialMT-109"/>
     <use x="211.132812" xlink:href="#ArialMT-97"/>
     <use x="266.748047" xlink:href="#ArialMT-110"/>
     <use x="322.363281" xlink:href="#ArialMT-32"/>
     <use x="350.146484" xlink:href="#ArialMT-80"/>
     <use x="416.845703" xlink:href="#ArialMT-111"/>
     <use x="472.460938" xlink:href="#ArialMT-119"/>
     <use x="544.677734" xlink:href="#ArialMT-101"/>
     <use x="600.292969" xlink:href="#ArialMT-114"/>
     <use x="633.59375" xlink:href="#ArialMT-32"/>
     <use x="661.376953" xlink:href="#ArialMT-79"/>
     <use x="739.160156" xlink:href="#ArialMT-117"/>
     <use x="794.775391" xlink:href="#ArialMT-116"/>
     <use x="822.558594" xlink:href="#ArialMT-112"/>
     <use x="878.173828" xlink:href="#ArialMT-117"/>
     <use x="933.789062" xlink:href="#ArialMT-116"/>
    </g>
    <!-- (Fig. 2.4, Bicycling Science by D. Wilson) -->
    <defs>
     <path d="M 23.390625 -21.046875 
Q 16.109375 -11.859375 11.078125 0.4375 
Q 6.0625 12.75 6.0625 25.921875 
Q 6.0625 37.546875 9.8125 48.1875 
Q 14.203125 60.546875 23.390625 72.796875 
L 29.6875 72.796875 
Q 23.78125 62.640625 21.875 58.296875 
Q 18.890625 51.5625 17.1875 44.234375 
Q 15.09375 35.109375 15.09375 25.875 
Q 15.09375 2.390625 29.6875 -21.046875 
z
" id="ArialMT-40"/>
     <path d="M 8.203125 0 
L 8.203125 71.578125 
L 56.5 71.578125 
L 56.5 63.140625 
L 17.671875 63.140625 
L 17.671875 40.96875 
L 51.265625 40.96875 
L 51.265625 32.515625 
L 17.671875 32.515625 
L 17.671875 0 
z
" id="ArialMT-70"/>
     <path d="M 4.984375 -4.296875 
L 13.53125 -5.5625 
Q 14.0625 -9.515625 16.5 -11.328125 
Q 19.78125 -13.765625 25.4375 -13.765625 
Q 31.546875 -13.765625 34.859375 -11.328125 
Q 38.1875 -8.890625 39.359375 -4.5 
Q 40.046875 -1.8125 39.984375 6.78125 
Q 34.234375 0 25.640625 0 
Q 14.9375 0 9.078125 7.71875 
Q 3.21875 15.4375 3.21875 26.21875 
Q 3.21875 33.640625 5.90625 39.90625 
Q 8.59375 46.1875 13.6875 49.609375 
Q 18.796875 53.03125 25.6875 53.03125 
Q 34.859375 53.03125 40.828125 45.609375 
L 40.828125 51.859375 
L 48.921875 51.859375 
L 48.921875 7.03125 
Q 48.921875 -5.078125 46.453125 -10.125 
Q 44 -15.1875 38.640625 -18.109375 
Q 33.296875 -21.046875 25.484375 -21.046875 
Q 16.21875 -21.046875 10.5 -16.875 
Q 4.78125 -12.703125 4.984375 -4.296875 
z
M 12.25 26.859375 
Q 12.25 16.65625 16.296875 11.96875 
Q 20.359375 7.28125 26.46875 7.28125 
Q 32.515625 7.28125 36.609375 11.9375 
Q 40.71875 16.609375 40.71875 26.5625 
Q 40.71875 36.078125 36.5 40.90625 
Q 32.28125 45.75 26.3125 45.75 
Q 20.453125 45.75 16.34375 40.984375 
Q 12.25 36.234375 12.25 26.859375 
z
" id="ArialMT-103"/>
     <path d="M 9.078125 0 
L 9.078125 10.015625 
L 19.09375 10.015625 
L 19.09375 0 
z
" id="ArialMT-46"/>
     <path d="M 8.890625 0 
L 8.890625 10.015625 
L 18.890625 10.015625 
L 18.890625 0 
Q 18.890625 -5.515625 16.9375 -8.90625 
Q 14.984375 -12.3125 10.75 -14.15625 
L 8.296875 -10.40625 
Q 11.078125 -9.1875 12.390625 -6.8125 
Q 13.71875 -4.4375 13.875 0 
z
" id="ArialMT-44"/>
     <path d="M 7.328125 0 
L 7.328125 71.578125 
L 34.1875 71.578125 
Q 42.390625 71.578125 47.34375 69.40625 
Q 52.296875 67.234375 55.09375 62.71875 
Q 57.90625 58.203125 57.90625 53.265625 
Q 57.90625 48.6875 55.421875 44.625 
Q 52.9375 40.578125 47.90625 38.09375 
Q 54.390625 36.1875 57.875 31.59375 
Q 61.375 27 61.375 20.75 
Q 61.375 15.71875 59.25 11.390625 
Q 57.125 7.078125 54 4.734375 
Q 50.875 2.390625 46.15625 1.1875 
Q 41.453125 0 34.625 0 
z
M 16.796875 41.5 
L 32.28125 41.5 
Q 38.578125 41.5 41.3125 42.328125 
Q 44.921875 43.40625 46.75 45.890625 
Q 48.578125 48.390625 48.578125 52.15625 
Q 48.578125 55.71875 46.875 58.421875 
Q 45.171875 61.140625 41.984375 62.140625 
Q 38.8125 63.140625 31.109375 63.140625 
L 16.796875 63.140625 
z
M 16.796875 8.453125 
L 34.625 8.453125 
Q 39.203125 8.453125 41.0625 8.796875 
Q 44.34375 9.375 46.53125 10.734375 
Q 48.734375 12.109375 50.140625 14.71875 
Q 51.5625 17.328125 51.5625 20.75 
Q 51.5625 24.75 49.515625 27.703125 
Q 47.46875 30.671875 43.828125 31.859375 
Q 40.1875 33.0625 33.34375 33.0625 
L 16.796875 33.0625 
z
" id="ArialMT-66"/>
     <path d="M 40.4375 19 
L 49.078125 17.875 
Q 47.65625 8.9375 41.8125 3.875 
Q 35.984375 -1.171875 27.484375 -1.171875 
Q 16.84375 -1.171875 10.375 5.78125 
Q 3.90625 12.75 3.90625 25.734375 
Q 3.90625 34.125 6.6875 40.421875 
Q 9.46875 46.734375 15.15625 49.875 
Q 20.84375 53.03125 27.546875 53.03125 
Q 35.984375 53.03125 41.359375 48.75 
Q 46.734375 44.484375 48.25 36.625 
L 39.703125 35.296875 
Q 38.484375 40.53125 35.375 43.15625 
Q 32.28125 45.796875 27.875 45.796875 
Q 21.234375 45.796875 17.078125 41.03125 
Q 12.9375 36.28125 12.9375 25.984375 
Q 12.9375 15.53125 16.9375 10.796875 
Q 20.953125 6.0625 27.390625 6.0625 
Q 32.5625 6.0625 36.03125 9.234375 
Q 39.5 12.40625 40.4375 19 
z
" id="ArialMT-99"/>
     <path d="M 6.203125 -19.96875 
L 5.21875 -11.71875 
Q 8.109375 -12.5 10.25 -12.5 
Q 13.1875 -12.5 14.9375 -11.515625 
Q 16.703125 -10.546875 17.828125 -8.796875 
Q 18.65625 -7.46875 20.515625 -2.25 
Q 20.75 -1.515625 21.296875 -0.09375 
L 1.609375 51.859375 
L 11.078125 51.859375 
L 21.875 21.828125 
Q 23.96875 16.109375 25.640625 9.8125 
Q 27.15625 15.875 29.25 21.625 
L 40.328125 51.859375 
L 49.125 51.859375 
L 29.390625 -0.875 
Q 26.21875 -9.421875 24.46875 -12.640625 
Q 22.125 -17 19.09375 -19.015625 
Q 16.0625 -21.046875 11.859375 -21.046875 
Q 9.328125 -21.046875 6.203125 -19.96875 
z
" id="ArialMT-121"/>
     <path d="M 12.359375 -21.046875 
L 6.0625 -21.046875 
Q 20.65625 2.390625 20.65625 25.875 
Q 20.65625 35.0625 18.5625 44.09375 
Q 16.890625 51.421875 13.921875 58.15625 
Q 12.015625 62.546875 6.0625 72.796875 
L 12.359375 72.796875 
Q 21.53125 60.546875 25.921875 48.1875 
Q 29.6875 37.546875 29.6875 25.921875 
Q 29.6875 12.75 24.625 0.4375 
Q 19.578125 -11.859375 12.359375 -21.046875 
z
" id="ArialMT-41"/>
    </defs>
    <g style="fill:#262626;" transform="translate(145.63125 34.538625)scale(0.12 -0.12)">
     <use xlink:href="#ArialMT-40"/>
     <use x="33.300781" xlink:href="#ArialMT-70"/>
     <use x="94.384766" xlink:href="#ArialMT-105"/>
     <use x="116.601562" xlink:href="#ArialMT-103"/>
     <use x="172.216797" xlink:href="#ArialMT-46"/>
     <use x="200" xlink:href="#ArialMT-32"/>
     <use x="227.783203" xlink:href="#ArialMT-50"/>
     <use x="283.398438" xlink:href="#ArialMT-46"/>
     <use x="311.181641" xlink:href="#ArialMT-52"/>
     <use x="366.796875" xlink:href="#ArialMT-44"/>
     <use x="394.580078" xlink:href="#ArialMT-32"/>
     <use x="422.363281" xlink:href="#ArialMT-66"/>
     <use x="489.0625" xlink:href="#ArialMT-105"/>
     <use x="511.279297" xlink:href="#ArialMT-99"/>
     <use x="561.279297" xlink:href="#ArialMT-121"/>
     <use x="611.279297" xlink:href="#ArialMT-99"/>
     <use x="661.279297" xlink:href="#ArialMT-108"/>
     <use x="683.496094" xlink:href="#ArialMT-105"/>
     <use x="705.712891" xlink:href="#ArialMT-110"/>
     <use x="761.328125" xlink:href="#ArialMT-103"/>
     <use x="816.943359" xlink:href="#ArialMT-32"/>
     <use x="844.726562" xlink:href="#ArialMT-83"/>
     <use x="911.425781" xlink:href="#ArialMT-99"/>
     <use x="961.425781" xlink:href="#ArialMT-105"/>
     <use x="983.642578" xlink:href="#ArialMT-101"/>
     <use x="1039.257812" xlink:href="#ArialMT-110"/>
     <use x="1094.873047" xlink:href="#ArialMT-99"/>
     <use x="1144.873047" xlink:href="#ArialMT-101"/>
     <use x="1200.488281" xlink:href="#ArialMT-32"/>
     <use x="1228.271484" xlink:href="#ArialMT-98"/>
     <use x="1283.886719" xlink:href="#ArialMT-121"/>
     <use x="1333.886719" xlink:href="#ArialMT-32"/>
     <use x="1361.669922" xlink:href="#ArialMT-68"/>
     <use x="1433.886719" xlink:href="#ArialMT-46"/>
     <use x="1461.669922" xlink:href="#ArialMT-32"/>
     <use x="1489.453125" xlink:href="#ArialMT-87"/>
     <use x="1583.837891" xlink:href="#ArialMT-105"/>
     <use x="1606.054688" xlink:href="#ArialMT-108"/>
     <use x="1628.271484" xlink:href="#ArialMT-115"/>
     <use x="1678.271484" xlink:href="#ArialMT-111"/>
     <use x="1733.886719" xlink:href="#ArialMT-110"/>
     <use x="1789.501953" xlink:href="#ArialMT-41"/>
    </g>
   </g>
   <g id="legend_1">
    <g id="patch_7">
     <path d="M 303.045625 96.147063 
L 440.14 96.147063 
Q 442.34 96.147063 442.34 93.947063 
L 442.34 48.238625 
Q 442.34 46.038625 440.14 46.038625 
L 303.045625 46.038625 
Q 300.845625 46.038625 300.845625 48.238625 
L 300.845625 93.947063 
Q 300.845625 96.147063 303.045625 96.147063 
z
" style="fill:#eaeaf2;opacity:0.8;stroke:#cccccc;stroke-linejoin:miter;"/>
    </g>
    <g id="line2d_18"/>
    <g id="line2d_19">
     <g>
      <use style="fill:#4c72b0;stroke:#4c72b0;" x="316.245625" xlink:href="#m435e860ff3" y="54.462219"/>
     </g>
    </g>
    <g id="text_18">
     <!-- Healthy Men -->
     <defs>
      <path d="M 6.59375 0 
L 6.59375 71.578125 
L 15.375 71.578125 
L 15.375 45.90625 
Q 21.53125 53.03125 30.90625 53.03125 
Q 36.671875 53.03125 40.921875 50.75 
Q 45.171875 48.484375 47 44.484375 
Q 48.828125 40.484375 48.828125 32.859375 
L 48.828125 0 
L 40.046875 0 
L 40.046875 32.859375 
Q 40.046875 39.453125 37.1875 42.453125 
Q 34.328125 45.453125 29.109375 45.453125 
Q 25.203125 45.453125 21.75 43.421875 
Q 18.3125 41.40625 16.84375 37.9375 
Q 15.375 34.46875 15.375 28.375 
L 15.375 0 
z
" id="ArialMT-104"/>
     </defs>
     <g style="fill:#262626;" transform="translate(336.045625 58.312219)scale(0.11 -0.11)">
      <use xlink:href="#ArialMT-72"/>
      <use x="72.216797" xlink:href="#ArialMT-101"/>
      <use x="127.832031" xlink:href="#ArialMT-97"/>
      <use x="183.447266" xlink:href="#ArialMT-108"/>
      <use x="205.664062" xlink:href="#ArialMT-116"/>
      <use x="233.447266" xlink:href="#ArialMT-104"/>
      <use x="289.0625" xlink:href="#ArialMT-121"/>
      <use x="339.0625" xlink:href="#ArialMT-32"/>
      <use x="366.845703" xlink:href="#ArialMT-77"/>
      <use x="450.146484" xlink:href="#ArialMT-101"/>
      <use x="505.761719" xlink:href="#ArialMT-110"/>
     </g>
    </g>
    <g id="line2d_20"/>
    <g id="line2d_21">
     <g>
      <use style="fill:#dd8452;stroke:#dd8452;" x="316.245625" xlink:href="#m4f457515e6" y="70.150969"/>
     </g>
    </g>
    <g id="text_19">
     <!-- First-Class Athletes -->
     <defs>
      <path d="M 3.171875 21.484375 
L 3.171875 30.328125 
L 30.171875 30.328125 
L 30.171875 21.484375 
z
" id="ArialMT-45"/>
      <path d="M 58.796875 25.09375 
L 68.265625 22.703125 
Q 65.28125 11.03125 57.546875 4.90625 
Q 49.8125 -1.21875 38.625 -1.21875 
Q 27.046875 -1.21875 19.796875 3.484375 
Q 12.546875 8.203125 8.765625 17.140625 
Q 4.984375 26.078125 4.984375 36.328125 
Q 4.984375 47.515625 9.25 55.828125 
Q 13.53125 64.15625 21.40625 68.46875 
Q 29.296875 72.796875 38.765625 72.796875 
Q 49.515625 72.796875 56.828125 67.328125 
Q 64.15625 61.859375 67.046875 51.953125 
L 57.71875 49.75 
Q 55.21875 57.5625 50.484375 61.125 
Q 45.75 64.703125 38.578125 64.703125 
Q 30.328125 64.703125 24.78125 60.734375 
Q 19.234375 56.78125 16.984375 50.109375 
Q 14.75 43.453125 14.75 36.375 
Q 14.75 27.25 17.40625 20.4375 
Q 20.0625 13.625 25.671875 10.25 
Q 31.296875 6.890625 37.84375 6.890625 
Q 45.796875 6.890625 51.3125 11.46875 
Q 56.84375 16.0625 58.796875 25.09375 
z
" id="ArialMT-67"/>
      <path d="M -0.140625 0 
L 27.34375 71.578125 
L 37.546875 71.578125 
L 66.84375 0 
L 56.0625 0 
L 47.703125 21.6875 
L 17.78125 21.6875 
L 9.90625 0 
z
M 20.515625 29.390625 
L 44.78125 29.390625 
L 37.3125 49.21875 
Q 33.890625 58.25 32.234375 64.0625 
Q 30.859375 57.171875 28.375 50.390625 
z
" id="ArialMT-65"/>
     </defs>
     <g style="fill:#262626;" transform="translate(336.045625 74.000969)scale(0.11 -0.11)">
      <use xlink:href="#ArialMT-70"/>
      <use x="61.083984" xlink:href="#ArialMT-105"/>
      <use x="83.300781" xlink:href="#ArialMT-114"/>
      <use x="116.601562" xlink:href="#ArialMT-115"/>
      <use x="166.601562" xlink:href="#ArialMT-116"/>
      <use x="194.384766" xlink:href="#ArialMT-45"/>
      <use x="227.685547" xlink:href="#ArialMT-67"/>
      <use x="299.902344" xlink:href="#ArialMT-108"/>
      <use x="322.119141" xlink:href="#ArialMT-97"/>
      <use x="377.734375" xlink:href="#ArialMT-115"/>
      <use x="427.734375" xlink:href="#ArialMT-115"/>
      <use x="477.734375" xlink:href="#ArialMT-32"/>
      <use x="500.017578" xlink:href="#ArialMT-65"/>
      <use x="566.716797" xlink:href="#ArialMT-116"/>
      <use x="594.5" xlink:href="#ArialMT-104"/>
      <use x="650.115234" xlink:href="#ArialMT-108"/>
      <use x="672.332031" xlink:href="#ArialMT-101"/>
      <use x="727.947266" xlink:href="#ArialMT-116"/>
      <use x="755.730469" xlink:href="#ArialMT-101"/>
      <use x="811.345703" xlink:href="#ArialMT-115"/>
     </g>
    </g>
    <g id="line2d_22"/>
    <g id="line2d_23">
     <g>
      <use style="fill:#55a868;stroke:#55a868;" x="316.245625" xlink:href="#maff4e2fd98" y="85.710813"/>
     </g>
    </g>
    <g id="text_20">
     <!-- World-Class Athletes -->
     <defs>
      <path d="M 40.234375 0 
L 40.234375 6.546875 
Q 35.296875 -1.171875 25.734375 -1.171875 
Q 19.53125 -1.171875 14.328125 2.25 
Q 9.125 5.671875 6.265625 11.796875 
Q 3.421875 17.921875 3.421875 25.875 
Q 3.421875 33.640625 6 39.96875 
Q 8.59375 46.296875 13.765625 49.65625 
Q 18.953125 53.03125 25.34375 53.03125 
Q 30.03125 53.03125 33.6875 51.046875 
Q 37.359375 49.078125 39.65625 45.90625 
L 39.65625 71.578125 
L 48.390625 71.578125 
L 48.390625 0 
z
M 12.453125 25.875 
Q 12.453125 15.921875 16.640625 10.984375 
Q 20.84375 6.0625 26.5625 6.0625 
Q 32.328125 6.0625 36.34375 10.765625 
Q 40.375 15.484375 40.375 25.140625 
Q 40.375 35.796875 36.265625 40.765625 
Q 32.171875 45.75 26.171875 45.75 
Q 20.3125 45.75 16.375 40.96875 
Q 12.453125 36.1875 12.453125 25.875 
z
" id="ArialMT-100"/>
     </defs>
     <g style="fill:#262626;" transform="translate(336.045625 89.560812)scale(0.11 -0.11)">
      <use xlink:href="#ArialMT-87"/>
      <use x="92.634766" xlink:href="#ArialMT-111"/>
      <use x="148.25" xlink:href="#ArialMT-114"/>
      <use x="181.550781" xlink:href="#ArialMT-108"/>
      <use x="203.767578" xlink:href="#ArialMT-100"/>
      <use x="259.382812" xlink:href="#ArialMT-45"/>
      <use x="292.683594" xlink:href="#ArialMT-67"/>
      <use x="364.900391" xlink:href="#ArialMT-108"/>
      <use x="387.117188" xlink:href="#ArialMT-97"/>
      <use x="442.732422" xlink:href="#ArialMT-115"/>
      <use x="492.732422" xlink:href="#ArialMT-115"/>
      <use x="542.732422" xlink:href="#ArialMT-32"/>
      <use x="565.015625" xlink:href="#ArialMT-65"/>
      <use x="631.714844" xlink:href="#ArialMT-116"/>
      <use x="659.498047" xlink:href="#ArialMT-104"/>
      <use x="715.113281" xlink:href="#ArialMT-108"/>
      <use x="737.330078" xlink:href="#ArialMT-101"/>
      <use x="792.945312" xlink:href="#ArialMT-116"/>
      <use x="820.728516" xlink:href="#ArialMT-101"/>
      <use x="876.34375" xlink:href="#ArialMT-115"/>
     </g>
    </g>
   </g>
  </g>
 </g>
 <defs>
  <clipPath id="pa5019a3e58">
   <rect height="252.740438" width="385.689375" x="62.150625" y="40.538625"/>
  </clipPath>
 </defs>
</svg>
