<?xml version="1.0" encoding="utf-8" standalone="no"?>
<!DOCTYPE svg PUBLIC "-//W3C//DTD SVG 1.1//EN"
  "http://www.w3.org/Graphics/SVG/1.1/DTD/svg11.dtd">
<!-- Created with matplotlib (https://matplotlib.org/) -->
<svg height="345.6pt" version="1.1" viewBox="0 0 460.8 345.6" width="460.8pt" xmlns="http://www.w3.org/2000/svg" xmlns:xlink="http://www.w3.org/1999/xlink">
 <defs>
  <style type="text/css">
*{stroke-linecap:butt;stroke-linejoin:round;}
  </style>
 </defs>
 <g id="figure_1">
  <g id="patch_1">
   <path d="M 0 345.6 
L 460.8 345.6 
L 460.8 0 
L 0 0 
z
" style="fill:#ffffff;"/>
  </g>
  <g id="axes_1">
   <g id="patch_2">
    <path d="M 54.732284 293.279063 
L 447.84 293.279063 
L 447.84 40.538625 
L 54.732284 40.538625 
z
" style="fill:#eaeaf2;"/>
   </g>
   <g id="matplotlib.axis_1">
    <g id="xtick_1">
     <g id="line2d_1">
      <path clip-path="url(#p4f241c4f99)" d="M 72.41211 293.279063 
L 72.41211 40.538625 
" style="fill:none;stroke:#ffffff;stroke-linecap:round;"/>
     </g>
     <g id="text_1">
      <!-- $\mathdefault{10^{-1}}$ -->
      <defs>
       <path d="M 37.25 0 
L 28.46875 0 
L 28.46875 56 
Q 25.296875 52.984375 20.140625 49.953125 
Q 14.984375 46.921875 10.890625 45.40625 
L 10.890625 53.90625 
Q 18.265625 57.375 23.78125 62.296875 
Q 29.296875 67.234375 31.59375 71.875 
L 37.25 71.875 
z
" id="ArialMT-49"/>
       <path d="M 4.15625 35.296875 
Q 4.15625 48 6.765625 55.734375 
Q 9.375 63.484375 14.515625 67.671875 
Q 19.671875 71.875 27.484375 71.875 
Q 33.25 71.875 37.59375 69.546875 
Q 41.9375 67.234375 44.765625 62.859375 
Q 47.609375 58.5 49.21875 52.21875 
Q 50.828125 45.953125 50.828125 35.296875 
Q 50.828125 22.703125 48.234375 14.96875 
Q 45.65625 7.234375 40.5 3 
Q 35.359375 -1.21875 27.484375 -1.21875 
Q 17.140625 -1.21875 11.234375 6.203125 
Q 4.15625 15.140625 4.15625 35.296875 
z
M 13.1875 35.296875 
Q 13.1875 17.671875 17.3125 11.828125 
Q 21.4375 6 27.484375 6 
Q 33.546875 6 37.671875 11.859375 
Q 41.796875 17.71875 41.796875 35.296875 
Q 41.796875 52.984375 37.671875 58.78125 
Q 33.546875 64.59375 27.390625 64.59375 
Q 21.34375 64.59375 17.71875 59.46875 
Q 13.1875 52.9375 13.1875 35.296875 
z
" id="ArialMT-48"/>
       <path d="M 52.828125 31.203125 
L 5.5625 31.203125 
L 5.5625 39.40625 
L 52.828125 39.40625 
z
" id="ArialMT-8722"/>
      </defs>
      <g style="fill:#262626;" transform="translate(61.52211 314.122813)scale(0.11 -0.11)">
       <use transform="translate(0 0.99375)" xlink:href="#ArialMT-49"/>
       <use transform="translate(55.615234 0.99375)" xlink:href="#ArialMT-48"/>
       <use transform="translate(112.972813 70.6875)scale(0.7)" xlink:href="#ArialMT-8722"/>
       <use transform="translate(153.851719 70.6875)scale(0.7)" xlink:href="#ArialMT-49"/>
      </g>
     </g>
    </g>
    <g id="xtick_2">
     <g id="line2d_2">
      <path clip-path="url(#p4f241c4f99)" d="M 151.149168 293.279063 
L 151.149168 40.538625 
" style="fill:none;stroke:#ffffff;stroke-linecap:round;"/>
     </g>
     <g id="text_2">
      <!-- $\mathdefault{10^{0}}$ -->
      <g style="fill:#262626;" transform="translate(142.514168 314.122813)scale(0.11 -0.11)">
       <use transform="translate(0 0.99375)" xlink:href="#ArialMT-49"/>
       <use transform="translate(55.615234 0.99375)" xlink:href="#ArialMT-48"/>
       <use transform="translate(112.972813 70.6875)scale(0.7)" xlink:href="#ArialMT-48"/>
      </g>
     </g>
    </g>
    <g id="xtick_3">
     <g id="line2d_3">
      <path clip-path="url(#p4f241c4f99)" d="M 229.886226 293.279063 
L 229.886226 40.538625 
" style="fill:none;stroke:#ffffff;stroke-linecap:round;"/>
     </g>
     <g id="text_3">
      <!-- $\mathdefault{10^{1}}$ -->
      <g style="fill:#262626;" transform="translate(221.251226 314.122813)scale(0.11 -0.11)">
       <use transform="translate(0 0.99375)" xlink:href="#ArialMT-49"/>
       <use transform="translate(55.615234 0.99375)" xlink:href="#ArialMT-48"/>
       <use transform="translate(112.972813 70.6875)scale(0.7)" xlink:href="#ArialMT-49"/>
      </g>
     </g>
    </g>
    <g id="xtick_4">
     <g id="line2d_4">
      <path clip-path="url(#p4f241c4f99)" d="M 308.623284 293.279063 
L 308.623284 40.538625 
" style="fill:none;stroke:#ffffff;stroke-linecap:round;"/>
     </g>
     <g id="text_4">
      <!-- $\mathdefault{10^{2}}$ -->
      <defs>
       <path d="M 50.34375 8.453125 
L 50.34375 0 
L 3.03125 0 
Q 2.9375 3.171875 4.046875 6.109375 
Q 5.859375 10.9375 9.828125 15.625 
Q 13.8125 20.3125 21.34375 26.46875 
Q 33.015625 36.03125 37.109375 41.625 
Q 41.21875 47.21875 41.21875 52.203125 
Q 41.21875 57.421875 37.46875 61 
Q 33.734375 64.59375 27.734375 64.59375 
Q 21.390625 64.59375 17.578125 60.78125 
Q 13.765625 56.984375 13.71875 50.25 
L 4.6875 51.171875 
Q 5.609375 61.28125 11.65625 66.578125 
Q 17.71875 71.875 27.9375 71.875 
Q 38.234375 71.875 44.234375 66.15625 
Q 50.25 60.453125 50.25 52 
Q 50.25 47.703125 48.484375 43.546875 
Q 46.734375 39.40625 42.65625 34.8125 
Q 38.578125 30.21875 29.109375 22.21875 
Q 21.1875 15.578125 18.9375 13.203125 
Q 16.703125 10.84375 15.234375 8.453125 
z
" id="ArialMT-50"/>
      </defs>
      <g style="fill:#262626;" transform="translate(299.988284 314.122813)scale(0.11 -0.11)">
       <use transform="translate(0 0.99375)" xlink:href="#ArialMT-49"/>
       <use transform="translate(55.615234 0.99375)" xlink:href="#ArialMT-48"/>
       <use transform="translate(112.972813 70.6875)scale(0.7)" xlink:href="#ArialMT-50"/>
      </g>
     </g>
    </g>
    <g id="xtick_5">
     <g id="line2d_5">
      <path clip-path="url(#p4f241c4f99)" d="M 387.360342 293.279063 
L 387.360342 40.538625 
" style="fill:none;stroke:#ffffff;stroke-linecap:round;"/>
     </g>
     <g id="text_5">
      <!-- $\mathdefault{10^{3}}$ -->
      <defs>
       <path d="M 4.203125 18.890625 
L 12.984375 20.0625 
Q 14.5 12.59375 18.140625 9.296875 
Q 21.78125 6 27 6 
Q 33.203125 6 37.46875 10.296875 
Q 41.75 14.59375 41.75 20.953125 
Q 41.75 27 37.796875 30.921875 
Q 33.84375 34.859375 27.734375 34.859375 
Q 25.25 34.859375 21.53125 33.890625 
L 22.515625 41.609375 
Q 23.390625 41.5 23.921875 41.5 
Q 29.546875 41.5 34.03125 44.421875 
Q 38.53125 47.359375 38.53125 53.46875 
Q 38.53125 58.296875 35.25 61.46875 
Q 31.984375 64.65625 26.8125 64.65625 
Q 21.6875 64.65625 18.265625 61.421875 
Q 14.84375 58.203125 13.875 51.765625 
L 5.078125 53.328125 
Q 6.6875 62.15625 12.390625 67.015625 
Q 18.109375 71.875 26.609375 71.875 
Q 32.46875 71.875 37.390625 69.359375 
Q 42.328125 66.84375 44.9375 62.5 
Q 47.5625 58.15625 47.5625 53.265625 
Q 47.5625 48.640625 45.0625 44.828125 
Q 42.578125 41.015625 37.703125 38.765625 
Q 44.046875 37.3125 47.5625 32.6875 
Q 51.078125 28.078125 51.078125 21.140625 
Q 51.078125 11.765625 44.234375 5.25 
Q 37.40625 -1.265625 26.953125 -1.265625 
Q 17.53125 -1.265625 11.296875 4.34375 
Q 5.078125 9.96875 4.203125 18.890625 
z
" id="ArialMT-51"/>
      </defs>
      <g style="fill:#262626;" transform="translate(378.725342 314.122813)scale(0.11 -0.11)">
       <use transform="translate(0 0.99375)" xlink:href="#ArialMT-49"/>
       <use transform="translate(55.615234 0.99375)" xlink:href="#ArialMT-48"/>
       <use transform="translate(112.972813 70.6875)scale(0.7)" xlink:href="#ArialMT-51"/>
      </g>
     </g>
    </g>
    <g id="xtick_6"/>
    <g id="xtick_7"/>
    <g id="xtick_8"/>
    <g id="xtick_9"/>
    <g id="xtick_10"/>
    <g id="xtick_11"/>
    <g id="xtick_12"/>
    <g id="xtick_13"/>
    <g id="xtick_14"/>
    <g id="xtick_15"/>
    <g id="xtick_16"/>
    <g id="xtick_17"/>
    <g id="xtick_18"/>
    <g id="xtick_19"/>
    <g id="xtick_20"/>
    <g id="xtick_21"/>
    <g id="xtick_22"/>
    <g id="xtick_23"/>
    <g id="xtick_24"/>
    <g id="xtick_25"/>
    <g id="xtick_26"/>
    <g id="xtick_27"/>
    <g id="xtick_28"/>
    <g id="xtick_29"/>
    <g id="xtick_30"/>
    <g id="xtick_31"/>
    <g id="xtick_32"/>
    <g id="xtick_33"/>
    <g id="xtick_34"/>
    <g id="xtick_35"/>
    <g id="xtick_36"/>
    <g id="xtick_37"/>
    <g id="xtick_38"/>
    <g id="xtick_39"/>
    <g id="xtick_40"/>
    <g id="xtick_41"/>
    <g id="xtick_42"/>
    <g id="xtick_43"/>
    <g id="xtick_44"/>
    <g id="xtick_45"/>
    <g id="text_6">
     <!-- Duration [mins] -->
     <defs>
      <path d="M 7.71875 0 
L 7.71875 71.578125 
L 32.375 71.578125 
Q 40.71875 71.578125 45.125 70.5625 
Q 51.265625 69.140625 55.609375 65.4375 
Q 61.28125 60.640625 64.078125 53.1875 
Q 66.890625 45.75 66.890625 36.1875 
Q 66.890625 28.03125 64.984375 21.734375 
Q 63.09375 15.4375 60.109375 11.296875 
Q 57.125 7.171875 53.578125 4.796875 
Q 50.046875 2.4375 45.046875 1.21875 
Q 40.046875 0 33.546875 0 
z
M 17.1875 8.453125 
L 32.46875 8.453125 
Q 39.546875 8.453125 43.578125 9.765625 
Q 47.609375 11.078125 50 13.484375 
Q 53.375 16.84375 55.25 22.53125 
Q 57.125 28.21875 57.125 36.328125 
Q 57.125 47.5625 53.4375 53.59375 
Q 49.75 59.625 44.484375 61.671875 
Q 40.671875 63.140625 32.234375 63.140625 
L 17.1875 63.140625 
z
" id="ArialMT-68"/>
      <path d="M 40.578125 0 
L 40.578125 7.625 
Q 34.515625 -1.171875 24.125 -1.171875 
Q 19.53125 -1.171875 15.546875 0.578125 
Q 11.578125 2.34375 9.640625 5 
Q 7.71875 7.671875 6.9375 11.53125 
Q 6.390625 14.109375 6.390625 19.734375 
L 6.390625 51.859375 
L 15.1875 51.859375 
L 15.1875 23.09375 
Q 15.1875 16.21875 15.71875 13.8125 
Q 16.546875 10.359375 19.234375 8.375 
Q 21.921875 6.390625 25.875 6.390625 
Q 29.828125 6.390625 33.296875 8.421875 
Q 36.765625 10.453125 38.203125 13.9375 
Q 39.65625 17.4375 39.65625 24.078125 
L 39.65625 51.859375 
L 48.4375 51.859375 
L 48.4375 0 
z
" id="ArialMT-117"/>
      <path d="M 6.5 0 
L 6.5 51.859375 
L 14.40625 51.859375 
L 14.40625 44 
Q 17.4375 49.515625 20 51.265625 
Q 22.5625 53.03125 25.640625 53.03125 
Q 30.078125 53.03125 34.671875 50.203125 
L 31.640625 42.046875 
Q 28.421875 43.953125 25.203125 43.953125 
Q 22.3125 43.953125 20.015625 42.21875 
Q 17.71875 40.484375 16.75 37.40625 
Q 15.28125 32.71875 15.28125 27.15625 
L 15.28125 0 
z
" id="ArialMT-114"/>
      <path d="M 40.4375 6.390625 
Q 35.546875 2.25 31.03125 0.53125 
Q 26.515625 -1.171875 21.34375 -1.171875 
Q 12.796875 -1.171875 8.203125 3 
Q 3.609375 7.171875 3.609375 13.671875 
Q 3.609375 17.484375 5.34375 20.625 
Q 7.078125 23.78125 9.890625 25.6875 
Q 12.703125 27.59375 16.21875 28.5625 
Q 18.796875 29.25 24.03125 29.890625 
Q 34.671875 31.15625 39.703125 32.90625 
Q 39.75 34.71875 39.75 35.203125 
Q 39.75 40.578125 37.25 42.78125 
Q 33.890625 45.75 27.25 45.75 
Q 21.046875 45.75 18.09375 43.578125 
Q 15.140625 41.40625 13.71875 35.890625 
L 5.125 37.0625 
Q 6.296875 42.578125 8.984375 45.96875 
Q 11.671875 49.359375 16.75 51.1875 
Q 21.828125 53.03125 28.515625 53.03125 
Q 35.15625 53.03125 39.296875 51.46875 
Q 43.453125 49.90625 45.40625 47.53125 
Q 47.359375 45.171875 48.140625 41.546875 
Q 48.578125 39.3125 48.578125 33.453125 
L 48.578125 21.734375 
Q 48.578125 9.46875 49.140625 6.21875 
Q 49.703125 2.984375 51.375 0 
L 42.1875 0 
Q 40.828125 2.734375 40.4375 6.390625 
z
M 39.703125 26.03125 
Q 34.90625 24.078125 25.34375 22.703125 
Q 19.921875 21.921875 17.671875 20.9375 
Q 15.4375 19.96875 14.203125 18.09375 
Q 12.984375 16.21875 12.984375 13.921875 
Q 12.984375 10.40625 15.640625 8.0625 
Q 18.3125 5.71875 23.4375 5.71875 
Q 28.515625 5.71875 32.46875 7.9375 
Q 36.421875 10.15625 38.28125 14.015625 
Q 39.703125 17 39.703125 22.796875 
z
" id="ArialMT-97"/>
      <path d="M 25.78125 7.859375 
L 27.046875 0.09375 
Q 23.34375 -0.6875 20.40625 -0.6875 
Q 15.625 -0.6875 12.984375 0.828125 
Q 10.359375 2.34375 9.28125 4.8125 
Q 8.203125 7.28125 8.203125 15.1875 
L 8.203125 45.015625 
L 1.765625 45.015625 
L 1.765625 51.859375 
L 8.203125 51.859375 
L 8.203125 64.703125 
L 16.9375 69.96875 
L 16.9375 51.859375 
L 25.78125 51.859375 
L 25.78125 45.015625 
L 16.9375 45.015625 
L 16.9375 14.703125 
Q 16.9375 10.9375 17.40625 9.859375 
Q 17.875 8.796875 18.921875 8.15625 
Q 19.96875 7.515625 21.921875 7.515625 
Q 23.390625 7.515625 25.78125 7.859375 
z
" id="ArialMT-116"/>
      <path d="M 6.640625 61.46875 
L 6.640625 71.578125 
L 15.4375 71.578125 
L 15.4375 61.46875 
z
M 6.640625 0 
L 6.640625 51.859375 
L 15.4375 51.859375 
L 15.4375 0 
z
" id="ArialMT-105"/>
      <path d="M 3.328125 25.921875 
Q 3.328125 40.328125 11.328125 47.265625 
Q 18.015625 53.03125 27.640625 53.03125 
Q 38.328125 53.03125 45.109375 46.015625 
Q 51.90625 39.015625 51.90625 26.65625 
Q 51.90625 16.65625 48.90625 10.90625 
Q 45.90625 5.171875 40.15625 2 
Q 34.421875 -1.171875 27.640625 -1.171875 
Q 16.75 -1.171875 10.03125 5.8125 
Q 3.328125 12.796875 3.328125 25.921875 
z
M 12.359375 25.921875 
Q 12.359375 15.96875 16.703125 11.015625 
Q 21.046875 6.0625 27.640625 6.0625 
Q 34.1875 6.0625 38.53125 11.03125 
Q 42.875 16.015625 42.875 26.21875 
Q 42.875 35.84375 38.5 40.796875 
Q 34.125 45.75 27.640625 45.75 
Q 21.046875 45.75 16.703125 40.8125 
Q 12.359375 35.890625 12.359375 25.921875 
z
" id="ArialMT-111"/>
      <path d="M 6.59375 0 
L 6.59375 51.859375 
L 14.5 51.859375 
L 14.5 44.484375 
Q 20.21875 53.03125 31 53.03125 
Q 35.6875 53.03125 39.625 51.34375 
Q 43.5625 49.65625 45.515625 46.921875 
Q 47.46875 44.1875 48.25 40.4375 
Q 48.734375 37.984375 48.734375 31.890625 
L 48.734375 0 
L 39.9375 0 
L 39.9375 31.546875 
Q 39.9375 36.921875 38.90625 39.578125 
Q 37.890625 42.234375 35.28125 43.8125 
Q 32.671875 45.40625 29.15625 45.40625 
Q 23.53125 45.40625 19.453125 41.84375 
Q 15.375 38.28125 15.375 28.328125 
L 15.375 0 
z
" id="ArialMT-110"/>
      <path id="ArialMT-32"/>
      <path d="M 6.78125 -19.875 
L 6.78125 71.578125 
L 26.171875 71.578125 
L 26.171875 64.3125 
L 15.578125 64.3125 
L 15.578125 -12.59375 
L 26.171875 -12.59375 
L 26.171875 -19.875 
z
" id="ArialMT-91"/>
      <path d="M 6.59375 0 
L 6.59375 51.859375 
L 14.453125 51.859375 
L 14.453125 44.578125 
Q 16.890625 48.390625 20.9375 50.703125 
Q 25 53.03125 30.171875 53.03125 
Q 35.9375 53.03125 39.625 50.640625 
Q 43.3125 48.25 44.828125 43.953125 
Q 50.984375 53.03125 60.84375 53.03125 
Q 68.5625 53.03125 72.703125 48.75 
Q 76.859375 44.484375 76.859375 35.59375 
L 76.859375 0 
L 68.109375 0 
L 68.109375 32.671875 
Q 68.109375 37.9375 67.25 40.25 
Q 66.40625 42.578125 64.15625 43.984375 
Q 61.921875 45.40625 58.890625 45.40625 
Q 53.421875 45.40625 49.796875 41.765625 
Q 46.1875 38.140625 46.1875 30.125 
L 46.1875 0 
L 37.40625 0 
L 37.40625 33.6875 
Q 37.40625 39.546875 35.25 42.46875 
Q 33.109375 45.40625 28.21875 45.40625 
Q 24.515625 45.40625 21.359375 43.453125 
Q 18.21875 41.5 16.796875 37.734375 
Q 15.375 33.984375 15.375 26.90625 
L 15.375 0 
z
" id="ArialMT-109"/>
      <path d="M 3.078125 15.484375 
L 11.765625 16.84375 
Q 12.5 11.625 15.84375 8.84375 
Q 19.1875 6.0625 25.203125 6.0625 
Q 31.25 6.0625 34.171875 8.515625 
Q 37.109375 10.984375 37.109375 14.3125 
Q 37.109375 17.28125 34.515625 19 
Q 32.71875 20.171875 25.53125 21.96875 
Q 15.875 24.421875 12.140625 26.203125 
Q 8.40625 27.984375 6.46875 31.125 
Q 4.546875 34.28125 4.546875 38.09375 
Q 4.546875 41.546875 6.125 44.5 
Q 7.71875 47.46875 10.453125 49.421875 
Q 12.5 50.921875 16.03125 51.96875 
Q 19.578125 53.03125 23.640625 53.03125 
Q 29.734375 53.03125 34.34375 51.265625 
Q 38.96875 49.515625 41.15625 46.5 
Q 43.359375 43.5 44.1875 38.484375 
L 35.59375 37.3125 
Q 35.015625 41.3125 32.203125 43.546875 
Q 29.390625 45.796875 24.265625 45.796875 
Q 18.21875 45.796875 15.625 43.796875 
Q 13.03125 41.796875 13.03125 39.109375 
Q 13.03125 37.40625 14.109375 36.03125 
Q 15.1875 34.625 17.484375 33.6875 
Q 18.796875 33.203125 25.25 31.453125 
Q 34.578125 28.953125 38.25 27.359375 
Q 41.9375 25.78125 44.03125 22.75 
Q 46.140625 19.734375 46.140625 15.234375 
Q 46.140625 10.84375 43.578125 6.953125 
Q 41.015625 3.078125 36.171875 0.953125 
Q 31.34375 -1.171875 25.25 -1.171875 
Q 15.140625 -1.171875 9.84375 3.03125 
Q 4.546875 7.234375 3.078125 15.484375 
z
" id="ArialMT-115"/>
      <path d="M 21.296875 -19.875 
L 1.90625 -19.875 
L 1.90625 -12.59375 
L 12.5 -12.59375 
L 12.5 64.3125 
L 1.90625 64.3125 
L 1.90625 71.578125 
L 21.296875 71.578125 
z
" id="ArialMT-93"/>
     </defs>
     <g style="fill:#262626;" transform="translate(210.94083 328.898438)scale(0.12 -0.12)">
      <use xlink:href="#ArialMT-68"/>
      <use x="72.216797" xlink:href="#ArialMT-117"/>
      <use x="127.832031" xlink:href="#ArialMT-114"/>
      <use x="161.132812" xlink:href="#ArialMT-97"/>
      <use x="216.748047" xlink:href="#ArialMT-116"/>
      <use x="244.53125" xlink:href="#ArialMT-105"/>
      <use x="266.748047" xlink:href="#ArialMT-111"/>
      <use x="322.363281" xlink:href="#ArialMT-110"/>
      <use x="377.978516" xlink:href="#ArialMT-32"/>
      <use x="405.761719" xlink:href="#ArialMT-91"/>
      <use x="433.544922" xlink:href="#ArialMT-109"/>
      <use x="516.845703" xlink:href="#ArialMT-105"/>
      <use x="539.0625" xlink:href="#ArialMT-110"/>
      <use x="594.677734" xlink:href="#ArialMT-115"/>
      <use x="644.677734" xlink:href="#ArialMT-93"/>
     </g>
    </g>
   </g>
   <g id="matplotlib.axis_2">
    <g id="ytick_1">
     <g id="line2d_6">
      <path clip-path="url(#p4f241c4f99)" d="M 54.732284 256.738499 
L 447.84 256.738499 
" style="fill:none;stroke:#ffffff;stroke-linecap:round;"/>
     </g>
     <g id="text_7">
      <!-- $\mathdefault{10^{2}}$ -->
      <g style="fill:#262626;" transform="translate(27.962284 262.410374)scale(0.11 -0.11)">
       <use transform="translate(0 0.99375)" xlink:href="#ArialMT-49"/>
       <use transform="translate(55.615234 0.99375)" xlink:href="#ArialMT-48"/>
       <use transform="translate(112.972813 70.6875)scale(0.7)" xlink:href="#ArialMT-50"/>
      </g>
     </g>
    </g>
    <g id="ytick_2">
     <g id="line2d_7">
      <path clip-path="url(#p4f241c4f99)" d="M 54.732284 88.686814 
L 447.84 88.686814 
" style="fill:none;stroke:#ffffff;stroke-linecap:round;"/>
     </g>
     <g id="text_8">
      <!-- $\mathdefault{10^{3}}$ -->
      <g style="fill:#262626;" transform="translate(27.962284 94.358689)scale(0.11 -0.11)">
       <use transform="translate(0 0.99375)" xlink:href="#ArialMT-49"/>
       <use transform="translate(55.615234 0.99375)" xlink:href="#ArialMT-48"/>
       <use transform="translate(112.972813 70.6875)scale(0.7)" xlink:href="#ArialMT-51"/>
      </g>
     </g>
    </g>
    <g id="ytick_3"/>
    <g id="ytick_4"/>
    <g id="ytick_5"/>
    <g id="ytick_6"/>
    <g id="ytick_7"/>
    <g id="ytick_8"/>
    <g id="ytick_9"/>
    <g id="ytick_10"/>
    <g id="ytick_11"/>
    <g id="ytick_12"/>
    <g id="ytick_13"/>
    <g id="text_9">
     <!-- Maximum Sustainable Power [W] -->
     <defs>
      <path d="M 7.421875 0 
L 7.421875 71.578125 
L 21.6875 71.578125 
L 38.625 20.90625 
Q 40.96875 13.8125 42.046875 10.296875 
Q 43.265625 14.203125 45.84375 21.78125 
L 62.984375 71.578125 
L 75.734375 71.578125 
L 75.734375 0 
L 66.609375 0 
L 66.609375 59.90625 
L 45.796875 0 
L 37.25 0 
L 16.546875 60.9375 
L 16.546875 0 
z
" id="ArialMT-77"/>
      <path d="M 0.734375 0 
L 19.671875 26.953125 
L 2.15625 51.859375 
L 13.140625 51.859375 
L 21.09375 39.703125 
Q 23.34375 36.234375 24.703125 33.890625 
Q 26.859375 37.109375 28.65625 39.59375 
L 37.40625 51.859375 
L 47.90625 51.859375 
L 29.984375 27.4375 
L 49.265625 0 
L 38.484375 0 
L 27.828125 16.109375 
L 25 20.453125 
L 11.375 0 
z
" id="ArialMT-120"/>
      <path d="M 4.5 23 
L 13.421875 23.78125 
Q 14.0625 18.40625 16.375 14.96875 
Q 18.703125 11.53125 23.578125 9.40625 
Q 28.46875 7.28125 34.578125 7.28125 
Q 39.984375 7.28125 44.140625 8.890625 
Q 48.296875 10.5 50.3125 13.296875 
Q 52.34375 16.109375 52.34375 19.4375 
Q 52.34375 22.796875 50.390625 25.3125 
Q 48.4375 27.828125 43.953125 29.546875 
Q 41.0625 30.671875 31.203125 33.03125 
Q 21.34375 35.40625 17.390625 37.5 
Q 12.25 40.1875 9.734375 44.15625 
Q 7.234375 48.140625 7.234375 53.078125 
Q 7.234375 58.5 10.296875 63.203125 
Q 13.375 67.921875 19.28125 70.359375 
Q 25.203125 72.796875 32.421875 72.796875 
Q 40.375 72.796875 46.453125 70.234375 
Q 52.546875 67.671875 55.8125 62.6875 
Q 59.078125 57.71875 59.328125 51.421875 
L 50.25 50.734375 
Q 49.515625 57.515625 45.28125 60.984375 
Q 41.0625 64.453125 32.8125 64.453125 
Q 24.21875 64.453125 20.28125 61.296875 
Q 16.359375 58.15625 16.359375 53.71875 
Q 16.359375 49.859375 19.140625 47.359375 
Q 21.875 44.875 33.421875 42.265625 
Q 44.96875 39.65625 49.265625 37.703125 
Q 55.515625 34.8125 58.484375 30.390625 
Q 61.46875 25.984375 61.46875 20.21875 
Q 61.46875 14.5 58.203125 9.4375 
Q 54.9375 4.390625 48.796875 1.578125 
Q 42.671875 -1.21875 35.015625 -1.21875 
Q 25.296875 -1.21875 18.71875 1.609375 
Q 12.15625 4.4375 8.421875 10.125 
Q 4.6875 15.828125 4.5 23 
z
" id="ArialMT-83"/>
      <path d="M 14.703125 0 
L 6.546875 0 
L 6.546875 71.578125 
L 15.328125 71.578125 
L 15.328125 46.046875 
Q 20.90625 53.03125 29.546875 53.03125 
Q 34.328125 53.03125 38.59375 51.09375 
Q 42.875 49.171875 45.625 45.671875 
Q 48.390625 42.1875 49.953125 37.25 
Q 51.515625 32.328125 51.515625 26.703125 
Q 51.515625 13.375 44.921875 6.09375 
Q 38.328125 -1.171875 29.109375 -1.171875 
Q 19.921875 -1.171875 14.703125 6.5 
z
M 14.59375 26.3125 
Q 14.59375 17 17.140625 12.84375 
Q 21.296875 6.0625 28.375 6.0625 
Q 34.125 6.0625 38.328125 11.0625 
Q 42.53125 16.0625 42.53125 25.984375 
Q 42.53125 36.140625 38.5 40.96875 
Q 34.46875 45.796875 28.765625 45.796875 
Q 23 45.796875 18.796875 40.796875 
Q 14.59375 35.796875 14.59375 26.3125 
z
" id="ArialMT-98"/>
      <path d="M 6.390625 0 
L 6.390625 71.578125 
L 15.1875 71.578125 
L 15.1875 0 
z
" id="ArialMT-108"/>
      <path d="M 42.09375 16.703125 
L 51.171875 15.578125 
Q 49.03125 7.625 43.21875 3.21875 
Q 37.40625 -1.171875 28.375 -1.171875 
Q 17 -1.171875 10.328125 5.828125 
Q 3.65625 12.84375 3.65625 25.484375 
Q 3.65625 38.578125 10.390625 45.796875 
Q 17.140625 53.03125 27.875 53.03125 
Q 38.28125 53.03125 44.875 45.953125 
Q 51.46875 38.875 51.46875 26.03125 
Q 51.46875 25.25 51.421875 23.6875 
L 12.75 23.6875 
Q 13.234375 15.140625 17.578125 10.59375 
Q 21.921875 6.0625 28.421875 6.0625 
Q 33.25 6.0625 36.671875 8.59375 
Q 40.09375 11.140625 42.09375 16.703125 
z
M 13.234375 30.90625 
L 42.1875 30.90625 
Q 41.609375 37.453125 38.875 40.71875 
Q 34.671875 45.796875 27.984375 45.796875 
Q 21.921875 45.796875 17.796875 41.75 
Q 13.671875 37.703125 13.234375 30.90625 
z
" id="ArialMT-101"/>
      <path d="M 7.71875 0 
L 7.71875 71.578125 
L 34.71875 71.578125 
Q 41.84375 71.578125 45.609375 70.90625 
Q 50.875 70.015625 54.4375 67.546875 
Q 58.015625 65.09375 60.1875 60.640625 
Q 62.359375 56.203125 62.359375 50.875 
Q 62.359375 41.75 56.546875 35.421875 
Q 50.734375 29.109375 35.546875 29.109375 
L 17.1875 29.109375 
L 17.1875 0 
z
M 17.1875 37.546875 
L 35.6875 37.546875 
Q 44.875 37.546875 48.734375 40.96875 
Q 52.59375 44.390625 52.59375 50.59375 
Q 52.59375 55.078125 50.3125 58.265625 
Q 48.046875 61.46875 44.34375 62.5 
Q 41.9375 63.140625 35.5 63.140625 
L 17.1875 63.140625 
z
" id="ArialMT-80"/>
      <path d="M 16.15625 0 
L 0.296875 51.859375 
L 9.375 51.859375 
L 17.625 21.921875 
L 20.703125 10.796875 
Q 20.90625 11.625 23.390625 21.484375 
L 31.640625 51.859375 
L 40.671875 51.859375 
L 48.4375 21.78125 
L 51.03125 11.859375 
L 54 21.875 
L 62.890625 51.859375 
L 71.4375 51.859375 
L 55.21875 0 
L 46.09375 0 
L 37.84375 31.0625 
L 35.84375 39.890625 
L 25.34375 0 
z
" id="ArialMT-119"/>
      <path d="M 20.21875 0 
L 1.21875 71.578125 
L 10.9375 71.578125 
L 21.828125 24.65625 
Q 23.578125 17.28125 24.859375 10.015625 
Q 27.59375 21.484375 28.078125 23.25 
L 41.703125 71.578125 
L 53.125 71.578125 
L 63.375 35.359375 
Q 67.234375 21.875 68.953125 10.015625 
Q 70.3125 16.796875 72.515625 25.59375 
L 83.734375 71.578125 
L 93.265625 71.578125 
L 73.640625 0 
L 64.5 0 
L 49.421875 54.546875 
Q 47.515625 61.375 47.171875 62.9375 
Q 46.046875 58.015625 45.0625 54.546875 
L 29.890625 0 
z
" id="ArialMT-87"/>
     </defs>
     <g style="fill:#262626;" transform="translate(21.577284 255.267281)rotate(-90)scale(0.12 -0.12)">
      <use xlink:href="#ArialMT-77"/>
      <use x="83.300781" xlink:href="#ArialMT-97"/>
      <use x="138.916016" xlink:href="#ArialMT-120"/>
      <use x="188.916016" xlink:href="#ArialMT-105"/>
      <use x="211.132812" xlink:href="#ArialMT-109"/>
      <use x="294.433594" xlink:href="#ArialMT-117"/>
      <use x="350.048828" xlink:href="#ArialMT-109"/>
      <use x="433.349609" xlink:href="#ArialMT-32"/>
      <use x="461.132812" xlink:href="#ArialMT-83"/>
      <use x="527.832031" xlink:href="#ArialMT-117"/>
      <use x="583.447266" xlink:href="#ArialMT-115"/>
      <use x="633.447266" xlink:href="#ArialMT-116"/>
      <use x="661.230469" xlink:href="#ArialMT-97"/>
      <use x="716.845703" xlink:href="#ArialMT-105"/>
      <use x="739.0625" xlink:href="#ArialMT-110"/>
      <use x="794.677734" xlink:href="#ArialMT-97"/>
      <use x="850.292969" xlink:href="#ArialMT-98"/>
      <use x="905.908203" xlink:href="#ArialMT-108"/>
      <use x="928.125" xlink:href="#ArialMT-101"/>
      <use x="983.740234" xlink:href="#ArialMT-32"/>
      <use x="1011.523438" xlink:href="#ArialMT-80"/>
      <use x="1078.222656" xlink:href="#ArialMT-111"/>
      <use x="1133.837891" xlink:href="#ArialMT-119"/>
      <use x="1206.054688" xlink:href="#ArialMT-101"/>
      <use x="1261.669922" xlink:href="#ArialMT-114"/>
      <use x="1294.970703" xlink:href="#ArialMT-32"/>
      <use x="1322.753906" xlink:href="#ArialMT-91"/>
      <use x="1350.537109" xlink:href="#ArialMT-87"/>
      <use x="1444.921875" xlink:href="#ArialMT-93"/>
     </g>
    </g>
   </g>
   <g id="line2d_8">
    <defs>
     <path d="M 0 1.5 
C 0.397805 1.5 0.77937 1.341951 1.06066 1.06066 
C 1.341951 0.77937 1.5 0.397805 1.5 0 
C 1.5 -0.397805 1.341951 -0.77937 1.06066 -1.06066 
C 0.77937 -1.341951 0.397805 -1.5 0 -1.5 
C -0.397805 -1.5 -0.77937 -1.341951 -1.06066 -1.06066 
C -1.341951 -0.77937 -1.5 -0.397805 -1.5 0 
C -1.5 0.397805 -1.341951 0.77937 -1.06066 1.06066 
C -0.77937 1.341951 -0.397805 1.5 0 1.5 
z
" id="m5dca23dcde" style="stroke:#4c72b0;"/>
    </defs>
    <g clip-path="url(#p4f241c4f99)">
     <use style="fill:#4c72b0;stroke:#4c72b0;" x="73.238438" xlink:href="#m5dca23dcde" y="111.415203"/>
     <use style="fill:#4c72b0;stroke:#4c72b0;" x="76.215815" xlink:href="#m5dca23dcde" y="113.613674"/>
     <use style="fill:#4c72b0;stroke:#4c72b0;" x="78.767597" xlink:href="#m5dca23dcde" y="115.750067"/>
     <use style="fill:#4c72b0;stroke:#4c72b0;" x="81.532105" xlink:href="#m5dca23dcde" y="118.074711"/>
     <use style="fill:#4c72b0;stroke:#4c72b0;" x="84.509344" xlink:href="#m5dca23dcde" y="120.60146"/>
     <use style="fill:#4c72b0;stroke:#4c72b0;" x="87.486749" xlink:href="#m5dca23dcde" y="123.075359"/>
     <use style="fill:#4c72b0;stroke:#4c72b0;" x="90.464267" xlink:href="#m5dca23dcde" y="125.537165"/>
     <use style="fill:#4c72b0;stroke:#4c72b0;" x="93.654645" xlink:href="#m5dca23dcde" y="128.104109"/>
     <use style="fill:#4c72b0;stroke:#4c72b0;" x="97.270581" xlink:href="#m5dca23dcde" y="130.961026"/>
     <use style="fill:#4c72b0;stroke:#4c72b0;" x="101.099414" xlink:href="#m5dca23dcde" y="133.918178"/>
     <use style="fill:#4c72b0;stroke:#4c72b0;" x="104.928494" xlink:href="#m5dca23dcde" y="136.745828"/>
     <use style="fill:#4c72b0;stroke:#4c72b0;" x="108.970462" xlink:href="#m5dca23dcde" y="139.679686"/>
     <use style="fill:#4c72b0;stroke:#4c72b0;" x="113.438085" xlink:href="#m5dca23dcde" y="142.858901"/>
     <use style="fill:#4c72b0;stroke:#4c72b0;" x="118.118833" xlink:href="#m5dca23dcde" y="145.898346"/>
     <use style="fill:#4c72b0;stroke:#4c72b0;" x="122.799757" xlink:href="#m5dca23dcde" y="148.853152"/>
     <use style="fill:#4c72b0;stroke:#4c72b0;" x="127.480895" xlink:href="#m5dca23dcde" y="151.662257"/>
     <use style="fill:#4c72b0;stroke:#4c72b0;" x="132.162258" xlink:href="#m5dca23dcde" y="154.287904"/>
     <use style="fill:#4c72b0;stroke:#4c72b0;" x="136.84381" xlink:href="#m5dca23dcde" y="156.753854"/>
     <use style="fill:#4c72b0;stroke:#4c72b0;" x="141.52554" xlink:href="#m5dca23dcde" y="159.056726"/>
     <use style="fill:#4c72b0;stroke:#4c72b0;" x="146.207459" xlink:href="#m5dca23dcde" y="161.160872"/>
     <use style="fill:#4c72b0;stroke:#4c72b0;" x="150.889568" xlink:href="#m5dca23dcde" y="163.046544"/>
     <use style="fill:#4c72b0;stroke:#4c72b0;" x="155.571795" xlink:href="#m5dca23dcde" y="164.80249"/>
     <use style="fill:#4c72b0;stroke:#4c72b0;" x="160.254211" xlink:href="#m5dca23dcde" y="166.30792"/>
     <use style="fill:#4c72b0;stroke:#4c72b0;" x="164.794845" xlink:href="#m5dca23dcde" y="167.626222"/>
     <use style="fill:#4c72b0;stroke:#4c72b0;" x="169.619446" xlink:href="#m5dca23dcde" y="168.767957"/>
     <use style="fill:#4c72b0;stroke:#4c72b0;" x="174.302253" xlink:href="#m5dca23dcde" y="169.721879"/>
     <use style="fill:#4c72b0;stroke:#4c72b0;" x="178.985166" xlink:href="#m5dca23dcde" y="170.513507"/>
     <use style="fill:#4c72b0;stroke:#4c72b0;" x="183.668139" xlink:href="#m5dca23dcde" y="171.215745"/>
     <use style="fill:#4c72b0;stroke:#4c72b0;" x="188.351052" xlink:href="#m5dca23dcde" y="172.023835"/>
     <use style="fill:#4c72b0;stroke:#4c72b0;" x="193.033978" xlink:href="#m5dca23dcde" y="172.820932"/>
     <use style="fill:#4c72b0;stroke:#4c72b0;" x="197.716891" xlink:href="#m5dca23dcde" y="173.647093"/>
     <use style="fill:#4c72b0;stroke:#4c72b0;" x="202.399816" xlink:href="#m5dca23dcde" y="174.462218"/>
     <use style="fill:#4c72b0;stroke:#4c72b0;" x="207.082742" xlink:href="#m5dca23dcde" y="175.286549"/>
     <use style="fill:#4c72b0;stroke:#4c72b0;" x="211.765608" xlink:href="#m5dca23dcde" y="176.225189"/>
     <use style="fill:#4c72b0;stroke:#4c72b0;" x="216.448486" xlink:href="#m5dca23dcde" y="177.154793"/>
     <use style="fill:#4c72b0;stroke:#4c72b0;" x="221.131364" xlink:href="#m5dca23dcde" y="178.09639"/>
     <use style="fill:#4c72b0;stroke:#4c72b0;" x="225.814194" xlink:href="#m5dca23dcde" y="179.137634"/>
     <use style="fill:#4c72b0;stroke:#4c72b0;" x="230.496966" xlink:href="#m5dca23dcde" y="180.304866"/>
     <use style="fill:#4c72b0;stroke:#4c72b0;" x="235.179725" xlink:href="#m5dca23dcde" y="181.513636"/>
     <use style="fill:#4c72b0;stroke:#4c72b0;" x="239.862402" xlink:href="#m5dca23dcde" y="182.903622"/>
     <use style="fill:#4c72b0;stroke:#4c72b0;" x="244.545067" xlink:href="#m5dca23dcde" y="184.344054"/>
     <use style="fill:#4c72b0;stroke:#4c72b0;" x="249.227601" xlink:href="#m5dca23dcde" y="186.077314"/>
     <use style="fill:#4c72b0;stroke:#4c72b0;" x="253.910041" xlink:href="#m5dca23dcde" y="188.049958"/>
     <use style="fill:#4c72b0;stroke:#4c72b0;" x="258.592422" xlink:href="#m5dca23dcde" y="190.204421"/>
     <use style="fill:#4c72b0;stroke:#4c72b0;" x="263.274696" xlink:href="#m5dca23dcde" y="192.660699"/>
     <use style="fill:#4c72b0;stroke:#4c72b0;" x="267.956959" xlink:href="#m5dca23dcde" y="195.229764"/>
     <use style="fill:#4c72b0;stroke:#4c72b0;" x="270.936656" xlink:href="#m5dca23dcde" y="196.734156"/>
     <use style="fill:#4c72b0;stroke:#4c72b0;" x="287.111405" xlink:href="#m5dca23dcde" y="207.511116"/>
     <use style="fill:#4c72b0;stroke:#4c72b0;" x="291.155194" xlink:href="#m5dca23dcde" y="210.186236"/>
     <use style="fill:#4c72b0;stroke:#4c72b0;" x="298.178439" xlink:href="#m5dca23dcde" y="215.615448"/>
     <use style="fill:#4c72b0;stroke:#4c72b0;" x="302.222213" xlink:href="#m5dca23dcde" y="218.658193"/>
     <use style="fill:#4c72b0;stroke:#4c72b0;" x="309.24558" xlink:href="#m5dca23dcde" y="224.367097"/>
     <use style="fill:#4c72b0;stroke:#4c72b0;" x="313.289412" xlink:href="#m5dca23dcde" y="227.599557"/>
     <use style="fill:#4c72b0;stroke:#4c72b0;" x="320.312863" xlink:href="#m5dca23dcde" y="233.756764"/>
     <use style="fill:#4c72b0;stroke:#4c72b0;" x="324.569708" xlink:href="#m5dca23dcde" y="236.909907"/>
     <use style="fill:#4c72b0;stroke:#4c72b0;" x="331.806076" xlink:href="#m5dca23dcde" y="243.789791"/>
     <use style="fill:#4c72b0;stroke:#4c72b0;" x="335.84998" xlink:href="#m5dca23dcde" y="247.693833"/>
     <use style="fill:#4c72b0;stroke:#4c72b0;" x="342.873714" xlink:href="#m5dca23dcde" y="254.437739"/>
     <use style="fill:#4c72b0;stroke:#4c72b0;" x="347.130619" xlink:href="#m5dca23dcde" y="258.319589"/>
     <use style="fill:#4c72b0;stroke:#4c72b0;" x="354.524545" xlink:href="#m5dca23dcde" y="265.524381"/>
     <use style="fill:#4c72b0;stroke:#4c72b0;" x="359.716439" xlink:href="#m5dca23dcde" y="271.132271"/>
     <use style="fill:#4c72b0;stroke:#4c72b0;" x="365.861097" xlink:href="#m5dca23dcde" y="277.706074"/>
     <use style="fill:#4c72b0;stroke:#4c72b0;" x="370.118175" xlink:href="#m5dca23dcde" y="281.790861"/>
    </g>
   </g>
   <g id="line2d_9">
    <defs>
     <path d="M 0 1.5 
C 0.397805 1.5 0.77937 1.341951 1.06066 1.06066 
C 1.341951 0.77937 1.5 0.397805 1.5 0 
C 1.5 -0.397805 1.341951 -0.77937 1.06066 -1.06066 
C 0.77937 -1.341951 0.397805 -1.5 0 -1.5 
C -0.397805 -1.5 -0.77937 -1.341951 -1.06066 -1.06066 
C -1.341951 -0.77937 -1.5 -0.397805 -1.5 0 
C -1.5 0.397805 -1.341951 0.77937 -1.06066 1.06066 
C -0.77937 1.341951 -0.397805 1.5 0 1.5 
z
" id="ma43389ac38" style="stroke:#dd8452;"/>
    </defs>
    <g clip-path="url(#p4f241c4f99)">
     <use style="fill:#dd8452;stroke:#dd8452;" x="72.600817" xlink:href="#ma43389ac38" y="87.903843"/>
     <use style="fill:#dd8452;stroke:#dd8452;" x="73.858163" xlink:href="#ma43389ac38" y="89.395532"/>
     <use style="fill:#dd8452;stroke:#dd8452;" x="74.973815" xlink:href="#ma43389ac38" y="90.975399"/>
     <use style="fill:#dd8452;stroke:#dd8452;" x="76.673484" xlink:href="#ma43389ac38" y="92.866786"/>
     <use style="fill:#dd8452;stroke:#dd8452;" x="78.799225" xlink:href="#ma43389ac38" y="94.628968"/>
     <use style="fill:#dd8452;stroke:#dd8452;" x="80.712043" xlink:href="#ma43389ac38" y="96.459909"/>
     <use style="fill:#dd8452;stroke:#dd8452;" x="82.837657" xlink:href="#ma43389ac38" y="98.389616"/>
     <use style="fill:#dd8452;stroke:#dd8452;" x="84.963506" xlink:href="#ma43389ac38" y="100.224862"/>
     <use style="fill:#dd8452;stroke:#dd8452;" x="87.089564" xlink:href="#ma43389ac38" y="101.973742"/>
     <use style="fill:#dd8452;stroke:#dd8452;" x="89.428394" xlink:href="#ma43389ac38" y="103.836901"/>
     <use style="fill:#dd8452;stroke:#dd8452;" x="91.980132" xlink:href="#ma43389ac38" y="105.731289"/>
     <use style="fill:#dd8452;stroke:#dd8452;" x="94.531979" xlink:href="#ma43389ac38" y="107.600971"/>
     <use style="fill:#dd8452;stroke:#dd8452;" x="97.296702" xlink:href="#ma43389ac38" y="109.524221"/>
     <use style="fill:#dd8452;stroke:#dd8452;" x="100.486929" xlink:href="#ma43389ac38" y="111.688901"/>
     <use style="fill:#dd8452;stroke:#dd8452;" x="103.890091" xlink:href="#ma43389ac38" y="113.879375"/>
     <use style="fill:#dd8452;stroke:#dd8452;" x="107.50615" xlink:href="#ma43389ac38" y="116.126369"/>
     <use style="fill:#dd8452;stroke:#dd8452;" x="111.335128" xlink:href="#ma43389ac38" y="118.414235"/>
     <use style="fill:#dd8452;stroke:#dd8452;" x="115.377057" xlink:href="#ma43389ac38" y="120.718558"/>
     <use style="fill:#dd8452;stroke:#dd8452;" x="119.631867" xlink:href="#ma43389ac38" y="123.099252"/>
     <use style="fill:#dd8452;stroke:#dd8452;" x="124.099715" xlink:href="#ma43389ac38" y="125.421949"/>
     <use style="fill:#dd8452;stroke:#dd8452;" x="128.780486" xlink:href="#ma43389ac38" y="127.783158"/>
     <use style="fill:#dd8452;stroke:#dd8452;" x="133.461411" xlink:href="#ma43389ac38" y="130.078155"/>
     <use style="fill:#dd8452;stroke:#dd8452;" x="138.142537" xlink:href="#ma43389ac38" y="132.252033"/>
     <use style="fill:#dd8452;stroke:#dd8452;" x="142.823817" xlink:href="#ma43389ac38" y="134.338755"/>
     <use style="fill:#dd8452;stroke:#dd8452;" x="147.505239" xlink:href="#ma43389ac38" y="136.340896"/>
     <use style="fill:#dd8452;stroke:#dd8452;" x="152.186827" xlink:href="#ma43389ac38" y="138.224688"/>
     <use style="fill:#dd8452;stroke:#dd8452;" x="156.868474" xlink:href="#ma43389ac38" y="140.094385"/>
     <use style="fill:#dd8452;stroke:#dd8452;" x="161.550298" xlink:href="#ma43389ac38" y="141.816449"/>
     <use style="fill:#dd8452;stroke:#dd8452;" x="166.23217" xlink:href="#ma43389ac38" y="143.526459"/>
     <use style="fill:#dd8452;stroke:#dd8452;" x="170.914231" xlink:href="#ma43389ac38" y="145.05802"/>
     <use style="fill:#dd8452;stroke:#dd8452;" x="175.596292" xlink:href="#ma43389ac38" y="146.62241"/>
     <use style="fill:#dd8452;stroke:#dd8452;" x="180.278531" xlink:href="#ma43389ac38" y="148.006831"/>
     <use style="fill:#dd8452;stroke:#dd8452;" x="184.96077" xlink:href="#ma43389ac38" y="149.418021"/>
     <use style="fill:#dd8452;stroke:#dd8452;" x="189.643139" xlink:href="#ma43389ac38" y="150.694093"/>
     <use style="fill:#dd8452;stroke:#dd8452;" x="194.325567" xlink:href="#ma43389ac38" y="151.917602"/>
     <use style="fill:#dd8452;stroke:#dd8452;" x="199.008102" xlink:href="#ma43389ac38" y="153.024354"/>
     <use style="fill:#dd8452;stroke:#dd8452;" x="203.690672" xlink:href="#ma43389ac38" y="154.101622"/>
     <use style="fill:#dd8452;stroke:#dd8452;" x="208.373348" xlink:href="#ma43389ac38" y="155.053528"/>
     <use style="fill:#dd8452;stroke:#dd8452;" x="213.056061" xlink:href="#ma43389ac38" y="155.97028"/>
     <use style="fill:#dd8452;stroke:#dd8452;" x="217.73882" xlink:href="#ma43389ac38" y="156.834285"/>
     <use style="fill:#dd8452;stroke:#dd8452;" x="222.421674" xlink:href="#ma43389ac38" y="157.578444"/>
     <use style="fill:#dd8452;stroke:#dd8452;" x="227.104564" xlink:href="#ma43389ac38" y="158.281"/>
     <use style="fill:#dd8452;stroke:#dd8452;" x="231.787513" xlink:href="#ma43389ac38" y="158.907543"/>
     <use style="fill:#dd8452;stroke:#dd8452;" x="236.470509" xlink:href="#ma43389ac38" y="159.47273"/>
     <use style="fill:#dd8452;stroke:#dd8452;" x="241.153809" xlink:href="#ma43389ac38" y="159.612192"/>
     <use style="fill:#dd8452;stroke:#dd8452;" x="245.836783" xlink:href="#ma43389ac38" y="160.215202"/>
     <use style="fill:#dd8452;stroke:#dd8452;" x="250.519818" xlink:href="#ma43389ac38" y="160.735162"/>
     <use style="fill:#dd8452;stroke:#dd8452;" x="255.203039" xlink:href="#ma43389ac38" y="160.99029"/>
     <use style="fill:#dd8452;stroke:#dd8452;" x="259.886248" xlink:href="#ma43389ac38" y="161.263413"/>
     <use style="fill:#dd8452;stroke:#dd8452;" x="264.569552" xlink:href="#ma43389ac38" y="161.400359"/>
     <use style="fill:#dd8452;stroke:#dd8452;" x="269.252833" xlink:href="#ma43389ac38" y="161.571903"/>
     <use style="fill:#dd8452;stroke:#dd8452;" x="272.23313" xlink:href="#ma43389ac38" y="161.640634"/>
     <use style="fill:#dd8452;stroke:#dd8452;" x="282.075673" xlink:href="#ma43389ac38" y="156.968126"/>
     <use style="fill:#dd8452;stroke:#dd8452;" x="286.28565" xlink:href="#ma43389ac38" y="158.341222"/>
     <use style="fill:#dd8452;stroke:#dd8452;" x="290.96806" xlink:href="#ma43389ac38" y="159.727662"/>
     <use style="fill:#dd8452;stroke:#dd8452;" x="295.650526" xlink:href="#ma43389ac38" y="161.058475"/>
     <use style="fill:#dd8452;stroke:#dd8452;" x="299.730363" xlink:href="#ma43389ac38" y="162.579915"/>
     <use style="fill:#dd8452;stroke:#dd8452;" x="304.528958" xlink:href="#ma43389ac38" y="163.667567"/>
     <use style="fill:#dd8452;stroke:#dd8452;" x="308.420591" xlink:href="#ma43389ac38" y="165.270739"/>
     <use style="fill:#dd8452;stroke:#dd8452;" x="313.2794" xlink:href="#ma43389ac38" y="166.843814"/>
     <use style="fill:#dd8452;stroke:#dd8452;" x="317.785447" xlink:href="#ma43389ac38" y="168.295631"/>
     <use style="fill:#dd8452;stroke:#dd8452;" x="321.616546" xlink:href="#ma43389ac38" y="169.535567"/>
     <use style="fill:#dd8452;stroke:#dd8452;" x="327.101148" xlink:href="#ma43389ac38" y="171.318307"/>
     <use style="fill:#dd8452;stroke:#dd8452;" x="333.607725" xlink:href="#ma43389ac38" y="173.600725"/>
     <use style="fill:#dd8452;stroke:#dd8452;" x="338.609246" xlink:href="#ma43389ac38" y="175.324669"/>
     <use style="fill:#dd8452;stroke:#dd8452;" x="343.32616" xlink:href="#ma43389ac38" y="176.893969"/>
     <use style="fill:#dd8452;stroke:#dd8452;" x="352.691238" xlink:href="#ma43389ac38" y="180.038947"/>
     <use style="fill:#dd8452;stroke:#dd8452;" x="356.096695" xlink:href="#ma43389ac38" y="181.265776"/>
     <use style="fill:#dd8452;stroke:#dd8452;" x="362.907681" xlink:href="#ma43389ac38" y="183.64352"/>
     <use style="fill:#dd8452;stroke:#dd8452;" x="366.279614" xlink:href="#ma43389ac38" y="184.906206"/>
     <use style="fill:#dd8452;stroke:#dd8452;" x="372.41477" xlink:href="#ma43389ac38" y="186.91451"/>
     <use style="fill:#dd8452;stroke:#dd8452;" x="376.955427" xlink:href="#ma43389ac38" y="188.61995"/>
     <use style="fill:#dd8452;stroke:#dd8452;" x="381.637949" xlink:href="#ma43389ac38" y="190.484636"/>
     <use style="fill:#dd8452;stroke:#dd8452;" x="386.320652" xlink:href="#ma43389ac38" y="192.000965"/>
     <use style="fill:#dd8452;stroke:#dd8452;" x="390.807121" xlink:href="#ma43389ac38" y="193.820726"/>
    </g>
   </g>
   <g id="line2d_10">
    <defs>
     <path d="M 0 1.5 
C 0.397805 1.5 0.77937 1.341951 1.06066 1.06066 
C 1.341951 0.77937 1.5 0.397805 1.5 0 
C 1.5 -0.397805 1.341951 -0.77937 1.06066 -1.06066 
C 0.77937 -1.341951 0.397805 -1.5 0 -1.5 
C -0.397805 -1.5 -0.77937 -1.341951 -1.06066 -1.06066 
C -1.341951 -0.77937 -1.5 -0.397805 -1.5 0 
C -1.5 0.397805 -1.341951 0.77937 -1.06066 1.06066 
C -0.77937 1.341951 -0.397805 1.5 0 1.5 
z
" id="ma9ed5674d1" style="stroke:#55a868;"/>
    </defs>
    <g clip-path="url(#p4f241c4f99)">
     <use style="fill:#55a868;stroke:#55a868;" x="76.56503" xlink:href="#ma9ed5674d1" y="52.026827"/>
     <use style="fill:#55a868;stroke:#55a868;" x="77.477481" xlink:href="#ma9ed5674d1" y="52.776893"/>
     <use style="fill:#55a868;stroke:#55a868;" x="78.863187" xlink:href="#ma9ed5674d1" y="53.795008"/>
     <use style="fill:#55a868;stroke:#55a868;" x="79.743047" xlink:href="#ma9ed5674d1" y="54.487397"/>
     <use style="fill:#55a868;stroke:#55a868;" x="81.230328" xlink:href="#ma9ed5674d1" y="55.460848"/>
     <use style="fill:#55a868;stroke:#55a868;" x="82.747177" xlink:href="#ma9ed5674d1" y="56.738231"/>
     <use style="fill:#55a868;stroke:#55a868;" x="84.204002" xlink:href="#ma9ed5674d1" y="57.758216"/>
     <use style="fill:#55a868;stroke:#55a868;" x="85.478927" xlink:href="#ma9ed5674d1" y="58.590517"/>
     <use style="fill:#55a868;stroke:#55a868;" x="87.462315" xlink:href="#ma9ed5674d1" y="59.842977"/>
     <use style="fill:#55a868;stroke:#55a868;" x="89.516021" xlink:href="#ma9ed5674d1" y="61.353007"/>
     <use style="fill:#55a868;stroke:#55a868;" x="91.598699" xlink:href="#ma9ed5674d1" y="62.674516"/>
     <use style="fill:#55a868;stroke:#55a868;" x="92.70364" xlink:href="#ma9ed5674d1" y="63.443596"/>
     <use style="fill:#55a868;stroke:#55a868;" x="94.829007" xlink:href="#ma9ed5674d1" y="64.760398"/>
     <use style="fill:#55a868;stroke:#55a868;" x="96.954127" xlink:href="#ma9ed5674d1" y="66.198495"/>
     <use style="fill:#55a868;stroke:#55a868;" x="98.867205" xlink:href="#ma9ed5674d1" y="67.329726"/>
     <use style="fill:#55a868;stroke:#55a868;" x="100.567882" xlink:href="#ma9ed5674d1" y="68.283808"/>
     <use style="fill:#55a868;stroke:#55a868;" x="102.480485" xlink:href="#ma9ed5674d1" y="69.643509"/>
     <use style="fill:#55a868;stroke:#55a868;" x="104.818422" xlink:href="#ma9ed5674d1" y="71.209554"/>
     <use style="fill:#55a868;stroke:#55a868;" x="107.157035" xlink:href="#ma9ed5674d1" y="72.51938"/>
     <use style="fill:#55a868;stroke:#55a868;" x="109.070621" xlink:href="#ma9ed5674d1" y="73.53296"/>
     <use style="fill:#55a868;stroke:#55a868;" x="111.196173" xlink:href="#ma9ed5674d1" y="74.965278"/>
     <use style="fill:#55a868;stroke:#55a868;" x="114.253455" xlink:href="#ma9ed5674d1" y="77.186676"/>
     <use style="fill:#55a868;stroke:#55a868;" x="117.787106" xlink:href="#ma9ed5674d1" y="78.784333"/>
     <use style="fill:#55a868;stroke:#55a868;" x="120.763619" xlink:href="#ma9ed5674d1" y="80.59481"/>
     <use style="fill:#55a868;stroke:#55a868;" x="124.624654" xlink:href="#ma9ed5674d1" y="82.331842"/>
     <use style="fill:#55a868;stroke:#55a868;" x="127.143404" xlink:href="#ma9ed5674d1" y="83.856613"/>
     <use style="fill:#55a868;stroke:#55a868;" x="129.269443" xlink:href="#ma9ed5674d1" y="85.259797"/>
     <use style="fill:#55a868;stroke:#55a868;" x="132.002272" xlink:href="#ma9ed5674d1" y="86.929616"/>
     <use style="fill:#55a868;stroke:#55a868;" x="135.010719" xlink:href="#ma9ed5674d1" y="88.669378"/>
     <use style="fill:#55a868;stroke:#55a868;" x="137.775336" xlink:href="#ma9ed5674d1" y="90.206214"/>
     <use style="fill:#55a868;stroke:#55a868;" x="140.327529" xlink:href="#ma9ed5674d1" y="91.521406"/>
     <use style="fill:#55a868;stroke:#55a868;" x="143.304828" xlink:href="#ma9ed5674d1" y="93.233887"/>
     <use style="fill:#55a868;stroke:#55a868;" x="146.011559" xlink:href="#ma9ed5674d1" y="94.770377"/>
     <use style="fill:#55a868;stroke:#55a868;" x="149.898201" xlink:href="#ma9ed5674d1" y="96.706118"/>
     <use style="fill:#55a868;stroke:#55a868;" x="152.989958" xlink:href="#ma9ed5674d1" y="98.2506"/>
     <use style="fill:#55a868;stroke:#55a868;" x="156.438684" xlink:href="#ma9ed5674d1" y="100.14543"/>
     <use style="fill:#55a868;stroke:#55a868;" x="160.320646" xlink:href="#ma9ed5674d1" y="102.129758"/>
     <use style="fill:#55a868;stroke:#55a868;" x="164.362348" xlink:href="#ma9ed5674d1" y="104.117227"/>
     <use style="fill:#55a868;stroke:#55a868;" x="168.829456" xlink:href="#ma9ed5674d1" y="106.404109"/>
     <use style="fill:#55a868;stroke:#55a868;" x="173.509459" xlink:href="#ma9ed5674d1" y="108.755095"/>
     <use style="fill:#55a868;stroke:#55a868;" x="178.189757" xlink:href="#ma9ed5674d1" y="110.970609"/>
     <use style="fill:#55a868;stroke:#55a868;" x="182.515447" xlink:href="#ma9ed5674d1" y="113.109464"/>
     <use style="fill:#55a868;stroke:#55a868;" x="186.415914" xlink:href="#ma9ed5674d1" y="114.897957"/>
     <use style="fill:#55a868;stroke:#55a868;" x="190.954685" xlink:href="#ma9ed5674d1" y="116.999764"/>
     <use style="fill:#55a868;stroke:#55a868;" x="194.997219" xlink:href="#ma9ed5674d1" y="118.769525"/>
     <use style="fill:#55a868;stroke:#55a868;" x="199.394335" xlink:href="#ma9ed5674d1" y="120.766147"/>
     <use style="fill:#55a868;stroke:#55a868;" x="204.997341" xlink:href="#ma9ed5674d1" y="123.195627"/>
     <use style="fill:#55a868;stroke:#55a868;" x="209.678668" xlink:href="#ma9ed5674d1" y="124.994106"/>
     <use style="fill:#55a868;stroke:#55a868;" x="213.995339" xlink:href="#ma9ed5674d1" y="126.582371"/>
     <use style="fill:#55a868;stroke:#55a868;" x="218.433845" xlink:href="#ma9ed5674d1" y="128.033762"/>
     <use style="fill:#55a868;stroke:#55a868;" x="223.723751" xlink:href="#ma9ed5674d1" y="129.633301"/>
     <use style="fill:#55a868;stroke:#55a868;" x="228.405788" xlink:href="#ma9ed5674d1" y="130.919637"/>
     <use style="fill:#55a868;stroke:#55a868;" x="232.2366" xlink:href="#ma9ed5674d1" y="131.937486"/>
     <use style="fill:#55a868;stroke:#55a868;" x="238.067886" xlink:href="#ma9ed5674d1" y="133.57409"/>
     <use style="fill:#55a868;stroke:#55a868;" x="243.069168" xlink:href="#ma9ed5674d1" y="134.600975"/>
     <use style="fill:#55a868;stroke:#55a868;" x="247.560554" xlink:href="#ma9ed5674d1" y="135.43493"/>
     <use style="fill:#55a868;stroke:#55a868;" x="252.608148" xlink:href="#ma9ed5674d1" y="136.194821"/>
     <use style="fill:#55a868;stroke:#55a868;" x="258.415428" xlink:href="#ma9ed5674d1" y="137.592885"/>
     <use style="fill:#55a868;stroke:#55a868;" x="264.986792" xlink:href="#ma9ed5674d1" y="138.743258"/>
     <use style="fill:#55a868;stroke:#55a868;" x="268.812205" xlink:href="#ma9ed5674d1" y="139.366943"/>
     <use style="fill:#55a868;stroke:#55a868;" x="274.024356" xlink:href="#ma9ed5674d1" y="140.144461"/>
     <use style="fill:#55a868;stroke:#55a868;" x="281.899744" xlink:href="#ma9ed5674d1" y="141.496004"/>
     <use style="fill:#55a868;stroke:#55a868;" x="286.724562" xlink:href="#ma9ed5674d1" y="142.051142"/>
     <use style="fill:#55a868;stroke:#55a868;" x="291.570961" xlink:href="#ma9ed5674d1" y="142.894392"/>
     <use style="fill:#55a868;stroke:#55a868;" x="295.664345" xlink:href="#ma9ed5674d1" y="143.453473"/>
     <use style="fill:#55a868;stroke:#55a868;" x="301.624224" xlink:href="#ma9ed5674d1" y="144.376371"/>
     <use style="fill:#55a868;stroke:#55a868;" x="308.009765" xlink:href="#ma9ed5674d1" y="145.428775"/>
     <use style="fill:#55a868;stroke:#55a868;" x="312.692549" xlink:href="#ma9ed5674d1" y="146.148172"/>
     <use style="fill:#55a868;stroke:#55a868;" x="317.375131" xlink:href="#ma9ed5674d1" y="147.113837"/>
     <use style="fill:#55a868;stroke:#55a868;" x="322.931667" xlink:href="#ma9ed5674d1" y="148.009296"/>
     <use style="fill:#55a868;stroke:#55a868;" x="327.506896" xlink:href="#ma9ed5674d1" y="148.806997"/>
     <use style="fill:#55a868;stroke:#55a868;" x="331.423315" xlink:href="#ma9ed5674d1" y="149.548998"/>
     <use style="fill:#55a868;stroke:#55a868;" x="336.105991" xlink:href="#ma9ed5674d1" y="150.442985"/>
     <use style="fill:#55a868;stroke:#55a868;" x="339.511579" xlink:href="#ma9ed5674d1" y="151.094695"/>
     <use style="fill:#55a868;stroke:#55a868;" x="345.140254" xlink:href="#ma9ed5674d1" y="152.189617"/>
     <use style="fill:#55a868;stroke:#55a868;" x="350.154157" xlink:href="#ma9ed5674d1" y="153.016999"/>
     <use style="fill:#55a868;stroke:#55a868;" x="354.836722" xlink:href="#ma9ed5674d1" y="154.101622"/>
     <use style="fill:#55a868;stroke:#55a868;" x="359.519387" xlink:href="#ma9ed5674d1" y="155.069237"/>
     <use style="fill:#55a868;stroke:#55a868;" x="366.117665" xlink:href="#ma9ed5674d1" y="156.485052"/>
     <use style="fill:#55a868;stroke:#55a868;" x="372.715973" xlink:href="#ma9ed5674d1" y="157.888042"/>
     <use style="fill:#55a868;stroke:#55a868;" x="377.398519" xlink:href="#ma9ed5674d1" y="159.073321"/>
     <use style="fill:#55a868;stroke:#55a868;" x="381.655512" xlink:href="#ma9ed5674d1" y="159.97882"/>
     <use style="fill:#55a868;stroke:#55a868;" x="387.402456" xlink:href="#ma9ed5674d1" y="161.216397"/>
     <use style="fill:#55a868;stroke:#55a868;" x="394.000751" xlink:href="#ma9ed5674d1" y="162.731771"/>
     <use style="fill:#55a868;stroke:#55a868;" x="398.612464" xlink:href="#ma9ed5674d1" y="163.809846"/>
     <use style="fill:#55a868;stroke:#55a868;" x="402.940303" xlink:href="#ma9ed5674d1" y="164.950244"/>
     <use style="fill:#55a868;stroke:#55a868;" x="408.852719" xlink:href="#ma9ed5674d1" y="166.43332"/>
     <use style="fill:#55a868;stroke:#55a868;" x="415.285305" xlink:href="#ma9ed5674d1" y="168.276802"/>
     <use style="fill:#55a868;stroke:#55a868;" x="419.967935" xlink:href="#ma9ed5674d1" y="169.510944"/>
     <use style="fill:#55a868;stroke:#55a868;" x="424.224819" xlink:href="#ma9ed5674d1" y="170.736018"/>
     <use style="fill:#55a868;stroke:#55a868;" x="429.971467" xlink:href="#ma9ed5674d1" y="172.668312"/>
    </g>
   </g>
   <g id="patch_3">
    <path d="M 54.732284 293.279063 
L 54.732284 40.538625 
" style="fill:none;stroke:#ffffff;stroke-linecap:square;stroke-linejoin:miter;stroke-width:1.25;"/>
   </g>
   <g id="patch_4">
    <path d="M 447.84 293.279063 
L 447.84 40.538625 
" style="fill:none;stroke:#ffffff;stroke-linecap:square;stroke-linejoin:miter;stroke-width:1.25;"/>
   </g>
   <g id="patch_5">
    <path d="M 54.732284 293.279063 
L 447.84 293.279063 
" style="fill:none;stroke:#ffffff;stroke-linecap:square;stroke-linejoin:miter;stroke-width:1.25;"/>
   </g>
   <g id="patch_6">
    <path d="M 54.732284 40.538625 
L 447.84 40.538625 
" style="fill:none;stroke:#ffffff;stroke-linecap:square;stroke-linejoin:miter;stroke-width:1.25;"/>
   </g>
   <g id="text_10">
    <!-- Human Power Output -->
    <defs>
     <path d="M 8.015625 0 
L 8.015625 71.578125 
L 17.484375 71.578125 
L 17.484375 42.1875 
L 54.6875 42.1875 
L 54.6875 71.578125 
L 64.15625 71.578125 
L 64.15625 0 
L 54.6875 0 
L 54.6875 33.734375 
L 17.484375 33.734375 
L 17.484375 0 
z
" id="ArialMT-72"/>
     <path d="M 4.828125 34.859375 
Q 4.828125 52.6875 14.390625 62.765625 
Q 23.96875 72.859375 39.109375 72.859375 
Q 49.03125 72.859375 56.984375 68.109375 
Q 64.9375 63.375 69.109375 54.90625 
Q 73.296875 46.4375 73.296875 35.6875 
Q 73.296875 24.8125 68.890625 16.21875 
Q 64.5 7.625 56.4375 3.203125 
Q 48.390625 -1.21875 39.0625 -1.21875 
Q 28.953125 -1.21875 20.984375 3.65625 
Q 13.03125 8.546875 8.921875 16.984375 
Q 4.828125 25.4375 4.828125 34.859375 
z
M 14.59375 34.71875 
Q 14.59375 21.78125 21.546875 14.328125 
Q 28.515625 6.890625 39.015625 6.890625 
Q 49.703125 6.890625 56.609375 14.40625 
Q 63.53125 21.921875 63.53125 35.75 
Q 63.53125 44.484375 60.578125 51 
Q 57.625 57.515625 51.921875 61.109375 
Q 46.234375 64.703125 39.15625 64.703125 
Q 29.109375 64.703125 21.84375 57.78125 
Q 14.59375 50.875 14.59375 34.71875 
z
" id="ArialMT-79"/>
     <path d="M 6.59375 -19.875 
L 6.59375 51.859375 
L 14.59375 51.859375 
L 14.59375 45.125 
Q 17.4375 49.078125 21 51.046875 
Q 24.5625 53.03125 29.640625 53.03125 
Q 36.28125 53.03125 41.359375 49.609375 
Q 46.4375 46.1875 49.015625 39.953125 
Q 51.609375 33.734375 51.609375 26.3125 
Q 51.609375 18.359375 48.75 11.984375 
Q 45.90625 5.609375 40.453125 2.21875 
Q 35.015625 -1.171875 29 -1.171875 
Q 24.609375 -1.171875 21.109375 0.6875 
Q 17.625 2.546875 15.375 5.375 
L 15.375 -19.875 
z
M 14.546875 25.640625 
Q 14.546875 15.625 18.59375 10.84375 
Q 22.65625 6.0625 28.421875 6.0625 
Q 34.28125 6.0625 38.453125 11.015625 
Q 42.625 15.96875 42.625 26.375 
Q 42.625 36.28125 38.546875 41.203125 
Q 34.46875 46.140625 28.8125 46.140625 
Q 23.1875 46.140625 18.859375 40.890625 
Q 14.546875 35.640625 14.546875 25.640625 
z
" id="ArialMT-112"/>
    </defs>
    <g style="fill:#262626;" transform="translate(193.595205 21.670875)scale(0.12 -0.12)">
     <use xlink:href="#ArialMT-72"/>
     <use x="72.216797" xlink:href="#ArialMT-117"/>
     <use x="127.832031" xlink:href="#ArialMT-109"/>
     <use x="211.132812" xlink:href="#ArialMT-97"/>
     <use x="266.748047" xlink:href="#ArialMT-110"/>
     <use x="322.363281" xlink:href="#ArialMT-32"/>
     <use x="350.146484" xlink:href="#ArialMT-80"/>
     <use x="416.845703" xlink:href="#ArialMT-111"/>
     <use x="472.460938" xlink:href="#ArialMT-119"/>
     <use x="544.677734" xlink:href="#ArialMT-101"/>
     <use x="600.292969" xlink:href="#ArialMT-114"/>
     <use x="633.59375" xlink:href="#ArialMT-32"/>
     <use x="661.376953" xlink:href="#ArialMT-79"/>
     <use x="739.160156" xlink:href="#ArialMT-117"/>
     <use x="794.775391" xlink:href="#ArialMT-116"/>
     <use x="822.558594" xlink:href="#ArialMT-112"/>
     <use x="878.173828" xlink:href="#ArialMT-117"/>
     <use x="933.789062" xlink:href="#ArialMT-116"/>
    </g>
    <!-- (Fig. 2.4, Bicycling Science by D. Wilson) -->
    <defs>
     <path d="M 23.390625 -21.046875 
Q 16.109375 -11.859375 11.078125 0.4375 
Q 6.0625 12.75 6.0625 25.921875 
Q 6.0625 37.546875 9.8125 48.1875 
Q 14.203125 60.546875 23.390625 72.796875 
L 29.6875 72.796875 
Q 23.78125 62.640625 21.875 58.296875 
Q 18.890625 51.5625 17.1875 44.234375 
Q 15.09375 35.109375 15.09375 25.875 
Q 15.09375 2.390625 29.6875 -21.046875 
z
" id="ArialMT-40"/>
     <path d="M 8.203125 0 
L 8.203125 71.578125 
L 56.5 71.578125 
L 56.5 63.140625 
L 17.671875 63.140625 
L 17.671875 40.96875 
L 51.265625 40.96875 
L 51.265625 32.515625 
L 17.671875 32.515625 
L 17.671875 0 
z
" id="ArialMT-70"/>
     <path d="M 4.984375 -4.296875 
L 13.53125 -5.5625 
Q 14.0625 -9.515625 16.5 -11.328125 
Q 19.78125 -13.765625 25.4375 -13.765625 
Q 31.546875 -13.765625 34.859375 -11.328125 
Q 38.1875 -8.890625 39.359375 -4.5 
Q 40.046875 -1.8125 39.984375 6.78125 
Q 34.234375 0 25.640625 0 
Q 14.9375 0 9.078125 7.71875 
Q 3.21875 15.4375 3.21875 26.21875 
Q 3.21875 33.640625 5.90625 39.90625 
Q 8.59375 46.1875 13.6875 49.609375 
Q 18.796875 53.03125 25.6875 53.03125 
Q 34.859375 53.03125 40.828125 45.609375 
L 40.828125 51.859375 
L 48.921875 51.859375 
L 48.921875 7.03125 
Q 48.921875 -5.078125 46.453125 -10.125 
Q 44 -15.1875 38.640625 -18.109375 
Q 33.296875 -21.046875 25.484375 -21.046875 
Q 16.21875 -21.046875 10.5 -16.875 
Q 4.78125 -12.703125 4.984375 -4.296875 
z
M 12.25 26.859375 
Q 12.25 16.65625 16.296875 11.96875 
Q 20.359375 7.28125 26.46875 7.28125 
Q 32.515625 7.28125 36.609375 11.9375 
Q 40.71875 16.609375 40.71875 26.5625 
Q 40.71875 36.078125 36.5 40.90625 
Q 32.28125 45.75 26.3125 45.75 
Q 20.453125 45.75 16.34375 40.984375 
Q 12.25 36.234375 12.25 26.859375 
z
" id="ArialMT-103"/>
     <path d="M 9.078125 0 
L 9.078125 10.015625 
L 19.09375 10.015625 
L 19.09375 0 
z
" id="ArialMT-46"/>
     <path d="M 32.328125 0 
L 32.328125 17.140625 
L 1.265625 17.140625 
L 1.265625 25.203125 
L 33.9375 71.578125 
L 41.109375 71.578125 
L 41.109375 25.203125 
L 50.78125 25.203125 
L 50.78125 17.140625 
L 41.109375 17.140625 
L 41.109375 0 
z
M 32.328125 25.203125 
L 32.328125 57.46875 
L 9.90625 25.203125 
z
" id="ArialMT-52"/>
     <path d="M 8.890625 0 
L 8.890625 10.015625 
L 18.890625 10.015625 
L 18.890625 0 
Q 18.890625 -5.515625 16.9375 -8.90625 
Q 14.984375 -12.3125 10.75 -14.15625 
L 8.296875 -10.40625 
Q 11.078125 -9.1875 12.390625 -6.8125 
Q 13.71875 -4.4375 13.875 0 
z
" id="ArialMT-44"/>
     <path d="M 7.328125 0 
L 7.328125 71.578125 
L 34.1875 71.578125 
Q 42.390625 71.578125 47.34375 69.40625 
Q 52.296875 67.234375 55.09375 62.71875 
Q 57.90625 58.203125 57.90625 53.265625 
Q 57.90625 48.6875 55.421875 44.625 
Q 52.9375 40.578125 47.90625 38.09375 
Q 54.390625 36.1875 57.875 31.59375 
Q 61.375 27 61.375 20.75 
Q 61.375 15.71875 59.25 11.390625 
Q 57.125 7.078125 54 4.734375 
Q 50.875 2.390625 46.15625 1.1875 
Q 41.453125 0 34.625 0 
z
M 16.796875 41.5 
L 32.28125 41.5 
Q 38.578125 41.5 41.3125 42.328125 
Q 44.921875 43.40625 46.75 45.890625 
Q 48.578125 48.390625 48.578125 52.15625 
Q 48.578125 55.71875 46.875 58.421875 
Q 45.171875 61.140625 41.984375 62.140625 
Q 38.8125 63.140625 31.109375 63.140625 
L 16.796875 63.140625 
z
M 16.796875 8.453125 
L 34.625 8.453125 
Q 39.203125 8.453125 41.0625 8.796875 
Q 44.34375 9.375 46.53125 10.734375 
Q 48.734375 12.109375 50.140625 14.71875 
Q 51.5625 17.328125 51.5625 20.75 
Q 51.5625 24.75 49.515625 27.703125 
Q 47.46875 30.671875 43.828125 31.859375 
Q 40.1875 33.0625 33.34375 33.0625 
L 16.796875 33.0625 
z
" id="ArialMT-66"/>
     <path d="M 40.4375 19 
L 49.078125 17.875 
Q 47.65625 8.9375 41.8125 3.875 
Q 35.984375 -1.171875 27.484375 -1.171875 
Q 16.84375 -1.171875 10.375 5.78125 
Q 3.90625 12.75 3.90625 25.734375 
Q 3.90625 34.125 6.6875 40.421875 
Q 9.46875 46.734375 15.15625 49.875 
Q 20.84375 53.03125 27.546875 53.03125 
Q 35.984375 53.03125 41.359375 48.75 
Q 46.734375 44.484375 48.25 36.625 
L 39.703125 35.296875 
Q 38.484375 40.53125 35.375 43.15625 
Q 32.28125 45.796875 27.875 45.796875 
Q 21.234375 45.796875 17.078125 41.03125 
Q 12.9375 36.28125 12.9375 25.984375 
Q 12.9375 15.53125 16.9375 10.796875 
Q 20.953125 6.0625 27.390625 6.0625 
Q 32.5625 6.0625 36.03125 9.234375 
Q 39.5 12.40625 40.4375 19 
z
" id="ArialMT-99"/>
     <path d="M 6.203125 -19.96875 
L 5.21875 -11.71875 
Q 8.109375 -12.5 10.25 -12.5 
Q 13.1875 -12.5 14.9375 -11.515625 
Q 16.703125 -10.546875 17.828125 -8.796875 
Q 18.65625 -7.46875 20.515625 -2.25 
Q 20.75 -1.515625 21.296875 -0.09375 
L 1.609375 51.859375 
L 11.078125 51.859375 
L 21.875 21.828125 
Q 23.96875 16.109375 25.640625 9.8125 
Q 27.15625 15.875 29.25 21.625 
L 40.328125 51.859375 
L 49.125 51.859375 
L 29.390625 -0.875 
Q 26.21875 -9.421875 24.46875 -12.640625 
Q 22.125 -17 19.09375 -19.015625 
Q 16.0625 -21.046875 11.859375 -21.046875 
Q 9.328125 -21.046875 6.203125 -19.96875 
z
" id="ArialMT-121"/>
     <path d="M 12.359375 -21.046875 
L 6.0625 -21.046875 
Q 20.65625 2.390625 20.65625 25.875 
Q 20.65625 35.0625 18.5625 44.09375 
Q 16.890625 51.421875 13.921875 58.15625 
Q 12.015625 62.546875 6.0625 72.796875 
L 12.359375 72.796875 
Q 21.53125 60.546875 25.921875 48.1875 
Q 29.6875 37.546875 29.6875 25.921875 
Q 29.6875 12.75 24.625 0.4375 
Q 19.578125 -11.859375 12.359375 -21.046875 
z
" id="ArialMT-41"/>
    </defs>
    <g style="fill:#262626;" transform="translate(141.92208 34.538625)scale(0.12 -0.12)">
     <use xlink:href="#ArialMT-40"/>
     <use x="33.300781" xlink:href="#ArialMT-70"/>
     <use x="94.384766" xlink:href="#ArialMT-105"/>
     <use x="116.601562" xlink:href="#ArialMT-103"/>
     <use x="172.216797" xlink:href="#ArialMT-46"/>
     <use x="200" xlink:href="#ArialMT-32"/>
     <use x="227.783203" xlink:href="#ArialMT-50"/>
     <use x="283.398438" xlink:href="#ArialMT-46"/>
     <use x="311.181641" xlink:href="#ArialMT-52"/>
     <use x="366.796875" xlink:href="#ArialMT-44"/>
     <use x="394.580078" xlink:href="#ArialMT-32"/>
     <use x="422.363281" xlink:href="#ArialMT-66"/>
     <use x="489.0625" xlink:href="#ArialMT-105"/>
     <use x="511.279297" xlink:href="#ArialMT-99"/>
     <use x="561.279297" xlink:href="#ArialMT-121"/>
     <use x="611.279297" xlink:href="#ArialMT-99"/>
     <use x="661.279297" xlink:href="#ArialMT-108"/>
     <use x="683.496094" xlink:href="#ArialMT-105"/>
     <use x="705.712891" xlink:href="#ArialMT-110"/>
     <use x="761.328125" xlink:href="#ArialMT-103"/>
     <use x="816.943359" xlink:href="#ArialMT-32"/>
     <use x="844.726562" xlink:href="#ArialMT-83"/>
     <use x="911.425781" xlink:href="#ArialMT-99"/>
     <use x="961.425781" xlink:href="#ArialMT-105"/>
     <use x="983.642578" xlink:href="#ArialMT-101"/>
     <use x="1039.257812" xlink:href="#ArialMT-110"/>
     <use x="1094.873047" xlink:href="#ArialMT-99"/>
     <use x="1144.873047" xlink:href="#ArialMT-101"/>
     <use x="1200.488281" xlink:href="#ArialMT-32"/>
     <use x="1228.271484" xlink:href="#ArialMT-98"/>
     <use x="1283.886719" xlink:href="#ArialMT-121"/>
     <use x="1333.886719" xlink:href="#ArialMT-32"/>
     <use x="1361.669922" xlink:href="#ArialMT-68"/>
     <use x="1433.886719" xlink:href="#ArialMT-46"/>
     <use x="1461.669922" xlink:href="#ArialMT-32"/>
     <use x="1489.453125" xlink:href="#ArialMT-87"/>
     <use x="1583.837891" xlink:href="#ArialMT-105"/>
     <use x="1606.054688" xlink:href="#ArialMT-108"/>
     <use x="1628.271484" xlink:href="#ArialMT-115"/>
     <use x="1678.271484" xlink:href="#ArialMT-111"/>
     <use x="1733.886719" xlink:href="#ArialMT-110"/>
     <use x="1789.501953" xlink:href="#ArialMT-41"/>
    </g>
   </g>
   <g id="legend_1">
    <g id="patch_7">
     <path d="M 303.045625 96.147063 
L 440.14 96.147063 
Q 442.34 96.147063 442.34 93.947063 
L 442.34 48.238625 
Q 442.34 46.038625 440.14 46.038625 
L 303.045625 46.038625 
Q 300.845625 46.038625 300.845625 48.238625 
L 300.845625 93.947063 
Q 300.845625 96.147063 303.045625 96.147063 
z
" style="fill:#eaeaf2;opacity:0.8;stroke:#cccccc;stroke-linejoin:miter;"/>
    </g>
    <g id="line2d_11"/>
    <g id="line2d_12">
     <g>
      <use style="fill:#4c72b0;stroke:#4c72b0;" x="316.245625" xlink:href="#m5dca23dcde" y="54.462219"/>
     </g>
    </g>
    <g id="text_11">
     <!-- Healthy Men -->
     <defs>
      <path d="M 6.59375 0 
L 6.59375 71.578125 
L 15.375 71.578125 
L 15.375 45.90625 
Q 21.53125 53.03125 30.90625 53.03125 
Q 36.671875 53.03125 40.921875 50.75 
Q 45.171875 48.484375 47 44.484375 
Q 48.828125 40.484375 48.828125 32.859375 
L 48.828125 0 
L 40.046875 0 
L 40.046875 32.859375 
Q 40.046875 39.453125 37.1875 42.453125 
Q 34.328125 45.453125 29.109375 45.453125 
Q 25.203125 45.453125 21.75 43.421875 
Q 18.3125 41.40625 16.84375 37.9375 
Q 15.375 34.46875 15.375 28.375 
L 15.375 0 
z
" id="ArialMT-104"/>
     </defs>
     <g style="fill:#262626;" transform="translate(336.045625 58.312219)scale(0.11 -0.11)">
      <use xlink:href="#ArialMT-72"/>
      <use x="72.216797" xlink:href="#ArialMT-101"/>
      <use x="127.832031" xlink:href="#ArialMT-97"/>
      <use x="183.447266" xlink:href="#ArialMT-108"/>
      <use x="205.664062" xlink:href="#ArialMT-116"/>
      <use x="233.447266" xlink:href="#ArialMT-104"/>
      <use x="289.0625" xlink:href="#ArialMT-121"/>
      <use x="339.0625" xlink:href="#ArialMT-32"/>
      <use x="366.845703" xlink:href="#ArialMT-77"/>
      <use x="450.146484" xlink:href="#ArialMT-101"/>
      <use x="505.761719" xlink:href="#ArialMT-110"/>
     </g>
    </g>
    <g id="line2d_13"/>
    <g id="line2d_14">
     <g>
      <use style="fill:#dd8452;stroke:#dd8452;" x="316.245625" xlink:href="#ma43389ac38" y="70.150969"/>
     </g>
    </g>
    <g id="text_12">
     <!-- First-Class Athletes -->
     <defs>
      <path d="M 3.171875 21.484375 
L 3.171875 30.328125 
L 30.171875 30.328125 
L 30.171875 21.484375 
z
" id="ArialMT-45"/>
      <path d="M 58.796875 25.09375 
L 68.265625 22.703125 
Q 65.28125 11.03125 57.546875 4.90625 
Q 49.8125 -1.21875 38.625 -1.21875 
Q 27.046875 -1.21875 19.796875 3.484375 
Q 12.546875 8.203125 8.765625 17.140625 
Q 4.984375 26.078125 4.984375 36.328125 
Q 4.984375 47.515625 9.25 55.828125 
Q 13.53125 64.15625 21.40625 68.46875 
Q 29.296875 72.796875 38.765625 72.796875 
Q 49.515625 72.796875 56.828125 67.328125 
Q 64.15625 61.859375 67.046875 51.953125 
L 57.71875 49.75 
Q 55.21875 57.5625 50.484375 61.125 
Q 45.75 64.703125 38.578125 64.703125 
Q 30.328125 64.703125 24.78125 60.734375 
Q 19.234375 56.78125 16.984375 50.109375 
Q 14.75 43.453125 14.75 36.375 
Q 14.75 27.25 17.40625 20.4375 
Q 20.0625 13.625 25.671875 10.25 
Q 31.296875 6.890625 37.84375 6.890625 
Q 45.796875 6.890625 51.3125 11.46875 
Q 56.84375 16.0625 58.796875 25.09375 
z
" id="ArialMT-67"/>
      <path d="M -0.140625 0 
L 27.34375 71.578125 
L 37.546875 71.578125 
L 66.84375 0 
L 56.0625 0 
L 47.703125 21.6875 
L 17.78125 21.6875 
L 9.90625 0 
z
M 20.515625 29.390625 
L 44.78125 29.390625 
L 37.3125 49.21875 
Q 33.890625 58.25 32.234375 64.0625 
Q 30.859375 57.171875 28.375 50.390625 
z
" id="ArialMT-65"/>
     </defs>
     <g style="fill:#262626;" transform="translate(336.045625 74.000969)scale(0.11 -0.11)">
      <use xlink:href="#ArialMT-70"/>
      <use x="61.083984" xlink:href="#ArialMT-105"/>
      <use x="83.300781" xlink:href="#ArialMT-114"/>
      <use x="116.601562" xlink:href="#ArialMT-115"/>
      <use x="166.601562" xlink:href="#ArialMT-116"/>
      <use x="194.384766" xlink:href="#ArialMT-45"/>
      <use x="227.685547" xlink:href="#ArialMT-67"/>
      <use x="299.902344" xlink:href="#ArialMT-108"/>
      <use x="322.119141" xlink:href="#ArialMT-97"/>
      <use x="377.734375" xlink:href="#ArialMT-115"/>
      <use x="427.734375" xlink:href="#ArialMT-115"/>
      <use x="477.734375" xlink:href="#ArialMT-32"/>
      <use x="500.017578" xlink:href="#ArialMT-65"/>
      <use x="566.716797" xlink:href="#ArialMT-116"/>
      <use x="594.5" xlink:href="#ArialMT-104"/>
      <use x="650.115234" xlink:href="#ArialMT-108"/>
      <use x="672.332031" xlink:href="#ArialMT-101"/>
      <use x="727.947266" xlink:href="#ArialMT-116"/>
      <use x="755.730469" xlink:href="#ArialMT-101"/>
      <use x="811.345703" xlink:href="#ArialMT-115"/>
     </g>
    </g>
    <g id="line2d_15"/>
    <g id="line2d_16">
     <g>
      <use style="fill:#55a868;stroke:#55a868;" x="316.245625" xlink:href="#ma9ed5674d1" y="85.710813"/>
     </g>
    </g>
    <g id="text_13">
     <!-- World-Class Athletes -->
     <defs>
      <path d="M 40.234375 0 
L 40.234375 6.546875 
Q 35.296875 -1.171875 25.734375 -1.171875 
Q 19.53125 -1.171875 14.328125 2.25 
Q 9.125 5.671875 6.265625 11.796875 
Q 3.421875 17.921875 3.421875 25.875 
Q 3.421875 33.640625 6 39.96875 
Q 8.59375 46.296875 13.765625 49.65625 
Q 18.953125 53.03125 25.34375 53.03125 
Q 30.03125 53.03125 33.6875 51.046875 
Q 37.359375 49.078125 39.65625 45.90625 
L 39.65625 71.578125 
L 48.390625 71.578125 
L 48.390625 0 
z
M 12.453125 25.875 
Q 12.453125 15.921875 16.640625 10.984375 
Q 20.84375 6.0625 26.5625 6.0625 
Q 32.328125 6.0625 36.34375 10.765625 
Q 40.375 15.484375 40.375 25.140625 
Q 40.375 35.796875 36.265625 40.765625 
Q 32.171875 45.75 26.171875 45.75 
Q 20.3125 45.75 16.375 40.96875 
Q 12.453125 36.1875 12.453125 25.875 
z
" id="ArialMT-100"/>
     </defs>
     <g style="fill:#262626;" transform="translate(336.045625 89.560812)scale(0.11 -0.11)">
      <use xlink:href="#ArialMT-87"/>
      <use x="92.634766" xlink:href="#ArialMT-111"/>
      <use x="148.25" xlink:href="#ArialMT-114"/>
      <use x="181.550781" xlink:href="#ArialMT-108"/>
      <use x="203.767578" xlink:href="#ArialMT-100"/>
      <use x="259.382812" xlink:href="#ArialMT-45"/>
      <use x="292.683594" xlink:href="#ArialMT-67"/>
      <use x="364.900391" xlink:href="#ArialMT-108"/>
      <use x="387.117188" xlink:href="#ArialMT-97"/>
      <use x="442.732422" xlink:href="#ArialMT-115"/>
      <use x="492.732422" xlink:href="#ArialMT-115"/>
      <use x="542.732422" xlink:href="#ArialMT-32"/>
      <use x="565.015625" xlink:href="#ArialMT-65"/>
      <use x="631.714844" xlink:href="#ArialMT-116"/>
      <use x="659.498047" xlink:href="#ArialMT-104"/>
      <use x="715.113281" xlink:href="#ArialMT-108"/>
      <use x="737.330078" xlink:href="#ArialMT-101"/>
      <use x="792.945312" xlink:href="#ArialMT-116"/>
      <use x="820.728516" xlink:href="#ArialMT-101"/>
      <use x="876.34375" xlink:href="#ArialMT-115"/>
     </g>
    </g>
   </g>
  </g>
 </g>
 <defs>
  <clipPath id="p4f241c4f99">
   <rect height="252.740438" width="393.107716" x="54.732284" y="40.538625"/>
  </clipPath>
 </defs>
</svg>
