<?xml version="1.0" encoding="UTF-8"?>
<svg xmlns="http://www.w3.org/2000/svg" xmlns:xlink="http://www.w3.org/1999/xlink" width="172pt" height="25pt" viewBox="0 0 172 25" version="1.1">
<g id="surface2963">
<path style="fill:none;stroke-width:0.175;stroke-linecap:butt;stroke-linejoin:round;stroke:rgb(0%,0%,0%);stroke-opacity:1;stroke-miterlimit:10;" d="M 357.777344 539.390625 L 357.570313 539.425781 L 357.394531 539.496094 L 357.21875 539.53125 L 357.042969 539.601563 L 356.867188 539.636719 L 356.695313 539.703125 L 356.484375 539.738281 L 356.273438 539.808594 L 356.0625 539.84375 L 355.855469 539.914063 L 355.644531 539.949219 L 355.152344 540.089844 L 354.910156 540.125 L 354.664063 540.195313 L 354.382813 540.265625 L 354.105469 540.335938 L 353.824219 540.371094 L 353.542969 540.441406 L 353.265625 540.511719 L 352.949219 540.578125 L 352.632813 540.613281 L 352.320313 540.683594 L 351.6875 540.824219 L 351.339844 540.894531 L 350.988281 540.964844 L 350.640625 541.035156 L 350.289063 541.105469 L 349.972656 541.175781 L 349.589844 541.246094 L 349.238281 541.316406 L 348.890625 541.421875 L 348.539063 541.488281 L 348.152344 541.558594 L 347.804688 541.628906 L 347.417969 541.734375 L 347.070313 541.804688 L 346.683594 541.875 L 346.335938 541.945313 L 345.949219 542.050781 L 345.597656 542.121094 L 345.214844 542.191406 L 344.828125 542.261719 L 344.480469 542.363281 L 344.09375 542.433594 L 343.710938 542.503906 L 343.359375 542.574219 L 342.972656 542.679688 L 342.589844 542.75 L 342.203125 542.820313 L 341.855469 542.925781 L 341.46875 542.996094 L 341.085938 543.066406 L 340.734375 543.171875 L 340.347656 543.238281 L 339.964844 543.308594 L 339.578125 543.378906 L 339.230469 543.484375 L 338.84375 543.554688 L 338.460938 543.625 L 338.074219 543.730469 L 337.722656 543.800781 L 337.339844 543.871094 L 336.953125 543.941406 L 336.570313 544.046875 L 336.21875 544.113281 L 335.835938 544.183594 L 335.449219 544.289063 L 335.097656 544.359375 L 334.714844 544.429688 L 334.328125 544.535156 L 333.945313 544.605469 L 333.59375 544.675781 L 333.210938 544.78125 L 332.824219 544.851563 L 332.472656 544.921875 L 332.089844 545.023438 L 331.703125 545.09375 L 331.320313 545.199219 L 330.96875 545.269531 L 330.585938 545.339844 L 330.199219 545.445313 L 329.847656 545.515625 L 329.464844 545.585938 L 329.078125 545.691406 L 328.730469 545.761719 L 328.34375 545.828125 L 327.960938 545.933594 L 327.609375 546.003906 L 327.222656 546.109375 L 326.839844 546.179688 L 326.488281 546.25 L 326.105469 546.355469 L 325.71875 546.425781 L 325.367188 546.53125 L 324.984375 546.601563 L 324.597656 546.703125 L 324.246094 546.773438 L 323.863281 546.84375 L 323.480469 546.949219 L 323.128906 547.019531 L 322.742188 547.125 L 322.359375 547.195313 L 322.007813 547.300781 L 321.621094 547.371094 L 321.273438 547.476563 L 320.890625 547.546875 L 320.503906 547.648438 L 320.152344 547.71875 L 319.769531 547.824219 L 319.417969 547.894531 L 319.035156 548 L 318.683594 548.105469 L 318.296875 548.175781 L 317.949219 548.28125 L 317.5625 548.351563 L 317.214844 548.453125 L 316.828125 548.558594 L 316.480469 548.628906 L 316.128906 548.734375 L 315.742188 548.839844 L 315.394531 548.910156 L 315.007813 549.015625 L 314.660156 549.121094 L 314.308594 549.226563 L 313.921875 549.328125 L 313.574219 549.398438 L 313.222656 549.503906 L 312.839844 549.609375 L 312.488281 549.714844 L 312.140625 549.820313 L 311.753906 549.925781 L 311.402344 550.03125 L 311.054688 550.136719 L 310.703125 550.203125 L 310.320313 550.308594 L 309.617188 550.519531 L 309.269531 550.625 L 308.917969 550.730469 L 308.570313 550.835938 L 308.21875 550.976563 L 307.867188 551.078125 L 307.484375 551.183594 L 307.167969 551.289063 L 306.820313 551.394531 L 306.117188 551.605469 L 305.769531 551.710938 L 305.453125 551.816406 L 305.105469 551.921875 L 304.789063 552.023438 L 304.472656 552.128906 L 304.121094 552.234375 L 303.808594 552.339844 L 303.527344 552.445313 L 303.214844 552.550781 L 302.898438 552.65625 L 302.617188 552.761719 L 302.339844 552.828125 L 302.058594 552.933594 L 301.8125 553.003906 L 301.535156 553.109375 L 301.253906 553.214844 L 301.042969 553.285156 L 300.835938 553.355469 L 300.589844 553.425781 L 300.378906 553.53125 L 300.132813 553.601563 L 299.960938 553.671875 L 299.746094 553.738281 L 299.574219 553.808594 L 299.398438 553.878906 L 299.1875 553.949219 L 299.046875 553.984375 L 298.871094 554.054688 L 298.699219 554.125 L 298.523438 554.195313 L 298.382813 554.230469 L 298.210938 554.300781 L 298.070313 554.335938 L 297.929688 554.40625 L 297.753906 554.441406 L 297.613281 554.511719 L 297.472656 554.546875 L 297.335938 554.613281 L 297.195313 554.648438 L 297.019531 554.683594 L 296.878906 554.753906 L 296.597656 554.824219 L 296.460938 554.894531 L 296.039063 555 L 295.898438 555.070313 L 295.617188 555.140625 L 295.480469 555.175781 L 295.371094 555.246094 L 295.234375 555.28125 L 294.8125 555.386719 L 294.671875 555.453125 L 294.535156 555.488281 L 294.253906 555.558594 L 294.148438 555.59375 L 294.007813 555.664063 L 293.867188 555.699219 L 293.730469 555.734375 L 293.308594 555.839844 L 293.203125 555.875 L 293.0625 555.945313 L 292.921875 555.980469 L 292.785156 556.015625 L 292.222656 556.15625 L 292.117188 556.191406 L 291.980469 556.226563 L 291.699219 556.296875 L 291.558594 556.328125 L 291.277344 556.398438 L 291.140625 556.433594 L 291.035156 556.46875 L 290.472656 556.609375 L 290.335938 556.644531 L 290.195313 556.679688 L 290.089844 556.714844 L 289.527344 556.855469 L 289.390625 556.890625 L 289.246094 556.925781 L 289.144531 556.960938 L 288.722656 557.066406 L 288.585938 557.101563 L 288.304688 557.171875 L 288.164063 557.203125 L 288.058594 557.203125 L 287.777344 557.273438 L 287.640625 557.308594 L 287.496094 557.34375 L 287.359375 557.34375 L 286.796875 557.484375 L 286.660156 557.519531 L 286.519531 557.519531 L 286.414063 557.554688 L 285.992188 557.660156 L 285.855469 557.695313 L 285.433594 557.800781 L 285.328125 557.835938 L 285.046875 557.90625 L 284.910156 557.941406 L 284.628906 558.011719 L 284.488281 558.011719 L 284.382813 558.046875 L 284.242188 558.078125 L 284.105469 558.113281 L 283.964844 558.148438 L 283.824219 558.148438 L 283.683594 558.183594 L 283.542969 558.183594 L 283.402344 558.21875 L 283.265625 558.21875 L 283.121094 558.253906 L 282.984375 558.253906 L 282.84375 558.289063 L 282.703125 558.289063 L 282.5625 558.324219 L 282.421875 558.324219 L 282.285156 558.359375 L 282.144531 558.394531 L 282.003906 558.394531 L 281.863281 558.429688 L 281.757813 558.464844 L 281.617188 558.5 L 281.480469 558.535156 L 281.199219 558.605469 L 281.09375 558.640625 L 280.8125 558.710938 L 280.671875 558.78125 L 280.535156 558.816406 L 280.394531 558.851563 L 280.289063 558.886719 L 280.148438 558.921875 L 280.007813 558.953125 L 279.867188 558.988281 L 279.730469 559.023438 L 279.589844 559.058594 L 279.449219 559.058594 L 279.167969 559.128906 L 279.027344 559.128906 L 278.890625 559.164063 L 278.609375 559.164063 L 278.46875 559.199219 L 278.1875 559.199219 L 278.046875 559.234375 L 277.488281 559.234375 L 277.347656 559.269531 L 276.929688 559.269531 L 276.789063 559.304688 L 276.683594 559.304688 L 276.542969 559.339844 L 276.402344 559.339844 L 276.265625 559.375 L 276.121094 559.375 L 275.984375 559.410156 L 275.421875 559.550781 L 275.320313 559.585938 L 274.617188 559.761719 L 274.515625 559.796875 L 274.371094 559.828125 L 274.234375 559.863281 L 274.09375 559.863281 L 273.8125 559.933594 L 273.671875 559.933594 L 273.535156 559.96875 L 273.253906 559.96875 L 273.113281 560.003906 L 272.972656 560.003906 L 272.835938 560.039063 L 272.414063 560.039063 L 272.273438 560.074219 L 271.714844 560.074219 L 271.574219 560.109375 L 270.871094 560.109375 L 270.734375 560.144531 L 270.3125 560.144531 L 270.171875 560.179688 L 269.894531 560.179688 L 269.789063 560.214844 L 269.507813 560.214844 L 269.367188 560.25 L 269.230469 560.25 L 269.089844 560.285156 L 268.949219 560.285156 L 268.808594 560.320313 L 268.667969 560.320313 L 268.527344 560.355469 L 268.390625 560.355469 L 268.246094 560.390625 L 268.109375 560.390625 L 267.828125 560.460938 L 267.6875 560.460938 L 267.546875 560.496094 L 267.445313 560.53125 L 267.304688 560.53125 L 266.742188 560.671875 L 266.605469 560.671875 L 266.464844 560.703125 L 266.183594 560.773438 L 266.078125 560.808594 L 265.9375 560.808594 L 265.796875 560.84375 L 265.660156 560.878906 L 265.519531 560.914063 L 265.378906 560.914063 L 265.238281 560.949219 L 265.097656 560.949219 L 264.960938 560.984375 L 264.820313 560.984375 L 264.679688 561.019531 L 264.398438 561.019531 L 264.257813 561.054688 L 263.558594 561.054688 L 263.417969 561.019531 L 262.996094 561.019531 L 262.859375 560.984375 L 262.71875 560.984375 L 262.578125 560.949219 L 262.296875 560.949219 L 262.160156 560.914063 L 262.019531 560.914063 L 261.878906 560.878906 L 259.917969 560.878906 L 259.777344 560.914063 L 259.496094 560.914063 L 259.359375 560.949219 L 259.078125 560.949219 L 258.9375 560.984375 L 258.796875 560.984375 L 258.660156 561.019531 L 258.378906 561.019531 L 258.273438 561.054688 L 258.132813 561.054688 L 257.992188 561.089844 L 257.855469 561.089844 L 257.714844 561.125 L 257.574219 561.125 L 257.433594 561.160156 L 257.292969 561.160156 L 257.152344 561.195313 L 257.015625 561.195313 L 256.871094 561.230469 L 256.59375 561.230469 L 256.453125 561.265625 L 256.3125 561.265625 L 256.171875 561.300781 L 255.894531 561.300781 L 255.753906 561.335938 L 255.195313 561.335938 L 255.054688 561.371094 L 252.394531 561.371094 L 252.253906 561.335938 L 251.414063 561.335938 L 251.273438 561.300781 L 250.433594 561.300781 L 250.292969 561.265625 L 249.171875 561.265625 L 249.035156 561.230469 L 247.914063 561.230469 L 247.773438 561.195313 L 247.214844 561.195313 L 247.074219 561.160156 L 246.480469 561.160156 L 246.339844 561.125 L 245.917969 561.125 L 245.777344 561.089844 L 245.324219 561.089844 L 245.183594 561.054688 L 244.589844 561.054688 L 244.414063 561.019531 L 243.960938 561.019531 L 243.785156 560.984375 L 243.292969 560.984375 L 243.117188 560.949219 L 242.769531 560.949219 L 242.59375 560.914063 L 242.210938 560.914063 L 242.035156 560.878906 L 241.613281 560.878906 L 241.402344 560.84375 L 241.160156 560.84375 L 240.914063 560.808594 L 240.703125 560.808594 L 240.460938 560.773438 L 240.179688 560.773438 L 239.898438 560.738281 L 239.617188 560.738281 L 239.339844 560.703125 L 239.058594 560.703125 L 238.742188 560.671875 L 238.429688 560.636719 L 238.113281 560.601563 L 237.796875 560.601563 L 237.484375 560.566406 L 237.132813 560.53125 L 236.820313 560.496094 L 236.117188 560.425781 L 235.769531 560.390625 L 235.417969 560.355469 L 235.070313 560.320313 L 234.71875 560.285156 L 234.335938 560.25 L 233.984375 560.214844 L 233.632813 560.144531 L 233.246094 560.109375 L 232.898438 560.074219 L 232.546875 560.039063 L 232.164063 560.003906 L 231.8125 559.933594 L 231.429688 559.898438 L 231.078125 559.863281 L 230.695313 559.796875 L 230.34375 559.761719 L 229.960938 559.726563 L 229.609375 559.65625 L 229.222656 559.621094 L 228.871094 559.550781 L 228.488281 559.515625 L 228.140625 559.445313 L 227.753906 559.410156 L 227.402344 559.339844 L 227.019531 559.304688 L 226.667969 559.234375 L 226.285156 559.164063 L 225.933594 559.128906 L 225.546875 559.058594 L 225.199219 558.988281 L 224.8125 558.953125 L 224.464844 558.886719 L 224.078125 558.816406 L 223.730469 558.746094 L 223.378906 558.675781 L 222.992188 558.640625 L 222.644531 558.570313 L 222.257813 558.5 L 221.910156 558.429688 L 221.558594 558.359375 L 221.171875 558.289063 L 220.824219 558.21875 L 220.472656 558.148438 L 220.089844 558.046875 L 219.738281 557.976563 L 219.390625 557.90625 L 219.003906 557.835938 L 218.652344 557.765625 L 218.304688 557.695313 L 217.917969 557.589844 L 217.570313 557.519531 L 217.21875 557.449219 L 216.835938 557.34375 L 216.132813 557.203125 L 215.785156 557.101563 L 215.398438 557.03125 L 215.046875 556.925781 L 214.699219 556.855469 L 213.996094 556.644531 L 213.648438 556.574219 L 213.265625 556.46875 L 212.914063 556.398438 L 212.5625 556.296875 L 212.214844 556.191406 L 211.863281 556.085938 L 211.515625 556.015625 L 210.8125 555.804688 L 210.464844 555.699219 L 210.113281 555.59375 L 209.765625 555.488281 L 209.414063 555.386719 L 209.0625 555.28125 L 208.714844 555.175781 L 208.363281 555.070313 L 208.015625 554.964844 L 207.699219 554.859375 L 206.996094 554.648438 L 206.648438 554.511719 L 206.335938 554.40625 L 205.984375 554.300781 L 205.632813 554.160156 L 205.320313 554.054688 L 204.96875 553.914063 L 204.652344 553.808594 L 204.304688 553.671875 L 203.988281 553.566406 L 203.640625 553.425781 L 203.324219 553.320313 L 203.007813 553.179688 L 202.660156 553.039063 L 202.34375 552.898438 L 202.027344 552.761719 L 201.679688 552.621094 L 201.046875 552.339844 L 200.734375 552.199219 L 200.417969 552.058594 L 200.105469 551.921875 L 199.472656 551.640625 L 199.160156 551.5 L 198.84375 551.324219 L 198.527344 551.183594 L 198.214844 551.046875 L 197.898438 550.871094 L 197.617188 550.730469 L 197.304688 550.554688 L 196.988281 550.414063 L 196.710938 550.238281 L 196.394531 550.066406 L 196.113281 549.925781 L 195.796875 549.75 L 195.519531 549.574219 L 195.238281 549.398438 L 194.960938 549.261719 L 194.117188 548.734375 L 193.839844 548.558594 L 193.558594 548.386719 L 193.3125 548.175781 L 193.035156 548 L 192.789063 547.824219 L 192.507813 547.648438 L 192.265625 547.476563 L 192.019531 547.265625 L 191.527344 546.914063 L 191.285156 546.738281 L 191.039063 546.53125 L 190.828125 546.355469 L 190.585938 546.144531 L 190.371094 545.96875 L 190.164063 545.796875 L 189.953125 545.585938 L 189.742188 545.410156 L 189.535156 545.199219 L 189.359375 545.023438 L 189.183594 544.851563 L 188.972656 544.675781 L 188.796875 544.464844 L 188.621094 544.289063 L 188.484375 544.078125 L 188.34375 543.90625 L 188.167969 543.730469 L 188.027344 543.554688 L 187.890625 543.34375 L 187.785156 543.171875 L 187.644531 542.996094 L 187.328125 542.46875 L 187.222656 542.296875 L 187.117188 542.15625 L 187.046875 541.980469 L 186.945313 541.804688 L 186.871094 541.628906 L 186.804688 541.488281 L 186.769531 541.316406 L 186.628906 541.035156 L 186.59375 540.859375 L 186.523438 540.578125 L 186.488281 540.441406 L 186.453125 540.300781 L 186.453125 540.160156 L 186.417969 540.019531 L 186.417969 539.773438 L 186.382813 539.636719 L 186.417969 539.53125 L 186.417969 539.179688 L 186.523438 538.863281 L 186.558594 538.761719 L 186.59375 538.65625 L 186.664063 538.585938 L 186.699219 538.480469 L 186.769531 538.410156 L 186.804688 538.339844 L 186.871094 538.269531 L 186.945313 538.199219 L 187.085938 538.058594 L 187.152344 538.023438 L 187.257813 537.953125 L 187.328125 537.921875 L 187.398438 537.886719 L 187.503906 537.851563 L 187.574219 537.78125 L 187.679688 537.746094 L 187.746094 537.746094 L 187.855469 537.710938 L 187.921875 537.675781 L 188.132813 537.605469 L 188.238281 537.605469 L 188.308594 537.570313 L 188.449219 537.535156 L 188.554688 537.535156 L 188.660156 537.5 L 188.765625 537.5 L 188.867188 537.464844 L 189.113281 537.464844 L 189.253906 537.429688 L 189.496094 537.429688 L 189.640625 537.394531 L 189.882813 537.394531 L 190.023438 537.359375 L 190.617188 537.359375 L 190.792969 537.324219 L 193.277344 537.324219 L 193.453125 537.359375 L 194.257813 537.359375 L 194.46875 537.394531 L 195.0625 537.394531 L 195.273438 537.429688 L 195.902344 537.429688 L 196.113281 537.464844 L 196.535156 537.464844 L 196.742188 537.5 L 196.953125 537.5 L 197.164063 537.535156 L 197.585938 537.535156 L 197.828125 537.570313 L 198.246094 537.570313 L 198.460938 537.605469 L 198.667969 537.605469 L 198.878906 537.640625 L 199.335938 537.640625 L 199.542969 537.675781 L 199.753906 537.675781 L 199.996094 537.710938 L 200.210938 537.710938 L 200.417969 537.746094 L 200.871094 537.746094 L 201.085938 537.78125 L 201.292969 537.78125 L 201.503906 537.816406 L 201.746094 537.816406 L 201.960938 537.851563 L 202.167969 537.851563 L 202.378906 537.886719 L 202.835938 537.886719 L 203.042969 537.921875 L 203.253906 537.921875 L 203.496094 537.953125 L 203.710938 537.953125 L 203.917969 537.988281 L 204.164063 537.988281 L 204.371094 538.023438 L 204.792969 538.023438 L 205.039063 538.058594 L 205.246094 538.058594 L 205.460938 538.09375 L 205.703125 538.09375 L 205.914063 538.128906 L 206.335938 538.128906 L 206.578125 538.164063 L 206.789063 538.164063 L 206.996094 538.199219 L 207.210938 538.199219 L 207.453125 538.234375 L 207.871094 538.234375 L 208.085938 538.269531 L 208.539063 538.269531 L 208.746094 538.304688 L 208.960938 538.304688 L 209.203125 538.339844 L 209.621094 538.339844 L 209.835938 538.375 L 210.289063 538.375 L 210.496094 538.410156 L 211.164063 538.410156 L 211.371094 538.445313 L 211.828125 538.445313 L 212.039063 538.480469 L 212.703125 538.480469 L 212.914063 538.515625 L 213.542969 538.515625 L 213.789063 538.550781 L 214.664063 538.550781 L 214.871094 538.585938 L 215.960938 538.585938 L 216.167969 538.621094 L 217.917969 538.621094 L 218.164063 538.65625 L 220.789063 538.65625 L 220.996094 538.691406 L 227.402344 538.691406 L 227.648438 538.726563 L 232.480469 538.726563 L 232.722656 538.761719 L 235.347656 538.761719 L 235.59375 538.796875 L 237.34375 538.796875 L 237.554688 538.828125 L 238.882813 538.828125 L 239.09375 538.863281 L 240.179688 538.863281 L 240.421875 538.898438 L 241.296875 538.898438 L 241.507813 538.933594 L 242.382813 538.933594 L 242.59375 538.96875 L 243.257813 538.96875 L 243.46875 539.003906 L 244.132813 539.003906 L 244.378906 539.039063 L 245.007813 539.039063 L 245.253906 539.074219 L 245.671875 539.074219 L 245.917969 539.109375 L 246.546875 539.109375 L 246.792969 539.144531 L 247.214844 539.144531 L 247.460938 539.179688 L 247.878906 539.179688 L 248.089844 539.214844 L 248.753906 539.214844 L 248.996094 539.25 L 249.417969 539.25 L 249.664063 539.285156 L 250.085938 539.285156 L 250.292969 539.320313 L 250.746094 539.320313 L 250.960938 539.355469 L 251.414063 539.355469 L 251.621094 539.390625 L 252.078125 539.390625 L 252.289063 539.425781 L 252.742188 539.425781 L 252.953125 539.460938 L 253.410156 539.460938 L 253.617188 539.496094 L 254.074219 539.496094 L 254.285156 539.53125 L 254.738281 539.53125 L 254.949219 539.566406 L 255.402344 539.566406 L 255.613281 539.601563 L 256.070313 539.601563 L 256.277344 539.636719 L 256.734375 539.636719 L 256.945313 539.671875 L 257.363281 539.671875 L 257.609375 539.703125 L 258.027344 539.703125 L 258.273438 539.738281 L 258.695313 539.738281 L 258.9375 539.773438 L 259.359375 539.773438 L 259.605469 539.808594 L 260.023438 539.808594 L 260.269531 539.84375 L 260.6875 539.84375 L 260.933594 539.878906 L 261.355469 539.878906 L 261.597656 539.914063 L 262.230469 539.914063 L 262.472656 539.949219 L 262.894531 539.949219 L 263.140625 539.984375 L 263.558594 539.984375 L 263.804688 540.019531 L 264.222656 540.019531 L 264.46875 540.054688 L 264.890625 540.054688 L 265.132813 540.089844 L 265.554688 540.089844 L 265.765625 540.125 L 266.429688 540.125 L 266.671875 540.160156 L 267.09375 540.160156 L 267.339844 540.195313 L 267.757813 540.195313 L 267.96875 540.230469 L 268.632813 540.230469 L 268.878906 540.265625 L 269.296875 540.265625 L 269.542969 540.300781 L 270.171875 540.300781 L 270.417969 540.335938 L 270.839844 540.335938 L 271.085938 540.371094 L 271.746094 540.371094 L 271.960938 540.40625 L 272.621094 540.40625 L 272.835938 540.441406 L 273.496094 540.441406 L 273.710938 540.476563 L 274.371094 540.476563 L 274.585938 540.511719 L 275.460938 540.511719 L 275.703125 540.546875 L 276.578125 540.546875 L 276.789063 540.578125 L 277.664063 540.578125 L 277.910156 540.613281 L 278.992188 540.613281 L 279.203125 540.648438 L 280.535156 540.648438 L 280.742188 540.683594 L 282.074219 540.683594 L 282.320313 540.71875 L 284.070313 540.71875 L 284.277344 540.753906 L 286.0625 540.753906 L 286.273438 540.789063 L 288.269531 540.789063 L 288.480469 540.824219 L 290.265625 540.824219 L 290.472656 540.859375 L 292.257813 540.859375 L 292.46875 540.894531 L 294.007813 540.894531 L 294.253906 540.929688 L 295.546875 540.929688 L 295.792969 540.964844 L 297.335938 540.964844 L 297.542969 541 L 298.871094 541 L 299.117188 541.035156 L 300.660156 541.035156 L 300.867188 541.070313 L 302.863281 541.070313 L 303.074219 541.105469 L 306.574219 541.105469 L 306.820313 541.140625 L 309.652344 541.140625 L 309.898438 541.105469 L 313.398438 541.105469 L 313.609375 541.070313 L 315.605469 541.070313 L 315.8125 541.035156 L 317.390625 541.035156 L 317.597656 541 L 318.929688 541 L 319.140625 540.964844 L 320.679688 540.964844 L 320.890625 540.929688 L 322.464844 540.929688 L 322.671875 540.894531 L 324.667969 540.894531 L 324.878906 540.859375 L 327.539063 540.859375 L 327.746094 540.824219 L 336.359375 540.824219 L 336.570313 540.789063 L 341.1875 540.789063 L 341.398438 540.753906 L 343.148438 540.753906 L 343.359375 540.71875 L 344.445313 540.71875 L 344.652344 540.683594 L 345.320313 540.683594 L 345.527344 540.648438 L 346.195313 540.648438 L 346.402344 540.613281 L 346.824219 540.613281 L 347.035156 540.578125 L 347.453125 540.578125 L 347.664063 540.546875 L 348.117188 540.546875 L 348.328125 540.511719 L 348.539063 540.511719 L 348.746094 540.476563 L 348.960938 540.476563 L 349.167969 540.441406 L 349.378906 540.441406 L 349.589844 540.40625 L 349.796875 540.40625 L 350.007813 540.371094 L 350.21875 540.371094 L 350.429688 540.335938 L 350.640625 540.335938 L 350.847656 540.300781 L 351.058594 540.300781 L 351.480469 540.230469 L 351.6875 540.230469 L 351.863281 540.195313 L 352.074219 540.160156 L 352.285156 540.160156 L 352.492188 540.125 L 352.703125 540.089844 L 352.878906 540.089844 L 353.089844 540.054688 L 353.296875 540.019531 L 353.472656 540.019531 L 353.683594 539.984375 L 353.859375 539.949219 L 354.070313 539.914063 L 354.242188 539.914063 L 354.417969 539.878906 L 354.628906 539.84375 L 354.804688 539.808594 L 354.980469 539.808594 L 355.152344 539.773438 L 355.328125 539.738281 L 355.503906 539.738281 L 355.679688 539.703125 L 355.820313 539.671875 L 355.992188 539.671875 L 356.167969 539.636719 L 356.308594 539.601563 L 356.484375 539.601563 L 356.621094 539.566406 L 356.765625 539.53125 L 356.902344 539.53125 L 357.078125 539.496094 L 357.21875 539.460938 L 357.359375 539.460938 L 357.496094 539.425781 L 357.640625 539.425781 Z M 357.777344 539.390625 " transform="matrix(1,0,0,-1,-186,562)"/>
</g>
</svg>
